<svg width="129" height="83" viewBox="0 0 129 83" fill="none" xmlns="http://www.w3.org/2000/svg">
<g clip-path="url(#clip0_105_1698)">
<path d="M32.9592 41.2686C32.9249 40.411 32.9044 39.5194 32.9044 38.587C32.9044 37.6546 32.9249 36.7698 32.9592 35.9326H35.3849C35.3643 36.8242 35.3643 37.7226 35.3849 38.6278C35.4055 39.533 35.3917 40.4178 35.3575 41.2686H32.9592ZM35.3575 42.2078C35.3917 44.3518 35.3986 46.5229 35.3849 48.7145C35.3643 50.9061 35.3643 53.0976 35.3849 55.296H32.9318V42.3099C32.9318 42.2419 32.9386 42.2078 32.9592 42.2078H35.3575Z" fill="white"/>
<path d="M49.1442 44.5629C49.5142 44.1409 49.9116 43.753 50.3296 43.399C50.7544 43.0383 51.2272 42.7388 51.7549 42.4802C52.2825 42.2284 52.8649 42.0378 53.4953 41.9153C54.1257 41.7928 54.8315 41.7588 55.6058 41.8132C56.291 41.8677 56.9283 42.0174 57.5176 42.2692C58.1069 42.521 58.6345 42.8477 59.1141 43.2357C59.5938 43.6236 59.9981 44.0796 60.3544 44.5833C60.7039 45.0869 60.9848 45.611 61.1972 46.1555C61.4439 46.7681 61.6015 47.4351 61.67 48.1701C61.7385 48.9052 61.7728 49.6743 61.7591 50.4706C61.7522 51.2737 61.7248 52.0972 61.6769 52.9412C61.6358 53.7852 61.6221 54.6291 61.6358 55.4663H59.1073C59.0388 54.248 59.0388 53.0433 59.121 51.8522C59.2032 50.668 59.1964 49.5245 59.1073 48.4219C59.0525 47.8434 58.9154 47.3125 58.6825 46.8089C58.4563 46.3121 58.148 45.8765 57.7574 45.5157C57.3737 45.1482 56.9214 44.8624 56.4144 44.6514C55.9073 44.4404 55.3523 44.3383 54.7561 44.3383C54.1257 44.3383 53.5501 44.454 53.0431 44.6786C52.536 44.9032 52.0975 45.2095 51.7274 45.5838C51.3574 45.9581 51.0628 46.4073 50.8435 46.9178C50.6242 47.4351 50.4872 47.9864 50.4324 48.5785C50.3433 49.6402 50.3433 50.7632 50.4187 51.9271C50.5009 53.0977 50.5009 54.2752 50.4324 55.4595H47.9039C47.8491 54.4998 47.8491 53.5401 47.8902 52.5805C47.9313 51.6208 47.945 50.702 47.9176 49.8308C47.8902 48.9596 47.7874 48.1633 47.6161 47.4351C47.4379 46.7136 47.1159 46.1147 46.6431 45.6451C46.3073 45.2979 45.8756 44.9917 45.3549 44.7262C44.8273 44.4676 44.2311 44.3315 43.5596 44.3315C42.2919 44.3519 41.2847 44.7535 40.5309 45.5498C39.7772 46.3461 39.3455 47.333 39.2427 48.524C39.1536 49.5858 39.1536 50.7088 39.229 51.8863C39.3112 53.0637 39.3112 54.2548 39.2427 55.4595H36.7142C36.7485 54.7448 36.7553 54.0438 36.7416 53.3496C36.7211 52.6622 36.7005 51.9883 36.6731 51.335C36.6457 50.6816 36.632 50.0486 36.632 49.4361C36.632 48.8235 36.6594 48.2314 36.7142 47.6529C36.7827 46.8838 37.0157 46.1623 37.3994 45.4817C37.7832 44.8011 38.208 44.2362 38.6671 43.7802C39.1399 43.2901 39.7155 42.8614 40.3939 42.487C41.0722 42.1127 41.8191 41.8813 42.6482 41.7928C43.4363 41.7247 44.1557 41.7452 44.793 41.8609C45.4371 41.9766 46.0195 42.1603 46.5472 42.4258C47.0748 42.6912 47.5544 43.0043 47.9861 43.365C48.4178 43.7325 48.8084 44.1273 49.1579 44.5425L49.1442 44.5629Z" fill="white"/>
<path d="M65.5895 54.0368V61.6528H63.1364V51.4981C63.1364 50.9196 63.1227 50.3547 63.0953 49.7966C63.0679 49.2385 63.0816 48.6804 63.1364 48.1223C63.2049 47.3395 63.4105 46.6249 63.7531 45.9919C64.0957 45.3522 64.4932 44.8077 64.9523 44.3585C65.2675 44.0454 65.6032 43.7527 65.9664 43.4805C66.3296 43.2082 66.7338 42.9836 67.1792 42.7999C67.6246 42.6161 68.1248 42.4868 68.6662 42.4187C69.2075 42.3507 69.8242 42.3371 70.5094 42.3915C71.2837 42.446 72.0032 42.6501 72.6679 43.0177C73.3325 43.3852 73.8944 43.8004 74.3535 44.2768C74.9702 44.903 75.4636 45.6448 75.8267 46.4888C76.1968 47.3327 76.327 48.3809 76.2242 49.6196C76.1556 50.3887 75.9501 51.1101 75.6075 51.7771C75.2649 52.4509 74.8195 53.0499 74.2644 53.5671C73.7094 54.0912 73.079 54.5132 72.3664 54.8399C71.6537 55.1598 70.9068 55.3503 70.112 55.4048C69.2143 55.4592 68.4058 55.3503 67.6726 55.0917C66.9463 54.8331 66.2473 54.4792 65.5758 54.0436L65.5895 54.0368ZM65.5895 48.8029C65.569 49.2248 65.6375 49.6604 65.7882 50.1096C65.939 50.5656 66.124 50.9468 66.357 51.2599C66.6722 51.6955 67.1244 52.0902 67.7 52.4373C68.2824 52.7844 68.9471 52.9614 69.7009 52.9614C70.3655 52.9614 70.9891 52.798 71.5715 52.4645C72.1539 52.131 72.6199 51.7431 72.9694 51.2871C73.497 50.6065 73.7711 49.8714 73.7848 49.0887C73.8053 48.306 73.634 47.5914 73.2709 46.9448C72.9077 46.2982 72.4006 45.7741 71.7428 45.359C71.085 44.9506 70.3518 44.7668 69.5433 44.8213C68.9608 44.8553 68.4332 44.9846 67.9467 45.2024C67.4602 45.4202 67.049 45.7061 66.7064 46.0532C66.3638 46.4003 66.0966 46.8155 65.9047 47.2851C65.7129 47.7547 65.6032 48.2652 65.5895 48.8029Z" fill="white"/>
<path d="M90.8126 55.3981H88.4143C88.38 55.2075 88.3732 54.9829 88.3869 54.7311C88.4074 54.4793 88.3937 54.2547 88.3595 54.0641C88.1128 54.207 87.873 54.35 87.6331 54.4929C87.3933 54.6426 87.1466 54.7787 86.8794 54.9012C86.4546 55.0918 85.968 55.2347 85.4199 55.33C84.8648 55.4253 84.2618 55.4457 83.6177 55.3981C82.7886 55.33 82.0486 55.1259 81.3908 54.7855C80.7329 54.4452 80.1505 54.0301 79.6366 53.54C79.1295 53.05 78.6978 52.4851 78.3552 51.8385C78.0126 51.1919 77.8002 50.4705 77.7111 49.6673C77.6426 49.0412 77.6426 48.4627 77.7248 47.925C77.807 47.3941 77.9372 46.9041 78.1222 46.4617C78.3073 46.0193 78.5197 45.6109 78.7664 45.2434C79.013 44.8758 79.2734 44.556 79.5544 44.2769C79.9586 43.8754 80.4314 43.5146 80.9659 43.1879C81.5004 42.868 82.0965 42.6366 82.7475 42.4937C83.0284 42.4257 83.3916 42.378 83.8439 42.3508C84.2892 42.3236 84.7072 42.3304 85.0978 42.3644C85.9064 42.4529 86.6327 42.6707 87.27 43.0178C87.9141 43.3649 88.4691 43.7869 88.9419 44.2769C89.4147 44.7465 89.8258 45.3114 90.1822 45.9648C90.5316 46.6182 90.7509 47.3397 90.84 48.1224C90.9085 48.7145 90.929 49.3202 90.8948 49.9396C90.8605 50.5589 90.84 51.1715 90.84 51.784C90.84 52.3966 90.84 52.9955 90.8537 53.5877C90.8605 54.1798 90.8537 54.7855 90.8126 55.3913V55.3981ZM81.5072 45.8695C81.2948 46.0601 81.0961 46.2915 80.9042 46.5638C80.7124 46.836 80.5548 47.1355 80.4314 47.469C80.3081 47.8025 80.2259 48.1564 80.1779 48.5307C80.1368 48.9051 80.1574 49.2998 80.2464 49.7218C80.3355 50.1438 80.5 50.5453 80.7329 50.9401C80.9728 51.3348 81.2674 51.682 81.6169 51.9882C81.9663 52.2945 82.3706 52.5327 82.8297 52.7097C83.2888 52.8866 83.7753 52.9683 84.303 52.9683C84.8854 52.9683 85.413 52.8526 85.8995 52.6144C86.3792 52.3762 86.7972 52.0835 87.1535 51.7364C87.5029 51.4029 87.8044 51.0013 88.0511 50.5181C88.2978 50.0417 88.4143 49.4836 88.3937 48.8574C88.3937 48.2789 88.2772 47.748 88.0374 47.2444C87.7976 46.7475 87.5303 46.3528 87.2357 46.0533C86.8862 45.6722 86.4203 45.3455 85.8378 45.0868C85.2554 44.8282 84.625 44.7397 83.9398 44.8282C82.9188 44.9507 82.1102 45.2978 81.5141 45.8763L81.5072 45.8695Z" fill="white"/>
<path d="M105.017 47.1559C104.613 47.1763 104.181 47.1831 103.729 47.1831C103.277 47.1831 102.838 47.1763 102.441 47.1559C102.338 46.9994 102.242 46.8428 102.167 46.6863C102.084 46.5298 101.995 46.38 101.893 46.2439C101.557 45.8083 101.139 45.4408 100.639 45.1413C100.138 44.8418 99.5423 44.6717 98.8571 44.6172C98.6789 44.5968 98.5076 44.5968 98.3295 44.6172C97.24 44.7057 96.3355 45.1073 95.616 45.8355C94.8965 46.557 94.4922 47.469 94.4031 48.5716C94.3689 49.2318 94.4854 49.8307 94.7594 50.3616C95.0335 50.8925 95.3419 51.3349 95.6982 51.682C96.034 52.0155 96.4382 52.2945 96.9247 52.5191C97.4044 52.7437 97.9594 52.8662 98.5693 52.8867C99.0627 52.8867 99.5217 52.805 99.9534 52.6348C100.385 52.4715 100.755 52.2673 101.07 52.0223C101.406 51.7773 101.68 51.4982 101.899 51.1851C102.119 50.872 102.317 50.5249 102.496 50.137C102.9 50.103 103.332 50.0825 103.784 50.0825C104.236 50.0825 104.668 50.103 105.072 50.137C104.894 50.9197 104.64 51.5867 104.305 52.1244C103.969 52.6689 103.551 53.1657 103.037 53.6149C102.441 54.139 101.735 54.5746 100.926 54.9217C100.118 55.2688 99.1175 55.4049 97.9252 55.3164C97.0961 55.262 96.3423 55.0578 95.6571 54.7039C94.9719 54.3432 94.3757 53.9348 93.8618 53.4584C93.5603 53.1793 93.2794 52.8526 93.019 52.4783C92.7586 52.104 92.5325 51.682 92.3475 51.2192C92.1625 50.7563 92.0323 50.2527 91.95 49.715C91.8678 49.1773 91.8678 48.592 91.9363 47.959C92.0254 47.1219 92.2378 46.3868 92.5804 45.7471C92.9231 45.1073 93.3205 44.5628 93.7796 44.1136C94.2044 43.678 94.6704 43.3105 95.1911 43.011C95.7119 42.7115 96.3081 42.4801 96.9933 42.3032C97.2948 42.2351 97.6579 42.1806 98.1033 42.1466C98.5419 42.1126 98.9667 42.1126 99.371 42.1466C100.125 42.2147 100.81 42.4053 101.427 42.7251C102.043 43.0382 102.578 43.3989 103.037 43.8005C103.53 44.2565 103.941 44.7534 104.277 45.291C104.613 45.8355 104.86 46.4549 105.017 47.1491V47.1559Z" fill="white"/>
<path d="M106.518 36.0005H108.944V42.2281C109.505 42.2825 110.095 42.2961 110.711 42.2825C111.328 42.2621 111.931 42.2621 112.527 42.2825V44.7191H108.971C108.971 45.4882 108.95 46.2437 108.916 46.9856C108.882 47.7274 108.889 48.4216 108.944 49.0682C109.033 50.1164 109.43 50.9943 110.143 51.7022C110.855 52.41 111.753 52.8048 112.842 52.8933C113.425 52.9273 113.959 52.8524 114.453 52.6687C114.946 52.4849 115.378 52.2263 115.755 51.8859C116.131 51.5456 116.44 51.1373 116.68 50.6677C116.92 50.198 117.077 49.6876 117.166 49.1499C117.57 49.1703 117.988 49.1703 118.42 49.1499C118.852 49.1295 119.249 49.1431 119.619 49.1771C119.564 50.0687 119.379 50.8514 119.064 51.532C118.749 52.2126 118.338 52.8252 117.824 53.3629C117.228 53.989 116.474 54.4995 115.556 54.8942C114.645 55.289 113.555 55.4319 112.287 55.323C111.445 55.255 110.705 55.0372 110.06 54.6833C109.416 54.3225 108.861 53.9142 108.388 53.4377C107.916 52.9613 107.498 52.41 107.148 51.777C106.799 51.1373 106.58 50.4022 106.49 49.5651C106.436 49.041 106.422 48.4897 106.449 47.918C106.477 47.3463 106.49 46.7678 106.49 46.1892V36.1366C106.456 36.0685 106.463 36.0209 106.518 36.0073V36.0005Z" fill="white"/>
<path d="M120.126 46.3869V47.8094H119.667V45.9105C119.667 45.8016 119.667 45.6995 119.66 45.5906C119.66 45.4885 119.66 45.3796 119.667 45.2775C119.681 45.1278 119.722 44.9984 119.784 44.8759C119.845 44.7602 119.921 44.6581 120.01 44.5697C120.072 44.5084 120.133 44.454 120.202 44.4063C120.27 44.3587 120.346 44.311 120.428 44.277C120.51 44.243 120.606 44.2157 120.709 44.2089C120.812 44.1953 120.928 44.1953 121.051 44.2089C121.195 44.2157 121.332 44.2566 121.456 44.3246C121.579 44.3927 121.689 44.4744 121.771 44.5561C121.887 44.6718 121.976 44.8079 122.045 44.9712C122.113 45.1278 122.141 45.3251 122.12 45.5565C122.107 45.6995 122.066 45.8356 122.004 45.9581C121.942 46.0806 121.853 46.1963 121.75 46.2916C121.648 46.3869 121.531 46.4686 121.394 46.5298C121.264 46.5911 121.12 46.6251 120.976 46.6319C120.812 46.6387 120.654 46.6251 120.524 46.5707C120.387 46.523 120.257 46.455 120.133 46.3733L120.126 46.3869ZM120.126 45.4068C120.126 45.4817 120.133 45.5634 120.161 45.6518C120.188 45.7335 120.222 45.8084 120.263 45.8696C120.325 45.9513 120.407 46.0262 120.517 46.0874C120.627 46.1555 120.75 46.1827 120.894 46.1827C121.017 46.1827 121.134 46.1487 121.243 46.0874C121.353 46.0262 121.442 45.9513 121.504 45.8696C121.6 45.7403 121.654 45.6042 121.654 45.4613C121.654 45.3115 121.627 45.1822 121.558 45.0597C121.49 44.9372 121.394 44.8419 121.271 44.767C121.147 44.6922 121.01 44.6581 120.86 44.6649C120.75 44.6649 120.654 44.6922 120.565 44.733C120.476 44.7738 120.4 44.8283 120.332 44.8896C120.27 44.9576 120.215 45.0325 120.181 45.121C120.147 45.2094 120.126 45.3047 120.119 45.4068H120.126Z" fill="white"/>
<path d="M122.36 43.0517H122.806V44.2428C122.806 44.447 122.806 44.6512 122.799 44.8553C122.799 45.0595 122.799 45.2501 122.806 45.4271C122.819 45.6585 122.901 45.8354 123.039 45.9647C123.182 46.0941 123.367 46.1689 123.6 46.1893V46.6249C123.415 46.6317 123.251 46.6113 123.107 46.5569C122.97 46.5024 122.847 46.4276 122.751 46.3323C122.655 46.2506 122.566 46.1417 122.49 46.0124C122.415 45.8831 122.367 45.7401 122.353 45.5836C122.346 45.4815 122.34 45.3794 122.346 45.2705C122.346 45.1616 122.353 45.0595 122.353 44.9506V43.0653V43.0449L122.36 43.0517Z" fill="white"/>
<path d="M123.875 44.168H124.327C124.334 44.3858 124.334 44.5967 124.327 44.8009C124.313 45.0051 124.313 45.2161 124.327 45.4203C124.34 45.6245 124.423 45.7946 124.553 45.9307C124.69 46.0669 124.861 46.1417 125.067 46.1554H125.122C125.218 46.1554 125.314 46.1349 125.396 46.0941C125.478 46.0601 125.56 46.0056 125.622 45.9444C125.69 45.8831 125.745 45.8082 125.786 45.7198C125.827 45.6313 125.855 45.536 125.862 45.4339C125.869 45.3318 125.875 45.2229 125.869 45.1208C125.869 45.0119 125.862 44.9098 125.862 44.8077V44.1748H126.321V46.6182H125.862C125.862 46.5773 125.862 46.5297 125.862 46.4888C125.862 46.448 125.862 46.4072 125.862 46.3663C125.807 46.4004 125.745 46.4344 125.684 46.4684C125.622 46.5025 125.553 46.5297 125.478 46.5569C125.403 46.5841 125.327 46.5977 125.238 46.6114C125.156 46.625 125.06 46.625 124.95 46.6114C124.8 46.5977 124.663 46.5569 124.539 46.4888C124.416 46.4276 124.313 46.3459 124.217 46.2574C124.128 46.169 124.053 46.0669 123.984 45.9444C123.916 45.8218 123.875 45.6857 123.861 45.5428C123.861 45.4884 123.854 45.4271 123.861 45.3726C123.861 45.3114 123.861 45.2569 123.861 45.2025V44.1884V44.1748L123.875 44.168Z" fill="white"/>
<path d="M129 45.1615H128.527C128.479 45.0117 128.397 44.8892 128.281 44.7803C128.164 44.6714 128.013 44.6102 127.835 44.5965C127.801 44.5965 127.767 44.5965 127.739 44.5965C127.602 44.6034 127.492 44.6374 127.403 44.6986C127.314 44.7531 127.232 44.828 127.17 44.9096C127.205 44.9368 127.239 44.9573 127.28 44.9641C127.321 44.9777 127.362 44.9913 127.397 45.0049C127.664 45.1002 127.931 45.2023 128.205 45.3044C128.479 45.4065 128.746 45.5086 129.007 45.6107C128.993 45.7536 128.952 45.8761 128.89 45.9918C128.829 46.1075 128.746 46.2096 128.657 46.2913C128.596 46.3457 128.534 46.4002 128.466 46.441C128.397 46.4886 128.322 46.5227 128.239 46.5567C128.157 46.5907 128.068 46.6111 127.965 46.6248C127.863 46.6384 127.76 46.6384 127.643 46.6248C127.492 46.6111 127.362 46.5703 127.239 46.5091C127.122 46.4478 127.013 46.3729 126.924 46.2913C126.739 46.1211 126.622 45.8897 126.567 45.6038C126.643 45.6038 126.725 45.597 126.8 45.6038C126.883 45.6038 126.965 45.6038 127.04 45.6038C127.081 45.7468 127.164 45.8761 127.287 45.985C127.41 46.0939 127.561 46.1551 127.732 46.1756C127.828 46.1756 127.91 46.1756 127.993 46.1483C128.068 46.1211 128.137 46.0939 128.198 46.0531C128.233 46.0326 128.267 46.0122 128.301 45.985C128.335 45.9578 128.363 45.9237 128.376 45.8897C128.068 45.774 127.76 45.6583 127.458 45.5494C127.15 45.4405 126.848 45.3248 126.54 45.2091C126.615 44.828 126.794 44.5489 127.068 44.3651C127.177 44.2903 127.301 44.229 127.438 44.1814C127.575 44.1337 127.739 44.1201 127.931 44.1405C128.082 44.1541 128.212 44.195 128.335 44.2562C128.452 44.3175 128.561 44.3924 128.651 44.474C128.842 44.651 128.959 44.8824 129.007 45.1615H129Z" fill="white"/>
<path d="M68.536 8.49051C66.96 8.38842 65.5895 9.57268 65.4868 11.1381L64.082 31.9171C63.9793 33.4825 65.1716 34.8438 66.7476 34.9459C68.3236 35.0479 69.694 33.8637 69.7968 32.2983L71.2015 11.5192C71.3043 9.95382 70.112 8.5926 68.536 8.49051Z" fill="white"/>
<path d="M50.8161 2.07897C50.1104 0.670101 48.3904 0.0983879 46.972 0.806223C45.5536 1.50725 44.978 3.21559 45.6907 4.62445L54.0093 21.1905C54.715 22.5994 56.435 23.1711 57.8534 22.4633C59.2718 21.7622 59.8474 20.0539 59.1347 18.645L50.8161 2.07897Z" fill="white"/>
<path d="M43.0389 12.6421L29.5537 3.53553C28.2449 2.65073 26.4633 2.99104 25.5725 4.29101C24.6817 5.59097 25.0243 7.36056 26.3331 8.24536L39.8183 17.3519C41.1271 18.2367 42.9087 17.8964 43.7994 16.5965C44.6902 15.2965 44.3476 13.5269 43.0389 12.6421Z" fill="white"/>
<path d="M28.0667 19.0806C28.1695 17.5152 26.9772 16.1539 25.4012 16.0519L11.4569 15.1194C9.88092 15.0173 8.51048 16.2016 8.4077 17.767C8.30491 19.3324 9.4972 20.6936 11.0732 20.7957L25.0175 21.7281C26.5935 21.8302 27.9639 20.646 28.0667 19.0806Z" fill="white"/>
<path d="M4.14561 38.6753L14.5678 33.5095C15.9863 32.8085 16.5618 31.1001 15.8492 29.6913C15.1434 28.2824 13.4235 27.7107 12.0051 28.4185L1.58287 33.5844C0.164462 34.2854 -0.411125 35.9937 0.301507 37.4026C1.00729 38.8115 2.72719 39.3832 4.14561 38.6753Z" fill="white"/>
<path d="M11.1143 44.9711C9.80556 44.0863 8.02398 44.4266 7.13319 45.7266L1.89809 53.3834C1.0073 54.6834 1.34991 56.453 2.65869 57.3378C3.96746 58.2226 5.74904 57.8823 6.63983 56.5823L11.8749 48.9254C12.7657 47.6255 12.4231 45.8559 11.1143 44.9711Z" fill="white"/>
<path d="M15.3421 61.1902C13.7661 61.0881 12.3957 62.2724 12.2929 63.8378L11.8269 70.7664C11.7242 72.3318 12.9165 73.693 14.4925 73.7951C16.0685 73.8972 17.4389 72.713 17.5417 71.1476L18.0077 64.2189C18.1104 62.6535 16.9182 61.2923 15.3421 61.1902Z" fill="white"/>
<path d="M31.671 74.244C30.9652 72.8351 29.2453 72.2634 27.8269 72.9713C26.4085 73.6723 25.8329 75.3806 26.5455 76.7895L28.6286 80.9276C29.3344 82.3365 31.0543 82.9082 32.4727 82.2003C33.8911 81.4993 34.4667 79.791 33.7541 78.3821L31.671 74.244Z" fill="white"/>
<path d="M50.4393 77.0621L48.5138 75.7621C47.205 74.8773 45.4234 75.2176 44.5326 76.5176C43.6419 77.8175 43.9845 79.5871 45.2932 80.4719L47.2187 81.7719C48.5275 82.6567 50.3091 82.3164 51.1999 81.0164C52.0906 79.7164 51.748 77.9468 50.4393 77.0621Z" fill="white"/>
<path d="M64.5137 67.9485C62.9377 67.8464 61.5673 69.0307 61.4645 70.5961C61.3617 72.1615 62.554 73.5227 64.13 73.6248C65.706 73.7269 67.0765 72.5426 67.1792 70.9772C67.282 69.4118 66.0897 68.0506 64.5137 67.9485Z" fill="white"/>
<path d="M93.204 61.224C93.0738 61.3874 92.9367 61.5167 92.786 61.6052C92.6352 61.6937 92.4571 61.7413 92.2378 61.7413C92.1008 61.7413 91.9706 61.7209 91.8472 61.68C91.7239 61.6392 91.6142 61.578 91.5183 61.5031C91.4224 61.4214 91.3539 61.3261 91.2922 61.2172C91.2374 61.1015 91.21 60.9722 91.21 60.8293C91.21 60.7204 91.2305 60.6115 91.2648 60.5162C91.3059 60.4209 91.3539 60.3392 91.4224 60.2576C91.4909 60.1827 91.5663 60.1146 91.6485 60.0534C91.7376 59.9921 91.8267 59.9377 91.9226 59.8968C91.813 59.7879 91.7239 59.6791 91.6485 59.5633C91.5731 59.4476 91.532 59.3115 91.532 59.155C91.532 59.0393 91.5526 58.9304 91.6005 58.8419C91.6485 58.7466 91.7102 58.6717 91.7855 58.6105C91.8609 58.5492 91.95 58.5016 92.0528 58.4676C92.1556 58.4335 92.2583 58.4199 92.3748 58.4199C92.4913 58.4199 92.5873 58.4335 92.6832 58.4676C92.7791 58.4948 92.8682 58.5424 92.9436 58.6037C93.0189 58.6649 93.0738 58.7398 93.1217 58.8283C93.1628 58.9168 93.1834 59.0189 93.1834 59.1414C93.1834 59.2435 93.1628 59.3319 93.1217 59.4136C93.0806 59.4953 93.0258 59.5702 92.9641 59.6382C92.8956 59.7063 92.8271 59.7607 92.7449 59.8152C92.6626 59.8696 92.5804 59.9173 92.4982 59.9581L93.1834 60.6795L93.6151 59.9581H94.0468L93.4301 60.945L94.1701 61.6937H93.6494L93.2108 61.2308L93.204 61.224ZM92.1624 60.1283C92.0939 60.1623 92.0254 60.2031 91.9569 60.2508C91.8883 60.2916 91.8267 60.3461 91.7718 60.4005C91.717 60.455 91.6759 60.5162 91.6417 60.5843C91.6074 60.6523 91.5937 60.734 91.5937 60.8157C91.5937 60.8973 91.6074 60.9858 91.6417 61.0539C91.6759 61.1288 91.7239 61.19 91.7787 61.2445C91.8335 61.2989 91.902 61.3397 91.9774 61.3738C92.0528 61.401 92.135 61.4214 92.2172 61.4214C92.2995 61.4214 92.3748 61.4078 92.4434 61.3874C92.5119 61.3602 92.5804 61.3329 92.6352 61.2921C92.6969 61.2513 92.7517 61.2036 92.8065 61.1492C92.8613 61.0947 92.9093 61.0403 92.9641 60.979L92.1556 60.1351L92.1624 60.1283ZM92.2584 59.7131C92.32 59.6791 92.3817 59.645 92.4434 59.611C92.505 59.577 92.5667 59.5361 92.6147 59.4885C92.6695 59.4408 92.7106 59.3932 92.7449 59.3319C92.7791 59.2707 92.7928 59.2026 92.7928 59.121C92.7928 59.0052 92.7517 58.91 92.6695 58.8419C92.5873 58.7738 92.4913 58.7398 92.3817 58.7398C92.2515 58.7398 92.1419 58.7806 92.0528 58.8555C91.9637 58.9304 91.9157 59.0393 91.9157 59.1754C91.9157 59.2639 91.9363 59.3387 91.9843 59.4068C92.0322 59.4749 92.0802 59.5361 92.135 59.5974L92.2515 59.7131H92.2584Z" fill="white"/>
<path d="M102.804 61.6732H102.386C102.386 61.6732 102.379 61.5983 102.386 61.5575C102.386 61.5166 102.386 61.4758 102.386 61.4418C102.345 61.469 102.304 61.4894 102.263 61.5166C102.222 61.5439 102.18 61.5643 102.132 61.5847C102.057 61.6187 101.975 61.6459 101.879 61.6596C101.783 61.6732 101.68 61.68 101.564 61.6732C101.42 61.6596 101.29 61.6255 101.18 61.5643C101.064 61.503 100.968 61.435 100.878 61.3465C100.789 61.258 100.714 61.1627 100.659 61.0538C100.598 60.9449 100.563 60.8156 100.55 60.6795C100.536 60.5706 100.536 60.4685 100.55 60.38C100.563 60.2847 100.584 60.2031 100.618 60.1282C100.652 60.0533 100.687 59.9785 100.728 59.9172C100.769 59.8559 100.817 59.8015 100.865 59.747C100.933 59.679 101.016 59.6177 101.111 59.5565C101.207 59.502 101.303 59.4612 101.42 59.434C101.468 59.4203 101.529 59.4135 101.612 59.4067C101.687 59.4067 101.762 59.4067 101.831 59.4067C101.968 59.4204 102.098 59.4612 102.208 59.5224C102.317 59.5837 102.413 59.6586 102.496 59.7402C102.578 59.8219 102.646 59.9172 102.708 60.0329C102.77 60.1486 102.804 60.2711 102.825 60.4072C102.838 60.5093 102.838 60.6114 102.831 60.7203C102.831 60.8292 102.825 60.9313 102.825 61.0402C102.825 61.1491 102.825 61.2512 102.825 61.3533C102.825 61.4554 102.825 61.5575 102.825 61.6664L102.804 61.6732ZM101.194 60.0261C101.159 60.0601 101.125 60.101 101.091 60.1486C101.057 60.1962 101.029 60.2507 101.009 60.3051C100.988 60.3596 100.974 60.4208 100.968 60.4889C100.961 60.557 100.968 60.625 100.981 60.6931C100.995 60.768 101.022 60.836 101.064 60.9041C101.105 60.9721 101.153 61.0334 101.214 61.0878C101.276 61.1423 101.344 61.1831 101.427 61.2104C101.509 61.2376 101.591 61.258 101.68 61.258C101.783 61.258 101.872 61.2376 101.954 61.1967C102.037 61.1559 102.112 61.1083 102.174 61.047C102.235 60.9926 102.283 60.9177 102.331 60.836C102.372 60.7543 102.393 60.6591 102.393 60.5502C102.393 60.4481 102.372 60.3596 102.331 60.2711C102.29 60.1826 102.242 60.1146 102.194 60.0669C102.132 59.9989 102.05 59.9444 101.954 59.8968C101.851 59.8491 101.742 59.8355 101.625 59.8491C101.447 59.8695 101.31 59.9308 101.207 60.0329L101.194 60.0261Z" fill="white"/>
<path d="M105.435 60.3255C105.367 60.3255 105.291 60.3323 105.216 60.3255C105.141 60.3255 105.065 60.3255 104.997 60.3255C104.942 60.1758 104.86 60.0601 104.757 59.9648C104.654 59.8695 104.51 59.8219 104.332 59.8083C104.243 59.8083 104.154 59.8151 104.072 59.8491C103.989 59.8831 103.914 59.924 103.852 59.9716C103.777 60.0329 103.722 60.1077 103.681 60.1962C103.64 60.2779 103.613 60.38 103.592 60.5025C103.585 60.591 103.578 60.6862 103.592 60.7883C103.592 60.8836 103.592 60.9857 103.592 61.081V61.6595C103.523 61.6595 103.455 61.6663 103.38 61.6595C103.304 61.6595 103.236 61.6595 103.167 61.6595V60.6931C103.167 60.6386 103.167 60.5842 103.167 60.5297C103.167 60.4753 103.167 60.4208 103.167 60.3732C103.167 60.2915 103.195 60.2166 103.222 60.1418C103.249 60.0669 103.284 60.0056 103.318 59.9444C103.386 59.8219 103.475 59.7198 103.585 59.6313C103.695 59.5428 103.818 59.4748 103.969 59.4271C104.024 59.4067 104.099 59.3931 104.181 59.3863C104.263 59.3795 104.353 59.3727 104.442 59.3863C104.579 59.3999 104.702 59.4407 104.819 59.4952C104.935 59.5496 105.031 59.6177 105.106 59.6994C105.189 59.781 105.264 59.8763 105.319 59.9784C105.374 60.0805 105.415 60.1962 105.442 60.3323L105.435 60.3255Z" fill="white"/>
<path d="M105.867 57.5078H106.374C106.374 57.6235 106.374 57.746 106.374 57.889C106.374 58.0251 106.374 58.1748 106.374 58.3245C106.374 58.4743 106.374 58.6308 106.374 58.7806V60.2575L107.388 59.2638H108.094C107.875 59.4816 107.676 59.679 107.505 59.8491C107.429 59.924 107.361 59.992 107.285 60.0669C107.217 60.135 107.148 60.203 107.093 60.2575C107.039 60.3119 106.998 60.3596 106.963 60.3936C106.929 60.4276 106.915 60.4481 106.915 60.4481C106.915 60.4481 106.936 60.4685 106.97 60.5093C107.004 60.5433 107.052 60.591 107.107 60.6522C107.162 60.7135 107.23 60.7747 107.299 60.8496C107.368 60.9245 107.443 60.9993 107.518 61.0742L108.121 61.68H107.436C107.306 61.5574 107.189 61.4417 107.073 61.326C106.977 61.2308 106.881 61.1355 106.778 61.0402C106.682 60.9449 106.6 60.8768 106.545 60.8224C106.511 60.8496 106.484 60.8768 106.449 60.9041C106.422 60.9381 106.388 60.9653 106.353 60.9993V61.6731H105.833C105.833 60.9789 105.833 60.2779 105.833 59.5837C105.833 58.8894 105.833 58.1952 105.84 57.5078H105.867Z" fill="white"/>
<path d="M110.766 60.6657C110.465 60.6657 110.163 60.6725 109.862 60.6657C109.56 60.6657 109.259 60.6657 108.957 60.6657C108.985 60.8154 109.06 60.9448 109.177 61.0468C109.293 61.1489 109.437 61.2102 109.608 61.2238C109.697 61.2238 109.793 61.2306 109.889 61.2238C109.985 61.2238 110.081 61.2238 110.184 61.2238H110.759C110.759 61.2919 110.766 61.3599 110.759 61.4348C110.759 61.5097 110.759 61.5777 110.759 61.6526H110.129C110.019 61.6526 109.917 61.6526 109.814 61.6594C109.711 61.6594 109.608 61.6594 109.505 61.6526C109.368 61.639 109.245 61.5981 109.122 61.5369C109.005 61.4756 108.902 61.4008 108.82 61.3191C108.731 61.2306 108.656 61.1353 108.601 61.0196C108.539 60.9107 108.505 60.7814 108.491 60.6385C108.478 60.5364 108.478 60.4343 108.491 60.339C108.505 60.2437 108.526 60.1621 108.56 60.0872C108.594 60.0123 108.628 59.9374 108.676 59.8762C108.717 59.8081 108.765 59.7537 108.82 59.6992C108.882 59.638 108.95 59.5835 109.026 59.5359C109.101 59.4882 109.183 59.4474 109.286 59.4134C109.348 59.3862 109.423 59.3725 109.512 59.3589C109.595 59.3453 109.69 59.3521 109.786 59.3589C109.896 59.3657 109.992 59.393 110.088 59.4338C110.184 59.4746 110.273 59.5223 110.348 59.5835C110.424 59.6448 110.492 59.7129 110.554 59.7945C110.615 59.8762 110.663 59.9579 110.705 60.0395C110.718 60.0668 110.725 60.094 110.739 60.1212C110.753 60.1484 110.759 60.1757 110.766 60.2029C110.78 60.2778 110.78 60.3526 110.766 60.4275C110.753 60.5024 110.753 60.5772 110.766 60.6521V60.6657ZM109.684 59.8013C109.684 59.8013 109.636 59.8013 109.608 59.8013C109.451 59.8149 109.327 59.8626 109.224 59.9443C109.122 60.0259 109.046 60.1212 108.998 60.2437C109.211 60.2437 109.43 60.2437 109.649 60.2437C109.869 60.2437 110.095 60.2437 110.307 60.2437C110.259 60.1212 110.184 60.0259 110.074 59.9443C109.965 59.8626 109.834 59.8149 109.684 59.8081V59.8013Z" fill="white"/>
<path d="M111.225 58.3247H111.643V59.4001C111.739 59.4069 111.842 59.4137 111.952 59.4069C112.061 59.4069 112.164 59.4069 112.267 59.4069V59.8289H111.65C111.65 59.965 111.65 60.0943 111.643 60.2236C111.643 60.3529 111.643 60.4686 111.643 60.5843C111.657 60.7681 111.726 60.9178 111.849 61.0403C111.972 61.1629 112.13 61.2309 112.315 61.2445C112.418 61.2445 112.507 61.2377 112.596 61.2037C112.678 61.1697 112.753 61.1288 112.822 61.0676C112.89 61.0063 112.938 60.9383 112.979 60.8566C113.021 60.7749 113.048 60.6864 113.062 60.5911C113.13 60.5911 113.206 60.5911 113.281 60.5911C113.356 60.5911 113.425 60.5911 113.487 60.5911C113.48 60.7477 113.445 60.8838 113.391 60.9995C113.336 61.1152 113.267 61.2241 113.178 61.3194C113.075 61.4283 112.945 61.5168 112.788 61.5848C112.63 61.6529 112.438 61.6801 112.226 61.6597C112.082 61.6461 111.952 61.6121 111.842 61.5508C111.732 61.4895 111.636 61.4147 111.554 61.333C111.472 61.2513 111.403 61.156 111.342 61.0472C111.28 60.9383 111.246 60.8089 111.225 60.666C111.218 60.5775 111.212 60.4822 111.225 60.3802C111.225 60.2781 111.225 60.1828 111.225 60.0807V58.3451V58.3247Z" fill="white"/>
<path d="M113.905 59.2299C113.905 59.0801 113.898 58.9304 113.898 58.767C113.898 58.6037 113.898 58.454 113.905 58.311H114.323C114.323 58.4676 114.323 58.6173 114.323 58.7739C114.323 58.9304 114.323 59.0801 114.323 59.2299H113.905ZM114.323 59.3932C114.323 59.7675 114.329 60.1419 114.323 60.5162C114.323 60.8974 114.323 61.2717 114.323 61.6528H113.898V59.4068V59.3864H114.316L114.323 59.3932Z" fill="white"/>
<path d="M117.029 61.6459H116.611V61.0606C116.611 60.9448 116.611 60.8291 116.611 60.6998C116.611 60.5773 116.611 60.4616 116.584 60.3663C116.563 60.2847 116.536 60.2166 116.495 60.1417C116.454 60.0737 116.399 60.0124 116.337 59.9648C116.275 59.9171 116.207 59.8763 116.125 59.8491C116.042 59.8218 115.96 59.8082 115.871 59.8082C115.734 59.8082 115.611 59.8491 115.501 59.9239C115.391 59.9988 115.309 60.0873 115.254 60.1894C115.227 60.2438 115.206 60.2983 115.193 60.3663C115.179 60.4344 115.172 60.5024 115.172 60.5841C115.172 60.659 115.172 60.7407 115.172 60.8223C115.172 60.904 115.172 60.9857 115.172 61.0674V61.6391C115.104 61.6391 115.035 61.6459 114.96 61.6391C114.884 61.6391 114.816 61.6391 114.747 61.6391V60.6794C114.747 60.625 114.747 60.5705 114.747 60.5161C114.747 60.4616 114.747 60.414 114.747 60.3595C114.754 60.2778 114.775 60.203 114.802 60.1281C114.83 60.0532 114.864 59.992 114.898 59.9375C114.973 59.815 115.063 59.7129 115.165 59.6245C115.268 59.536 115.398 59.4747 115.542 59.4203C115.604 59.3999 115.672 59.3862 115.762 59.3794C115.844 59.3726 115.933 59.3658 116.022 59.3794C116.159 59.3931 116.289 59.4339 116.399 59.4883C116.508 59.5496 116.611 59.6177 116.7 59.7061C116.782 59.7878 116.851 59.8831 116.913 59.9988C116.974 60.1145 117.009 60.237 117.029 60.3731C117.029 60.4276 117.036 60.4752 117.029 60.5297C117.029 60.5841 117.029 60.6386 117.029 60.6862V61.6255V61.6459Z" fill="white"/>
<path d="M117.427 62.5172H117.858C117.865 62.6125 117.893 62.6942 117.934 62.7759C117.975 62.8575 118.03 62.9256 118.098 62.9868C118.167 63.0481 118.235 63.0889 118.324 63.123C118.406 63.157 118.496 63.1706 118.592 63.1638C118.722 63.1638 118.838 63.123 118.948 63.0481C119.051 62.98 119.133 62.8916 119.188 62.7963C119.242 62.701 119.27 62.6057 119.277 62.4968C119.284 62.3879 119.29 62.279 119.277 62.1633C119.277 62.0476 119.263 61.9319 119.256 61.8094C119.249 61.6869 119.256 61.5644 119.27 61.4351C119.208 61.4691 119.147 61.5031 119.085 61.5303C119.03 61.5576 118.968 61.5848 118.907 61.612C118.845 61.6324 118.777 61.6528 118.701 61.6597C118.626 61.6733 118.544 61.6733 118.441 61.6597C118.317 61.6528 118.194 61.6188 118.078 61.5644C117.961 61.5099 117.858 61.4351 117.762 61.3466C117.666 61.2581 117.591 61.156 117.529 61.0403C117.468 60.9246 117.433 60.8021 117.42 60.666C117.406 60.5162 117.42 60.3801 117.454 60.2508C117.488 60.1215 117.536 60.0126 117.598 59.9105C117.66 59.8084 117.735 59.7267 117.824 59.6519C117.913 59.5838 118.009 59.5225 118.105 59.4817C118.18 59.4545 118.269 59.4272 118.372 59.4136C118.475 59.4 118.578 59.3932 118.694 59.4068C118.818 59.4204 118.941 59.4545 119.051 59.5089C119.167 59.5634 119.263 59.6382 119.352 59.7267C119.441 59.8152 119.51 59.9173 119.571 60.033C119.626 60.1487 119.667 60.2712 119.674 60.3937C119.688 60.5571 119.695 60.734 119.688 60.9178C119.681 61.1016 119.674 61.2921 119.674 61.4827C119.674 61.6733 119.674 61.8502 119.688 62.0408C119.695 62.2246 119.688 62.4083 119.674 62.5785C119.66 62.7078 119.626 62.8303 119.571 62.946C119.517 63.0617 119.441 63.157 119.352 63.2455C119.263 63.334 119.167 63.402 119.051 63.4565C118.941 63.5109 118.818 63.5449 118.694 63.5586C118.482 63.5858 118.29 63.5586 118.126 63.4973C117.954 63.436 117.824 63.3476 117.714 63.2319C117.625 63.1366 117.557 63.0345 117.502 62.9188C117.447 62.8031 117.42 62.667 117.406 62.5104L117.427 62.5172ZM117.845 60.5366C117.845 60.6592 117.879 60.7681 117.927 60.8633C117.982 60.9586 118.05 61.0335 118.132 61.0879C118.215 61.1492 118.304 61.19 118.406 61.2104C118.509 61.2309 118.605 61.2309 118.708 61.2104C118.804 61.19 118.9 61.156 118.989 61.0947C119.078 61.0335 119.147 60.9518 119.194 60.8429C119.236 60.7613 119.263 60.6728 119.263 60.5843C119.263 60.4958 119.256 60.4141 119.229 60.3325C119.201 60.2508 119.167 60.1827 119.119 60.1147C119.071 60.0466 119.016 59.999 118.962 59.9513C118.907 59.9173 118.838 59.8833 118.756 59.856C118.674 59.8288 118.585 59.822 118.496 59.8288C118.406 59.8356 118.317 59.8628 118.242 59.8969C118.16 59.9377 118.091 59.9854 118.036 60.0466C117.982 60.1079 117.934 60.1759 117.899 60.2576C117.865 60.3393 117.851 60.4277 117.851 60.5298L117.845 60.5366Z" fill="white"/>
<path d="M98.0416 59.2501C98.1033 59.1752 98.1718 59.114 98.2472 59.0459C98.3226 58.9847 98.4048 58.9302 98.4939 58.8894C98.583 58.8486 98.6858 58.8145 98.7954 58.7941C98.905 58.7737 99.0284 58.7669 99.1586 58.7737C99.2751 58.7805 99.3847 58.8077 99.4875 58.8554C99.5903 58.8962 99.6793 58.9574 99.7616 59.0255C99.8438 59.0936 99.9123 59.1684 99.974 59.2569C100.036 59.3454 100.084 59.4339 100.118 59.5292C100.159 59.6381 100.186 59.7538 100.2 59.8763C100.214 60.0056 100.221 60.1349 100.214 60.2778C100.214 60.414 100.214 60.6726 100.2 60.8223C100.193 60.9721 100.193 61.571 100.2 61.7207H99.7616C99.7478 61.5097 99.7478 60.727 99.7616 60.5229C99.7753 60.3187 99.7753 60.1213 99.7616 59.9307C99.7547 59.8286 99.7273 59.7402 99.6862 59.6517C99.6451 59.5632 99.5903 59.4883 99.5286 59.4271C99.4601 59.3658 99.3847 59.3114 99.2956 59.2773C99.2065 59.2433 99.1106 59.2229 99.0078 59.2229C98.8982 59.2229 98.8022 59.2433 98.7132 59.2841C98.6241 59.325 98.5487 59.3726 98.487 59.4407C98.4254 59.5087 98.3706 59.5836 98.3363 59.6721C98.2952 59.7606 98.2746 59.8559 98.2678 59.9579C98.2541 60.1417 98.2541 60.3323 98.2678 60.5365C98.2815 60.7406 98.2815 61.5165 98.2678 61.7207H97.8292C97.8224 61.5574 97.8224 60.8155 97.8292 60.6454C97.8361 60.482 97.8361 60.3187 97.8292 60.1689C97.8224 60.0192 97.8087 59.8831 97.7744 59.7538C97.747 59.6313 97.6853 59.5224 97.6031 59.4407C97.5483 59.3794 97.4729 59.325 97.377 59.2841C97.2811 59.2433 97.1851 59.2161 97.0686 59.2161C96.8494 59.2161 96.6781 59.2909 96.5479 59.4271C96.4177 59.5632 96.3423 59.7333 96.3217 59.9375C96.308 60.1213 96.308 60.3187 96.3217 60.516C96.3354 60.7202 96.3354 61.5029 96.3217 61.7071H95.8832C95.8832 61.5846 95.89 60.9993 95.8832 60.8836C95.8832 60.7679 95.8832 60.5365 95.8695 60.4208C95.8558 60.3051 95.8695 60.1962 95.8695 60.0941C95.8695 59.992 95.8695 59.8831 95.8832 59.7878C95.8969 59.6517 95.938 59.5292 95.9997 59.4135C96.0682 59.2978 96.1367 59.1957 96.219 59.1208C96.3012 59.0391 96.3971 58.9643 96.5205 58.8962C96.6369 58.8281 96.7671 58.7941 96.911 58.7737C97.0481 58.7601 97.1714 58.7669 97.2811 58.7873C97.3907 58.8077 97.4935 58.8417 97.5826 58.8826C97.6716 58.9302 97.7539 58.9847 97.8292 59.0459C97.9046 59.1072 97.9731 59.1752 98.0348 59.2501H98.0416Z" fill="white"/>
<path d="M76.7997 59.4136H77.2177V59.9989C77.2177 60.1146 77.2177 60.2303 77.2177 60.3596C77.2177 60.4821 77.2177 60.5978 77.2451 60.6999C77.2657 60.7816 77.2931 60.8497 77.3342 60.9177C77.3753 60.9858 77.4233 61.0402 77.485 61.0879C77.5466 61.1355 77.6083 61.1764 77.6837 61.2104C77.7591 61.2376 77.8344 61.258 77.9167 61.258C78.0194 61.258 78.1085 61.2512 78.1976 61.2104C78.2798 61.1764 78.3552 61.1287 78.41 61.0811C78.4648 61.0334 78.5128 60.979 78.5539 60.9177C78.595 60.8497 78.6293 60.7816 78.643 60.6999C78.6635 60.6046 78.6704 60.5026 78.6704 60.3937C78.6704 60.2848 78.6704 60.1759 78.6704 60.067V59.4136H79.0952V60.3664C79.0952 60.4209 79.0952 60.4685 79.0952 60.523C79.0952 60.5774 79.0952 60.6251 79.0952 60.6795C79.0815 60.8156 79.0404 60.9381 78.9788 61.0538C78.9171 61.1696 78.8486 61.2648 78.7663 61.3465C78.6841 61.4282 78.5813 61.5031 78.4648 61.5643C78.3483 61.6256 78.225 61.6596 78.088 61.6732C77.903 61.6936 77.7385 61.6732 77.6015 61.6256C77.4644 61.5779 77.3479 61.5099 77.2451 61.435C77.1698 61.3737 77.1081 61.3057 77.0464 61.2308C76.9848 61.1559 76.9368 61.0675 76.8957 60.9722C76.8751 60.9177 76.8614 60.8701 76.8477 60.8156C76.834 60.7612 76.8272 60.7067 76.8272 60.6455C76.8272 60.4481 76.8272 60.2507 76.8272 60.0465C76.8272 59.8424 76.8272 59.6382 76.8272 59.434C76.8203 59.4272 76.8203 59.4204 76.8272 59.4204L76.7997 59.4136Z" fill="white"/>
<path d="M81.7402 60.6662C81.4387 60.6662 81.1372 60.673 80.8357 60.6662C80.5342 60.6662 80.2327 60.6662 79.9312 60.6662C79.9586 60.8159 80.034 60.9452 80.1505 61.0473C80.2669 61.1494 80.4108 61.2107 80.5821 61.2243C80.6712 61.2243 80.7672 61.2311 80.8631 61.2243C80.959 61.2243 81.055 61.2243 81.1577 61.2243H81.7333C81.7333 61.2924 81.7402 61.3604 81.7333 61.4353C81.7333 61.5101 81.7333 61.5782 81.7333 61.6531H81.1029C80.9933 61.6531 80.8905 61.6531 80.7877 61.6599C80.6849 61.6599 80.5821 61.6599 80.4794 61.6531C80.3423 61.6395 80.219 61.5986 80.0956 61.5374C79.9792 61.4761 79.8764 61.4013 79.7941 61.3196C79.7051 61.2311 79.6297 61.1358 79.5749 61.0201C79.5132 60.9112 79.4789 60.7819 79.4652 60.639C79.4515 60.5369 79.4515 60.4348 79.4652 60.3395C79.4789 60.2442 79.4995 60.1625 79.5338 60.0877C79.568 60.0128 79.6023 59.9379 79.6502 59.8767C79.6914 59.8086 79.7393 59.7542 79.7941 59.6997C79.8558 59.6385 79.9243 59.584 79.9997 59.5364C80.0751 59.4887 80.1573 59.4479 80.2601 59.4139C80.3218 59.3866 80.3971 59.373 80.4862 59.3594C80.5684 59.3458 80.6644 59.3526 80.7603 59.3594C80.8699 59.3662 80.9659 59.3934 81.0618 59.4343C81.1577 59.4751 81.2468 59.5228 81.3222 59.584C81.3976 59.6453 81.4661 59.7133 81.5278 59.795C81.5894 59.8767 81.6374 59.9584 81.6785 60.04C81.6922 60.0673 81.6991 60.0945 81.7128 60.1217C81.7265 60.1489 81.7333 60.1762 81.7402 60.2034C81.7539 60.2782 81.7539 60.3531 81.7402 60.428C81.7265 60.5028 81.7265 60.5777 81.7402 60.6526V60.6662ZM80.6575 59.8018C80.6575 59.8018 80.6096 59.8018 80.5821 59.8018C80.4245 59.8154 80.3012 59.8631 80.1984 59.9447C80.0956 60.0264 80.0203 60.1217 79.9723 60.2442C80.1847 60.2442 80.404 60.2442 80.6233 60.2442C80.8425 60.2442 81.0687 60.2442 81.2811 60.2442C81.2331 60.1217 81.1577 60.0264 81.0481 59.9447C80.9385 59.8631 80.8083 59.8154 80.6575 59.8086V59.8018Z" fill="white"/>
<path d="M84.5085 61.6459H84.0905V61.0606C84.0905 60.9448 84.0905 60.8291 84.0905 60.6998C84.0905 60.5705 84.0905 60.4616 84.0631 60.3663C84.0425 60.2847 84.0151 60.2166 83.974 60.1417C83.9329 60.0737 83.8781 60.0124 83.8164 59.9648C83.7547 59.9171 83.6862 59.8763 83.604 59.8491C83.5218 59.8218 83.4395 59.8082 83.3504 59.8082C83.2134 59.8082 83.0901 59.8491 82.9804 59.9239C82.8708 59.9988 82.7886 60.0873 82.7337 60.1894C82.7063 60.2438 82.6858 60.2983 82.6721 60.3663C82.6584 60.4344 82.6515 60.5024 82.6515 60.5841C82.6515 60.659 82.6515 60.7407 82.6515 60.8223C82.6515 60.904 82.6515 60.9857 82.6515 61.0674V61.6391C82.583 61.6391 82.5145 61.6459 82.4391 61.6391C82.3637 61.6391 82.2952 61.6391 82.2267 61.6391V60.6794C82.2267 60.625 82.2267 60.5705 82.2267 60.5161C82.2267 60.4616 82.2267 60.414 82.2267 60.3595C82.2335 60.2778 82.2541 60.203 82.2815 60.1281C82.3089 60.0532 82.3432 59.992 82.3774 59.9375C82.4528 59.815 82.5419 59.7129 82.6447 59.6245C82.7475 59.536 82.8776 59.4747 83.0215 59.4203C83.0832 59.3999 83.1517 59.3862 83.2408 59.3794C83.323 59.3726 83.4121 59.3658 83.5012 59.3794C83.6382 59.3931 83.7684 59.4339 83.8781 59.4883C83.9877 59.5496 84.0905 59.6177 84.1796 59.7061C84.2618 59.7878 84.3303 59.8831 84.392 59.9988C84.4537 60.1145 84.4879 60.237 84.5085 60.3731C84.5085 60.4276 84.5153 60.4752 84.5085 60.5297C84.5085 60.5841 84.5085 60.6386 84.5085 60.6862V61.6255V61.6459Z" fill="white"/>
<path d="M84.9059 58.3247H85.3239V59.4001C85.4198 59.4069 85.5226 59.4137 85.6323 59.4069C85.7419 59.4069 85.8447 59.4069 85.9475 59.4069V59.8289H85.3308C85.3308 59.965 85.3308 60.0943 85.3239 60.2236C85.3239 60.3529 85.3239 60.4686 85.3239 60.5843C85.3376 60.7681 85.4061 60.9178 85.5295 61.0403C85.6528 61.1629 85.8104 61.2309 85.9954 61.2445C86.0982 61.2445 86.1873 61.2377 86.2764 61.2037C86.3586 61.1697 86.434 61.1288 86.5025 61.0676C86.571 61.0063 86.619 60.9383 86.6601 60.8566C86.7012 60.7749 86.7286 60.6864 86.7423 60.5911C86.8108 60.5911 86.8862 60.5911 86.9616 60.5911C87.037 60.5911 87.1055 60.5911 87.1672 60.5911C87.1603 60.7477 87.126 60.8838 87.0712 60.9995C87.0164 61.1152 86.9479 61.2241 86.8588 61.3194C86.756 61.4283 86.6258 61.5168 86.4682 61.5848C86.3106 61.6529 86.1188 61.6801 85.9063 61.6597C85.7625 61.6461 85.6323 61.6121 85.5226 61.5508C85.413 61.4895 85.3171 61.4147 85.2348 61.333C85.1526 61.2513 85.0841 61.156 85.0224 61.0472C84.9607 60.9383 84.9265 60.8089 84.9059 60.666C84.8991 60.5775 84.8922 60.4822 84.9059 60.3802C84.9059 60.2781 84.9059 60.1828 84.9059 60.0807V58.3451V58.3247Z" fill="white"/>
<path d="M89.8327 60.3119H89.3942C89.353 60.1758 89.2777 60.0601 89.168 59.958C89.0584 59.8627 88.9214 59.8014 88.75 59.7878C88.7226 59.7878 88.6884 59.7878 88.661 59.7878C88.5376 59.7946 88.4348 59.8287 88.3458 59.8831C88.2635 59.9376 88.1882 59.9988 88.1265 60.0737C88.1539 60.1009 88.1882 60.1145 88.2293 60.1281C88.2704 60.1418 88.3046 60.1486 88.3389 60.169C88.5856 60.2575 88.8323 60.3527 89.0858 60.448C89.3393 60.5433 89.586 60.6318 89.8258 60.7271C89.8121 60.8564 89.771 60.9721 89.7162 61.081C89.6614 61.1899 89.586 61.2784 89.4969 61.36C89.4421 61.4145 89.3805 61.4553 89.3188 61.503C89.2571 61.5438 89.1886 61.5846 89.1132 61.6119C89.0378 61.6391 88.9556 61.6663 88.8597 61.6799C88.7706 61.6935 88.6678 61.6935 88.5582 61.6799C88.4211 61.6663 88.2978 61.6255 88.1882 61.571C88.0785 61.5166 87.9826 61.4485 87.8935 61.3737C87.7222 61.2171 87.6126 61.0061 87.5578 60.7339C87.6263 60.7339 87.7017 60.7271 87.777 60.7339C87.8524 60.7339 87.9278 60.7339 88.0031 60.7339C88.0443 60.87 88.1196 60.9857 88.2293 61.0878C88.3389 61.1899 88.4828 61.2443 88.6473 61.2648C88.7363 61.2648 88.8117 61.2648 88.8871 61.2375C88.9556 61.2103 89.0241 61.1831 89.079 61.1491C89.1132 61.1286 89.1475 61.1082 89.1749 61.081C89.2023 61.0538 89.2297 61.0265 89.2503 60.9925C88.9625 60.8836 88.6815 60.7815 88.4006 60.6726C88.1196 60.5705 87.8387 60.4616 87.5509 60.3527C87.6263 60.0056 87.7839 59.7402 88.0374 59.5768C88.1402 59.5088 88.2498 59.4543 88.38 59.4067C88.5034 59.3659 88.661 59.3522 88.8391 59.3727C88.9762 59.3863 89.0995 59.4203 89.2091 59.4816C89.3188 59.536 89.4147 59.6041 89.5038 59.6857C89.6819 59.8491 89.7916 60.0601 89.8327 60.3255V60.3119Z" fill="white"/>
<path d="M76.0049 60.1556C76.0049 60.1556 76.0049 60.1352 76.0049 60.1284C75.7034 60.1284 75.5184 60.1216 75.2169 60.1284C74.9154 60.1284 74.6139 60.1284 74.3124 60.1284C74.3124 60.108 74.3192 59.7405 74.3261 59.72C74.3604 59.5975 74.4289 59.4886 74.5317 59.4001C74.6481 59.2981 74.792 59.2368 74.9633 59.2232C75.0524 59.2232 75.1484 59.2164 75.2443 59.2232C75.3402 59.2232 75.4362 59.2232 75.5389 59.2232H76.1145C76.1145 59.1551 76.1214 59.0871 76.1145 59.0122C76.1145 58.9373 76.1145 58.8693 76.1145 58.7944H75.4841C75.3745 58.7944 75.2717 58.7944 75.1689 58.7876C75.0661 58.7876 74.9633 58.7876 74.8606 58.7944C74.7235 58.808 74.6002 58.8489 74.4768 58.9101C74.3604 58.9714 74.2576 59.0462 74.1753 59.1279C74.0863 59.2164 74.0109 59.3117 73.9561 59.4274C73.9081 59.5159 73.8738 59.6179 73.8533 59.7268C73.8327 59.863 73.8533 60.8362 73.8464 60.7341C73.8601 60.8635 73.9013 60.986 73.9561 61.0881C74.0177 61.197 74.0863 61.2991 74.1753 61.3875C74.2576 61.4692 74.3535 61.5441 74.4768 61.6053C74.5933 61.6666 74.7235 61.7074 74.8606 61.721C74.9633 61.7278 75.0661 61.7346 75.1689 61.7278C75.2717 61.7278 75.3745 61.721 75.4841 61.721H76.1145C76.1145 61.653 76.1145 61.5781 76.1145 61.5032C76.1145 61.4284 76.1145 61.3603 76.1145 61.2922H75.5389C75.443 61.2922 75.3471 61.2922 75.2443 61.2922C75.1484 61.2922 75.0524 61.2922 74.9633 61.2922C74.792 61.2786 74.6481 61.2174 74.5317 61.1153C74.422 61.0132 74.3466 60.8907 74.3192 60.7478C74.3192 60.7478 74.3192 60.6184 74.3192 60.6116C74.6207 60.6116 74.9222 60.6116 75.2237 60.6116C75.5252 60.6116 75.7102 60.6116 76.0117 60.6116C76.0117 60.6048 76.0117 60.5912 76.0117 60.5844C76.0117 60.5844 76.0254 60.2305 76.0117 60.1556H76.0049Z" fill="white"/>
</g>
<defs>
<clipPath id="clip0_105_1698">
<rect width="129" height="82" fill="white" transform="translate(0 0.5)"/>
</clipPath>
</defs>
</svg>
