<svg width="40" height="40" viewBox="0 0 40 40" fill="none" xmlns="http://www.w3.org/2000/svg">
<path d="M36.4286 10.7692H35.7143V9.30769C35.7143 5.27823 32.51 2 28.5714 2H11.4286C7.49 2 4.28571 5.27823 4.28571 9.30769V10.7692H3.57143C1.60143 10.7692 0 12.4091 0 14.4231V18.0769C0 18.8837 0.638571 19.5385 1.42857 19.5385C2.21857 19.5385 2.85714 18.8837 2.85714 18.0769V14.4231C2.85714 14.0197 3.17857 13.6923 3.57143 13.6923H4.28571V28.3077C4.28571 30.6871 5.42 32.7844 7.14571 34.1188C7.14571 34.1305 7.14286 34.1422 7.14286 34.1538V37.0769C7.14286 38.6919 8.42143 40 10 40H11.4286C13.0071 40 14.2857 38.6919 14.2857 37.0769V35.6154H25.7143V37.0769C25.7143 38.6919 26.9929 40 28.5714 40H30C31.5786 40 32.8571 38.6919 32.8571 37.0769V34.1538C32.8571 34.1422 32.8543 34.1305 32.8543 34.1188C34.58 32.7829 35.7143 30.6871 35.7143 28.3077V13.6923H36.4286C36.8214 13.6923 37.1429 14.0197 37.1429 14.4231V18.0769C37.1429 18.8837 37.7814 19.5385 38.5714 19.5385C39.3614 19.5385 40 18.8837 40 18.0769V14.4231C40 12.4091 38.3986 10.7692 36.4286 10.7692ZM10.7143 31.2308C9.53143 31.2308 8.57143 30.2486 8.57143 29.0385C8.57143 27.8283 9.53143 26.8462 10.7143 26.8462C11.8971 26.8462 12.8571 27.8283 12.8571 29.0385C12.8571 30.2486 11.8971 31.2308 10.7143 31.2308ZM29.2857 31.2308C28.1029 31.2308 27.1429 30.2486 27.1429 29.0385C27.1429 27.8283 28.1029 26.8462 29.2857 26.8462C30.4686 26.8462 31.4286 27.8283 31.4286 29.0385C31.4286 30.2486 30.4686 31.2308 29.2857 31.2308ZM32.8571 18.7712C32.8571 20.1991 31.8529 21.4428 30.4729 21.6562C27.0814 22.178 23.5829 22.4586 20 22.4586C16.4171 22.4586 12.9186 22.1795 9.52714 21.6562C8.14714 21.4428 7.14286 20.1991 7.14286 18.7712V10.7692C7.14286 9.15423 8.42143 7.84615 10 7.84615H30C31.5786 7.84615 32.8571 9.15423 32.8571 10.7692V18.7712Z" fill="url(#paint0_linear_337_4)"/>
<defs>
<linearGradient id="paint0_linear_337_4" x1="20" y1="2" x2="20" y2="40" gradientUnits="userSpaceOnUse">
<stop stop-color="#05BAB5"/>
<stop offset="1" stop-color="#0563BA"/>
</linearGradient>
</defs>
</svg>
