<svg width="142" height="136" viewBox="0 0 142 136" fill="none" xmlns="http://www.w3.org/2000/svg">
<g clip-path="url(#clip0_7_4528)">
<path d="M121.005 84.7162C121.082 86.555 120.426 88.3493 119.182 89.7054C117.938 91.0614 116.206 91.8686 114.368 91.9497C114.26 91.9547 114.153 91.9572 114.046 91.9572C113.557 91.9569 113.07 91.904 112.593 91.7995C111.177 93.9858 109.32 95.8525 107.141 97.2801C104.963 98.7077 102.51 99.6649 99.9402 100.09C99.6363 100.983 99.0299 101.742 98.2259 102.235C97.4219 102.729 96.4708 102.926 95.5371 102.792C94.6033 102.658 93.7456 102.203 93.1121 101.504C92.4787 100.805 92.1093 99.9067 92.0679 98.9644C92.0264 98.022 92.3156 97.0948 92.8852 96.343C93.4549 95.5912 94.2694 95.0621 95.1878 94.8471C96.1062 94.6321 97.0709 94.7448 97.9151 95.1656C98.7593 95.5864 99.4299 96.289 99.811 97.1518C103.429 96.4827 106.697 94.5653 109.047 91.7337C111.396 88.9021 112.677 85.3359 112.667 81.6567C112.667 72.9645 105.595 65.8929 96.9029 65.8929C88.2108 65.8929 81.1392 72.9645 81.1392 81.6567C81.1387 84.3444 81.8256 86.9877 83.1346 89.3351C83.179 89.4126 83.2123 89.4959 83.2336 89.5826C83.36 89.934 83.3465 90.3206 83.1958 90.6623C83.0452 91.0041 82.7689 91.2748 82.4241 91.4185C81.58 91.7737 80.6734 91.9567 79.7576 91.9565C79.6498 91.9565 79.5418 91.954 79.4335 91.949C77.5957 91.8669 75.8654 91.0593 74.6221 89.7033C73.3788 88.3473 72.7239 86.5536 72.8011 84.7155C72.8321 83.9825 72.8148 83.3286 72.7979 82.6962C72.7821 82.1007 72.7657 81.485 72.7927 80.8424C72.8734 79.0477 73.6455 77.3539 74.9471 76.1156C76.2487 74.8774 77.979 74.1908 79.7755 74.1997C82.6603 67.5993 89.2511 62.9746 96.9029 62.9746C104.555 62.9746 111.146 67.5993 114.031 74.1998C115.827 74.1895 117.558 74.8755 118.86 76.1138C120.162 77.3521 120.933 79.0464 121.013 80.8414C121.04 81.4849 121.024 82.1005 121.008 82.696C120.991 83.3285 120.974 83.9827 121.005 84.7162ZM109.141 81.6567C109.14 83.5315 108.709 85.3812 107.88 87.063C107.052 88.7448 105.848 90.2138 104.362 91.3567C102.875 92.4997 101.146 93.286 99.3083 93.6551C97.4701 94.0242 95.5717 93.9662 93.7595 93.4855L88.8061 96.3462C88.5562 96.4905 88.269 96.5575 87.981 96.5386C87.693 96.5198 87.4171 96.4159 87.1881 96.2402C86.9591 96.0645 86.7874 95.8249 86.6946 95.5516C86.6019 95.2783 86.5922 94.9836 86.667 94.7048L87.9329 89.9822C85.8364 87.7161 84.6699 84.7438 84.6655 81.6567C84.6655 74.9068 90.1549 69.4159 96.9029 69.4159C103.651 69.4159 109.141 74.9068 109.141 81.6567ZM93.5007 81.6567C93.5007 81.2697 93.3469 80.8985 93.0733 80.6249C92.7997 80.3512 92.4285 80.1975 92.0415 80.1975H92.0391C91.7506 80.198 91.4688 80.2841 91.2292 80.4447C90.9896 80.6054 90.803 80.8335 90.693 81.1001C90.5829 81.3668 90.5544 81.6601 90.611 81.943C90.6676 82.2259 90.8068 82.4856 91.011 82.6894C91.2152 82.8932 91.4752 83.0319 91.7582 83.088C92.0411 83.144 92.3344 83.115 92.6008 83.0045C92.8673 82.894 93.095 82.7069 93.2552 82.467C93.4155 82.2271 93.501 81.9451 93.501 81.6567H93.5007ZM98.3624 81.6567C98.3623 81.6089 98.3597 81.5612 98.3546 81.5137C98.35 81.466 98.3429 81.4186 98.3333 81.3716C98.3246 81.3249 98.3129 81.2787 98.2982 81.2335C98.2847 81.1878 98.2681 81.143 98.2506 81.0983C98.2331 81.0535 98.2117 81.0117 98.1893 80.9699C98.1671 80.9278 98.1428 80.8869 98.1164 80.8473C98.0898 80.8073 98.0612 80.7687 98.0307 80.7316C98.0007 80.6944 97.9686 80.659 97.9345 80.6255C97.9014 80.5915 97.8654 80.5594 97.8284 80.5282C97.7914 80.4991 97.7525 80.4699 97.7126 80.4436C97.673 80.4172 97.6321 80.3929 97.5901 80.3707C97.5482 80.3483 97.5045 80.3279 97.4606 80.3094C97.4168 80.291 97.372 80.2751 97.3265 80.2617C97.2355 80.2325 97.1415 80.2136 97.0463 80.2053C96.9034 80.1915 96.7593 80.1984 96.6183 80.2257C96.5714 80.2353 96.525 80.2473 96.4793 80.2617C96.4337 80.2751 96.3889 80.291 96.3451 80.3094C96.3013 80.3279 96.2575 80.3483 96.2157 80.3707C96.1739 80.393 96.133 80.4173 96.093 80.4436C96.053 80.4699 96.0142 80.4991 95.9783 80.5282C95.9404 80.5594 95.9054 80.5915 95.8713 80.6255C95.8372 80.659 95.805 80.6944 95.7749 80.7316C95.7448 80.7687 95.7166 80.8073 95.6904 80.8473C95.6637 80.8869 95.639 80.9278 95.6165 80.9699C95.594 81.0116 95.5738 81.0544 95.556 81.0983C95.5376 81.1425 95.5213 81.1876 95.5074 81.2335C95.4939 81.2782 95.4822 81.3249 95.4725 81.3716C95.4629 81.4186 95.4557 81.466 95.451 81.5137C95.4462 81.5613 95.4442 81.609 95.4442 81.6567C95.4442 81.7043 95.4462 81.753 95.451 81.8006C95.4558 81.848 95.4629 81.8951 95.4725 81.9417C95.4822 81.9884 95.4939 82.0351 95.5074 82.0808C95.5213 82.1263 95.5376 82.1711 95.556 82.215C95.5738 82.2592 95.594 82.3024 95.6165 82.3444C95.6387 82.3862 95.6641 82.4271 95.6904 82.467C95.7166 82.5067 95.7448 82.545 95.7749 82.5818C95.8052 82.619 95.8374 82.6547 95.8713 82.6888C95.9054 82.7218 95.9404 82.7549 95.9783 82.7851C96.0149 82.8154 96.0532 82.8437 96.093 82.8697C96.133 82.896 96.1738 82.9213 96.2157 82.9436C96.3002 82.9877 96.3884 83.0241 96.4793 83.0526C96.5249 83.0662 96.5716 83.0779 96.6183 83.0876C96.7121 83.1068 96.8076 83.1162 96.9033 83.1158C97.2899 83.1148 97.6604 82.9613 97.9345 82.6888C98.0017 82.6205 98.0626 82.5463 98.1164 82.467C98.1426 82.4271 98.167 82.3862 98.1893 82.3444C98.2117 82.3026 98.2321 82.2588 98.2506 82.215C98.2691 82.1712 98.2847 82.1255 98.2982 82.0808C98.3127 82.0352 98.3245 81.9887 98.3333 81.9417C98.3428 81.8951 98.3499 81.848 98.3546 81.8006C98.3596 81.7527 98.3621 81.7046 98.3621 81.6565L98.3624 81.6567ZM103.226 81.6567C103.226 81.2697 103.073 80.8985 102.799 80.6249C102.525 80.3512 102.154 80.1975 101.767 80.1975H101.764C101.476 80.1981 101.194 80.2841 100.954 80.4448C100.715 80.6055 100.528 80.8335 100.418 81.1002C100.308 81.3669 100.28 81.6602 100.336 81.943C100.393 82.2259 100.532 82.4856 100.736 82.6894C100.94 82.8932 101.2 83.0319 101.483 83.088C101.766 83.144 102.06 83.115 102.326 83.0045C102.593 82.8939 102.82 82.7069 102.981 82.467C103.141 82.2271 103.226 81.9451 103.226 81.6567Z" fill="white"/>
</g>
<path d="M57.7567 131C56.7487 131 55.8967 130.838 55.2007 130.514C54.5167 130.19 54.0007 129.698 53.6527 129.038C53.3167 128.378 53.1487 127.55 53.1487 126.554C53.1487 125.546 53.3167 124.7 53.6527 124.016C54.0007 123.332 54.5167 122.816 55.2007 122.468C55.8967 122.12 56.7487 121.946 57.7567 121.946H61.9507V129.722H59.1967V123.836L59.7547 124.304H57.7567C57.3487 124.304 57.0067 124.358 56.7307 124.466C56.4547 124.562 56.2447 124.772 56.1007 125.096C55.9687 125.408 55.9027 125.894 55.9027 126.554C55.9027 127.166 55.9627 127.622 56.0827 127.922C56.2027 128.222 56.4007 128.42 56.6767 128.516C56.9527 128.6 57.3127 128.642 57.7567 128.642H63.8227V131H57.7567ZM63.8227 131V128.642C63.9667 128.642 64.0627 128.75 64.1107 128.966C64.1587 129.17 64.1827 129.452 64.1827 129.812C64.1827 130.172 64.1587 130.46 64.1107 130.676C64.0627 130.892 63.9667 131 63.8227 131ZM55.4167 121.046V118.85H58.1887V121.046H55.4167ZM57.8827 121.046V118.85H60.6547V121.046H57.8827ZM63.8013 131V128.642H72.9813L71.8653 129.632V126.518C71.8653 125.93 71.7993 125.474 71.6673 125.15C71.5473 124.826 71.3253 124.598 71.0013 124.466C70.6893 124.334 70.2513 124.268 69.6873 124.268C69.1953 124.268 68.7153 124.298 68.2473 124.358C67.7913 124.418 67.4313 124.502 67.1673 124.61L68.8773 123.026C68.8053 123.29 68.7333 123.632 68.6613 124.052C68.6013 124.472 68.5473 124.916 68.4993 125.384C68.4633 125.84 68.4453 126.284 68.4453 126.716C68.4453 127.112 68.4633 127.532 68.4993 127.976C68.5473 128.42 68.5953 128.816 68.6433 129.164C68.7033 129.5 68.7453 129.728 68.7693 129.848L66.1593 130.586C66.0993 130.406 66.0333 130.124 65.9613 129.74C65.8893 129.356 65.8293 128.906 65.7813 128.39C65.7333 127.862 65.7093 127.304 65.7093 126.716C65.7093 126.128 65.7333 125.558 65.7813 125.006C65.8413 124.442 65.9133 123.932 65.9973 123.476C66.0813 123.02 66.1593 122.66 66.2313 122.396C66.5193 122.288 66.9753 122.18 67.5993 122.072C68.2353 121.964 68.9313 121.91 69.6873 121.91C70.7913 121.91 71.7033 122.06 72.4233 122.36C73.1553 122.66 73.7013 123.146 74.0613 123.818C74.4333 124.49 74.6193 125.396 74.6193 126.536V131H63.8013ZM63.8193 131C63.6873 131 63.5973 130.892 63.5493 130.676C63.4893 130.46 63.4593 130.172 63.4593 129.812C63.4593 129.452 63.4893 129.17 63.5493 128.966C63.5973 128.75 63.6873 128.642 63.8193 128.642V131ZM83.9792 131V128.642H85.8512V131H83.9792ZM76.5452 131V128.642H83.0252L81.2252 130.19V127.472C81.2252 126.644 81.1412 126.002 80.9732 125.546C80.8052 125.09 80.5292 124.772 80.1452 124.592C79.7612 124.4 79.2332 124.304 78.5612 124.304H77.1032V121.946H78.5612C79.7252 121.946 80.7092 122.138 81.5132 122.522C82.3172 122.906 82.9292 123.506 83.3492 124.322C83.7692 125.126 83.9792 126.176 83.9792 127.472V131H76.5452ZM85.8512 131V128.642C85.9952 128.642 86.0912 128.75 86.1392 128.966C86.1872 129.17 86.2112 129.452 86.2112 129.812C86.2112 130.172 86.1872 130.46 86.1392 130.676C86.0912 130.892 85.9952 131 85.8512 131ZM85.8447 131V128.642H93.5127L92.5587 129.38V126.464C92.5587 125.768 92.3427 125.24 91.9107 124.88C91.4787 124.508 90.7827 124.322 89.8227 124.322C89.5587 124.322 89.2047 124.34 88.7607 124.376C88.3167 124.412 87.8307 124.466 87.3027 124.538L87.0507 122.378C87.5547 122.258 88.0647 122.156 88.5807 122.072C89.1087 121.988 89.6187 121.946 90.1107 121.946C91.1187 121.946 92.0127 122.132 92.7927 122.504C93.5727 122.864 94.1847 123.38 94.6287 124.052C95.0847 124.712 95.3127 125.516 95.3127 126.464V131H85.8447ZM85.8447 131C85.7127 131 85.6227 130.892 85.5747 130.676C85.5147 130.46 85.4847 130.172 85.4847 129.812C85.4847 129.452 85.5147 129.17 85.5747 128.966C85.6227 128.75 85.7127 128.642 85.8447 128.642V131ZM88.7247 120.47V118.274H91.4967V120.47H88.7247ZM114.694 131V128.642H116.584V131H114.694ZM107.134 131C105.154 131 103.636 130.604 102.58 129.812C101.536 129.008 101.014 127.844 101.014 126.32C101.014 126.032 101.032 125.732 101.068 125.42C101.104 125.108 101.146 124.808 101.194 124.52C101.242 124.232 101.29 123.98 101.338 123.764C101.386 123.536 101.422 123.362 101.446 123.242L104.128 123.764C104.092 123.944 104.044 124.178 103.984 124.466C103.924 124.754 103.87 125.06 103.822 125.384C103.786 125.696 103.768 125.996 103.768 126.284C103.768 126.908 103.906 127.394 104.182 127.742C104.458 128.078 104.854 128.312 105.37 128.444C105.898 128.576 106.54 128.642 107.296 128.642H111.94V121.946H114.694V131H107.134ZM116.584 131V128.642C116.716 128.642 116.806 128.75 116.854 128.966C116.914 129.17 116.944 129.452 116.944 129.812C116.944 130.172 116.914 130.46 116.854 130.676C116.806 130.892 116.716 131 116.584 131ZM106.666 135.032V132.836H109.438V135.032H106.666ZM121.341 131V128.642H123.213V131H121.341ZM118.587 131V118.346H121.341V131H118.587ZM116.589 131V128.642H118.587V131H116.589ZM116.589 131C116.457 131 116.367 130.892 116.319 130.676C116.259 130.46 116.229 130.172 116.229 129.812C116.229 129.452 116.259 129.17 116.319 128.966C116.367 128.75 116.457 128.642 116.589 128.642V131ZM123.213 131V128.642C123.357 128.642 123.453 128.75 123.501 128.966C123.549 129.17 123.573 129.452 123.573 129.812C123.573 130.172 123.549 130.46 123.501 130.676C123.453 130.892 123.357 131 123.213 131ZM123.216 131V128.642H135.996L133.71 130.604V126.968C133.71 126.32 133.62 125.804 133.44 125.42C133.272 125.036 133.032 124.754 132.72 124.574C132.408 124.394 132.036 124.304 131.604 124.304C131.088 124.304 130.596 124.412 130.128 124.628C129.672 124.844 129.24 125.12 128.832 125.456C128.436 125.792 128.07 126.152 127.734 126.536C127.398 126.92 127.098 127.286 126.834 127.634C126.57 127.982 126.354 128.258 126.186 128.462L125.61 126.59C126.138 125.894 126.624 125.264 127.068 124.7C127.512 124.136 127.968 123.65 128.436 123.242C128.904 122.822 129.414 122.504 129.966 122.288C130.53 122.06 131.19 121.946 131.946 121.946C132.726 121.946 133.398 122.078 133.962 122.342C134.538 122.606 135.012 122.972 135.384 123.44C135.756 123.908 136.026 124.448 136.194 125.06C136.374 125.66 136.464 126.296 136.464 126.968V131H123.216ZM124.476 128.642V118.346H127.23V128.642H124.476ZM123.216 131C123.084 131 122.994 130.892 122.946 130.676C122.886 130.46 122.856 130.172 122.856 129.812C122.856 129.452 122.886 129.17 122.946 128.966C122.994 128.75 123.084 128.642 123.216 128.642V131ZM139.249 131V118.346H141.985V131H139.249Z" fill="white"/>
<defs>
<clipPath id="clip0_7_4528">
<rect width="49.8058" height="49.8058" fill="white" transform="translate(72 58)"/>
</clipPath>
</defs>
</svg>
