<svg width="50" height="50" viewBox="0 0 50 50" fill="none" xmlns="http://www.w3.org/2000/svg">
<g id="customer-service 1" clip-path="url(#clip0_7_4530)">
<path id="Vector" d="M49.0048 26.7162C49.0817 28.555 48.4262 30.3493 47.1819 31.7054C45.9376 33.0614 44.2062 33.8686 42.3676 33.9497C42.26 33.9547 42.1527 33.9572 42.0456 33.9572C41.5571 33.9569 41.07 33.904 40.5928 33.7995C39.1768 35.9858 37.32 37.8525 35.1414 39.2801C32.9627 40.7077 30.51 41.6649 27.9402 42.0905C27.6363 42.9834 27.0299 43.7421 26.2259 44.2354C25.4219 44.7286 24.4708 44.9255 23.5371 44.7919C22.6033 44.6584 21.7456 44.2028 21.1121 43.5039C20.4787 42.805 20.1093 41.9067 20.0679 40.9644C20.0264 40.022 20.3156 39.0948 20.8852 38.343C21.4549 37.5912 22.2694 37.0621 23.1878 36.8471C24.1062 36.6321 25.0709 36.7448 25.9151 37.1656C26.7593 37.5864 27.4299 38.289 27.811 39.1518C31.4289 38.4827 34.6973 36.5653 37.0466 33.7337C39.3958 30.9021 40.6769 27.3359 40.6667 23.6567C40.6667 14.9645 33.5951 7.89292 24.9029 7.89292C16.2108 7.89292 9.1392 14.9645 9.1392 23.6567C9.13873 26.3444 9.82564 28.9877 11.1346 31.3351C11.179 31.4126 11.2123 31.4959 11.2336 31.5826C11.36 31.934 11.3465 32.3206 11.1958 32.6623C11.0452 33.0041 10.7689 33.2748 10.4241 33.4185C9.58002 33.7737 8.6734 33.9567 7.75758 33.9565C7.6498 33.9565 7.54179 33.954 7.43355 33.949C5.59568 33.8669 3.86539 33.0593 2.62208 31.7033C1.37877 30.3473 0.723914 28.5536 0.801106 26.7155C0.832137 25.9825 0.814822 25.3286 0.797896 24.6962C0.782137 24.1007 0.765697 23.485 0.79274 22.8424C0.873448 21.0477 1.64546 19.3539 2.94709 18.1156C4.24871 16.8774 5.97898 16.1908 7.77548 16.1997C10.6603 9.59926 17.2511 4.97461 24.9029 4.97461C32.5548 4.97461 39.1457 9.59925 42.0305 16.1998C43.8272 16.1895 45.558 16.8755 46.8599 18.1138C48.1617 19.3521 48.9334 21.0464 49.0131 22.8414C49.0402 23.4849 49.0238 24.1005 49.0079 24.696C48.9912 25.3285 48.9738 25.9827 49.0048 26.7162ZM37.1409 23.6567C37.1402 25.5315 36.7089 27.3812 35.8802 29.063C35.0516 30.7448 33.8477 32.2138 32.3615 33.3567C30.8753 34.4997 29.1465 35.286 27.3083 35.6551C25.4701 36.0242 23.5717 35.9662 21.7595 35.4855L16.8061 38.3462C16.5562 38.4905 16.269 38.5575 15.981 38.5386C15.693 38.5198 15.4171 38.4159 15.1881 38.2402C14.9591 38.0645 14.7874 37.8249 14.6946 37.5516C14.6019 37.2783 14.5922 36.9836 14.667 36.7048L15.9329 31.9822C13.8364 29.7161 12.6699 26.7438 12.6655 23.6567C12.6655 16.9068 18.1549 11.4159 24.9029 11.4159C31.651 11.4159 37.1409 16.9068 37.1409 23.6567ZM21.5007 23.6567C21.5007 23.2697 21.3469 22.8985 21.0733 22.6249C20.7997 22.3512 20.4285 22.1975 20.0415 22.1975H20.0391C19.7506 22.198 19.4688 22.2841 19.2292 22.4447C18.9896 22.6054 18.803 22.8335 18.693 23.1001C18.5829 23.3668 18.5544 23.6601 18.611 23.943C18.6676 24.2259 18.8068 24.4856 19.011 24.6894C19.2152 24.8932 19.4752 25.0319 19.7582 25.088C20.0411 25.144 20.3344 25.115 20.6008 25.0045C20.8673 24.894 21.095 24.7069 21.2552 24.467C21.4155 24.2271 21.501 23.9451 21.501 23.6567H21.5007ZM26.3624 23.6567C26.3623 23.6089 26.3597 23.5612 26.3546 23.5137C26.35 23.466 26.3429 23.4186 26.3333 23.3716C26.3246 23.3249 26.3129 23.2787 26.2982 23.2335C26.2847 23.1878 26.2681 23.143 26.2506 23.0983C26.2331 23.0535 26.2117 23.0117 26.1893 22.9699C26.1671 22.9278 26.1428 22.8869 26.1164 22.8473C26.0898 22.8073 26.0612 22.7687 26.0307 22.7316C26.0007 22.6944 25.9686 22.659 25.9345 22.6255C25.9014 22.5915 25.8654 22.5594 25.8284 22.5282C25.7914 22.4991 25.7525 22.4699 25.7126 22.4436C25.673 22.4172 25.6321 22.3929 25.5901 22.3707C25.5482 22.3483 25.5045 22.3279 25.4606 22.3094C25.4168 22.291 25.372 22.2751 25.3265 22.2617C25.2355 22.2325 25.1415 22.2136 25.0463 22.2053C24.9034 22.1915 24.7593 22.1984 24.6183 22.2257C24.5714 22.2353 24.525 22.2473 24.4793 22.2617C24.4337 22.2751 24.3889 22.291 24.3451 22.3094C24.3013 22.3279 24.2575 22.3483 24.2157 22.3707C24.1739 22.393 24.133 22.4173 24.093 22.4436C24.053 22.4699 24.0142 22.4991 23.9783 22.5282C23.9404 22.5594 23.9054 22.5915 23.8713 22.6255C23.8372 22.659 23.805 22.6944 23.7749 22.7316C23.7448 22.7687 23.7166 22.8073 23.6904 22.8473C23.6637 22.8869 23.639 22.9278 23.6165 22.9699C23.594 23.0116 23.5738 23.0544 23.556 23.0983C23.5376 23.1425 23.5213 23.1876 23.5074 23.2335C23.4939 23.2782 23.4822 23.3249 23.4725 23.3716C23.4629 23.4186 23.4557 23.466 23.451 23.5137C23.4462 23.5613 23.4442 23.609 23.4442 23.6567C23.4442 23.7043 23.4462 23.753 23.451 23.8006C23.4558 23.848 23.4629 23.8951 23.4725 23.9417C23.4822 23.9884 23.4939 24.0351 23.5074 24.0808C23.5213 24.1263 23.5376 24.1711 23.556 24.215C23.5738 24.2592 23.594 24.3024 23.6165 24.3444C23.6387 24.3862 23.6641 24.4271 23.6904 24.467C23.7166 24.5067 23.7448 24.545 23.7749 24.5818C23.8052 24.619 23.8374 24.6547 23.8713 24.6888C23.9054 24.7218 23.9404 24.7549 23.9783 24.7851C24.0149 24.8154 24.0532 24.8437 24.093 24.8697C24.133 24.896 24.1738 24.9213 24.2157 24.9436C24.3002 24.9877 24.3884 25.0241 24.4793 25.0526C24.5249 25.0662 24.5716 25.0779 24.6183 25.0876C24.7121 25.1068 24.8076 25.1162 24.9033 25.1158C25.2899 25.1148 25.6604 24.9613 25.9345 24.6888C26.0017 24.6205 26.0626 24.5463 26.1164 24.467C26.1426 24.4271 26.167 24.3862 26.1893 24.3444C26.2117 24.3026 26.2321 24.2588 26.2506 24.215C26.2691 24.1712 26.2847 24.1255 26.2982 24.0808C26.3127 24.0352 26.3245 23.9887 26.3333 23.9417C26.3428 23.8951 26.3499 23.848 26.3546 23.8006C26.3596 23.7527 26.3621 23.7046 26.3621 23.6565L26.3624 23.6567ZM31.2262 23.6567C31.2262 23.2697 31.0725 22.8985 30.7989 22.6249C30.5252 22.3512 30.1541 22.1975 29.7671 22.1975H29.7643C29.4758 22.1981 29.194 22.2841 28.9544 22.4448C28.7148 22.6055 28.5282 22.8335 28.4182 23.1002C28.3082 23.3669 28.2797 23.6602 28.3363 23.943C28.3929 24.2259 28.5321 24.4856 28.7363 24.6894C28.9405 24.8932 29.2005 25.0319 29.4835 25.088C29.7664 25.144 30.0597 25.115 30.3261 25.0045C30.5926 24.8939 30.8203 24.7069 30.9805 24.467C31.1407 24.2271 31.2262 23.9451 31.2262 23.6567Z" fill="white"/>
</g>
<defs>
<clipPath id="clip0_7_4530">
<rect width="49.8058" height="49.8058" fill="white"/>
</clipPath>
</defs>
</svg>
