<svg width="36" height="36" viewBox="0 0 36 36" fill="none" xmlns="http://www.w3.org/2000/svg">
<g clip-path="url(#clip0_105_1797)">
<path d="M35.47 6.81001C35.76 6.81001 35.99 6.58001 35.99 6.29001V1.68001C35.99 1.39001 35.76 1.16001 35.47 1.16001H23.3V0.53001C23.3 0.24001 23.07 0.0100098 22.78 0.0100098H13.55C13.26 0.0100098 13.03 0.24001 13.03 0.53001V1.16001H6.75997C6.46997 1.16001 6.23997 1.39001 6.23997 1.68001C6.23997 1.97001 6.46997 2.20001 6.75997 2.20001H13.03V2.83001C13.03 3.12001 13.26 3.35001 13.55 3.35001H22.78C23.07 3.35001 23.3 3.12001 23.3 2.83001V2.20001H34.95V5.77001H1.37997V2.20001H4.67997C4.96997 2.20001 5.19997 1.97001 5.19997 1.68001C5.19997 1.39001 4.96997 1.16001 4.67997 1.16001H0.859966C0.569966 1.16001 0.339966 1.39001 0.339966 1.68001V6.29001C0.339966 6.58001 0.569966 6.81001 0.859966 6.81001H1.48997V13.79V20.77H0.859966C0.569966 20.77 0.339966 21 0.339966 21.29V35.13C0.339966 35.42 0.569966 35.65 0.859966 35.65H35.47C35.76 35.65 35.99 35.42 35.99 35.13V21.29C35.99 21 35.76 20.77 35.47 20.77H34.84V6.81001H35.47ZM14.08 2.31001V1.05001H22.27V2.31001H14.08ZM33.39 14.32L32.02 16.55L30.65 14.32H33.4H33.39ZM30.64 13.28L32.01 11.05L33.38 13.28H30.63H30.64ZM33.39 20.78H30.64L32.01 18.55L33.38 20.78H33.39ZM32.63 17.55L33.8 15.65V19.46L32.63 17.56V17.55ZM32.63 10.05L33.8 8.15001V11.96L32.63 10.06V10.05ZM33.39 6.82001L32.02 9.05001L30.65 6.82001H33.4H33.39ZM30.23 8.14001L31.4 10.04L30.23 11.94V8.13001V8.14001ZM30.23 15.64L31.4 17.54L30.23 19.44V15.63V15.64ZM5.69997 14.32L4.32997 16.55L2.95997 14.32H5.70997H5.69997ZM2.94997 13.28L4.31997 11.05L5.68997 13.28H2.93997H2.94997ZM5.69997 20.78H2.94997L4.31997 18.55L5.68997 20.78H5.69997ZM4.93997 17.55L6.10997 15.65V19.46L4.93997 17.56V17.55ZM4.93997 10.05L6.10997 8.15001V11.96L4.93997 10.06V10.05ZM5.69997 6.82001L4.32997 9.05001L2.95997 6.82001H5.70997H5.69997ZM2.53997 8.14001L3.70997 10.04L2.53997 11.94V8.13001V8.14001ZM2.53997 15.64L3.70997 17.54L2.53997 19.44V15.63V15.64ZM7.25997 28.21V30.51V34.6H1.37997V21.8H7.25997V28.2V28.21ZM22.26 34.61H14.07V33.35H22.26V34.61ZM28.03 34.61H23.31V32.82C23.31 32.53 23.08 32.3 22.79 32.3H13.56C13.27 32.3 13.04 32.53 13.04 32.82V34.61H8.31997V31.04H28.04V34.61H28.03ZM28.03 29.99H8.30997V28.73H28.03V29.99ZM17.7 27.68L18.17 27.21L18.64 27.68H17.7ZM28.55 20.76C28.26 20.76 28.03 20.99 28.03 21.28V27.68H20.12L18.7 26.26V20.35L19.7 19.35C19.9 19.15 19.9 18.82 19.7 18.61C19.5 18.4 19.17 18.41 18.96 18.61L17.81 19.76L17.23 20.34C17.03 20.54 17.03 20.87 17.23 21.08C17.33 21.18 17.47 21.23 17.6 21.23C17.62 21.23 17.64 21.23 17.65 21.23V26.26L16.23 27.68H8.31997V21.28C8.31997 20.99 8.08997 20.76 7.79997 20.76H7.16997V6.81001H10.06V8.07001H8.94997C8.80997 8.07001 8.67997 8.13001 8.57997 8.22001C8.47997 8.32001 8.42997 8.45001 8.42997 8.59001V10.22C8.42997 10.36 8.48997 10.49 8.57997 10.59L10.66 12.67L10.62 12.71C10.42 12.91 10.42 13.24 10.62 13.45C10.72 13.55 10.86 13.6 10.99 13.6C11.12 13.6 11.26 13.55 11.36 13.45L11.77 13.04L13.4 11.41L13.81 11C14.01 10.8 14.01 10.47 13.81 10.26C13.61 10.06 13.28 10.06 13.07 10.26L13.03 10.3L11.1 8.37001V6.80001H25.25V8.37001L23.32 10.3L23.28 10.26C23.08 10.06 22.75 10.06 22.54 10.26C22.33 10.46 22.34 10.79 22.54 11L24.99 13.45C25.09 13.55 25.23 13.6 25.36 13.6C25.49 13.6 25.63 13.55 25.73 13.45C25.93 13.25 25.93 12.92 25.73 12.71L25.69 12.67L27.77 10.59C27.87 10.49 27.92 10.36 27.92 10.22V8.59001C27.92 8.45001 27.87 8.32001 27.77 8.22001C27.67 8.12001 27.54 8.07001 27.4 8.07001H26.29V6.81001H29.18V13.79V20.77H28.55V20.76ZM10.35 9.12001L12.28 11.05L11.39 11.94L9.45997 10.01V9.12001H10.35ZM25.98 9.12001H26.87V10.01L24.94 11.94L24.05 11.05L25.98 9.12001ZM34.95 21.81V34.61H29.07V21.81H29.7H34.31H34.94H34.95Z" fill="url(#paint0_linear_105_1797)"/>
<path d="M32.01 22.5C30.61 22.5 29.47 23.64 29.47 25.04C29.47 26.44 30.61 27.58 32.01 27.58C33.41 27.58 34.55 26.44 34.55 25.04C34.55 23.64 33.41 22.5 32.01 22.5ZM32.01 26.54C31.18 26.54 30.51 25.87 30.51 25.04C30.51 24.21 31.18 23.54 32.01 23.54C32.84 23.54 33.51 24.21 33.51 25.04C33.51 25.87 32.84 26.54 32.01 26.54Z" fill="url(#paint1_linear_105_1797)"/>
<path d="M32.01 25.58C32.3082 25.58 32.55 25.3382 32.55 25.04C32.55 24.7418 32.3082 24.5 32.01 24.5C31.7117 24.5 31.47 24.7418 31.47 25.04C31.47 25.3382 31.7117 25.58 32.01 25.58Z" fill="url(#paint2_linear_105_1797)"/>
<path d="M32.01 28.8401C30.61 28.8401 29.47 29.9801 29.47 31.3801C29.47 32.7801 30.61 33.9201 32.01 33.9201C33.41 33.9201 34.55 32.7801 34.55 31.3801C34.55 29.9801 33.41 28.8401 32.01 28.8401ZM32.01 32.8801C31.18 32.8801 30.51 32.2101 30.51 31.3801C30.51 30.5501 31.18 29.8801 32.01 29.8801C32.84 29.8801 33.51 30.5501 33.51 31.3801C33.51 32.2101 32.84 32.8801 32.01 32.8801Z" fill="url(#paint3_linear_105_1797)"/>
<path d="M32.01 31.9201C32.3082 31.9201 32.55 31.6783 32.55 31.3801C32.55 31.0819 32.3082 30.8401 32.01 30.8401C31.7117 30.8401 31.47 31.0819 31.47 31.3801C31.47 31.6783 31.7117 31.9201 32.01 31.9201Z" fill="url(#paint4_linear_105_1797)"/>
<path d="M4.31997 22.5C2.91997 22.5 1.77997 23.64 1.77997 25.04C1.77997 26.44 2.91997 27.58 4.31997 27.58C5.71997 27.58 6.85997 26.44 6.85997 25.04C6.85997 23.64 5.71997 22.5 4.31997 22.5ZM4.31997 26.54C3.48997 26.54 2.81997 25.87 2.81997 25.04C2.81997 24.21 3.48997 23.54 4.31997 23.54C5.14997 23.54 5.81997 24.21 5.81997 25.04C5.81997 25.87 5.14997 26.54 4.31997 26.54Z" fill="url(#paint5_linear_105_1797)"/>
<path d="M4.31997 25.58C4.6182 25.58 4.85997 25.3382 4.85997 25.04C4.85997 24.7418 4.6182 24.5 4.31997 24.5C4.02173 24.5 3.77997 24.7418 3.77997 25.04C3.77997 25.3382 4.02173 25.58 4.31997 25.58Z" fill="url(#paint6_linear_105_1797)"/>
<path d="M4.31997 28.8401C2.91997 28.8401 1.77997 29.9801 1.77997 31.3801C1.77997 32.7801 2.91997 33.9201 4.31997 33.9201C5.71997 33.9201 6.85997 32.7801 6.85997 31.3801C6.85997 29.9801 5.71997 28.8401 4.31997 28.8401ZM4.31997 32.8801C3.48997 32.8801 2.81997 32.2101 2.81997 31.3801C2.81997 30.5501 3.48997 29.8801 4.31997 29.8801C5.14997 29.8801 5.81997 30.5501 5.81997 31.3801C5.81997 32.2101 5.14997 32.8801 4.31997 32.8801Z" fill="url(#paint7_linear_105_1797)"/>
<path d="M4.31997 31.9201C4.6182 31.9201 4.85997 31.6783 4.85997 31.3801C4.85997 31.0819 4.6182 30.8401 4.31997 30.8401C4.02173 30.8401 3.77997 31.0819 3.77997 31.3801C3.77997 31.6783 4.02173 31.9201 4.31997 31.9201Z" fill="url(#paint8_linear_105_1797)"/>
</g>
<defs>
<linearGradient id="paint0_linear_105_1797" x1="18.165" y1="0.0100098" x2="18.165" y2="35.65" gradientUnits="userSpaceOnUse">
<stop stop-color="#05BAB5"/>
<stop offset="1" stop-color="#0563BA"/>
</linearGradient>
<linearGradient id="paint1_linear_105_1797" x1="32.01" y1="22.5" x2="32.01" y2="27.58" gradientUnits="userSpaceOnUse">
<stop stop-color="#05BAB5"/>
<stop offset="1" stop-color="#0563BA"/>
</linearGradient>
<linearGradient id="paint2_linear_105_1797" x1="32.01" y1="24.5" x2="32.01" y2="25.58" gradientUnits="userSpaceOnUse">
<stop stop-color="#05BAB5"/>
<stop offset="1" stop-color="#0563BA"/>
</linearGradient>
<linearGradient id="paint3_linear_105_1797" x1="32.01" y1="28.8401" x2="32.01" y2="33.9201" gradientUnits="userSpaceOnUse">
<stop stop-color="#05BAB5"/>
<stop offset="1" stop-color="#0563BA"/>
</linearGradient>
<linearGradient id="paint4_linear_105_1797" x1="32.01" y1="30.8401" x2="32.01" y2="31.9201" gradientUnits="userSpaceOnUse">
<stop stop-color="#05BAB5"/>
<stop offset="1" stop-color="#0563BA"/>
</linearGradient>
<linearGradient id="paint5_linear_105_1797" x1="4.31997" y1="22.5" x2="4.31997" y2="27.58" gradientUnits="userSpaceOnUse">
<stop stop-color="#05BAB5"/>
<stop offset="1" stop-color="#0563BA"/>
</linearGradient>
<linearGradient id="paint6_linear_105_1797" x1="4.31997" y1="24.5" x2="4.31997" y2="25.58" gradientUnits="userSpaceOnUse">
<stop stop-color="#05BAB5"/>
<stop offset="1" stop-color="#0563BA"/>
</linearGradient>
<linearGradient id="paint7_linear_105_1797" x1="4.31997" y1="28.8401" x2="4.31997" y2="33.9201" gradientUnits="userSpaceOnUse">
<stop stop-color="#05BAB5"/>
<stop offset="1" stop-color="#0563BA"/>
</linearGradient>
<linearGradient id="paint8_linear_105_1797" x1="4.31997" y1="30.8401" x2="4.31997" y2="31.9201" gradientUnits="userSpaceOnUse">
<stop stop-color="#05BAB5"/>
<stop offset="1" stop-color="#0563BA"/>
</linearGradient>
<clipPath id="clip0_105_1797">
<rect width="35.66" height="35.66" fill="white" transform="translate(0.339966)"/>
</clipPath>
</defs>
</svg>
