<svg width="40" height="38" viewBox="0 0 40 38" fill="none" xmlns="http://www.w3.org/2000/svg">
<g clip-path="url(#clip0_105_1788)">
<path d="M38.78 7.05H38.04C38.02 5.88 37.06 4.94 35.89 4.94H34.1V2.15C34.1 0.97 33.14 0 31.95 0H8.09C6.9 0 5.94 0.96 5.94 2.15V4.94H4.15C2.98 4.94 2.02 5.88 2 7.05H1.26C0.590003 7.05 0.0500031 7.59 0.0500031 8.26V14.51C0.0500031 15.18 0.590003 15.72 1.26 15.72H3.91C4.58 15.72 5.12 15.18 5.12 14.51V8.26C5.12 7.59 4.58 7.05 3.91 7.05H3.18C3.2 6.53 3.63 6.11 4.15 6.11H5.94V27.86C5.94 28.18 6.2 28.45 6.53 28.45C6.86 28.45 7.12 28.19 7.12 27.86V23.03C7.41 23.18 7.75 23.27 8.1 23.27H31.97C32.32 23.27 32.65 23.18 32.95 23.03V32.49C32.95 33.03 32.51 33.47 31.97 33.47H8.09C7.55 33.47 7.11 33.03 7.11 32.49V30.57C7.11 30.25 6.85 29.98 6.52 29.98C6.19 29.98 5.93 30.24 5.93 30.57V32.49C5.93 33.67 6.89 34.64 8.08 34.64H8.69V36C8.69 36.9 9.43 37.64 10.33 37.64H12.96C13.86 37.64 14.6 36.9 14.6 36V34.64H25.42V36C25.42 36.9 26.16 37.64 27.06 37.64H29.69C30.6 37.64 31.33 36.9 31.33 36V34.64H31.94C33.13 34.64 34.09 33.68 34.09 32.49V6.11H35.88C36.41 6.11 36.83 6.53 36.85 7.05H36.12C35.45 7.05 34.91 7.59 34.91 8.26V14.51C34.91 15.18 35.45 15.72 36.12 15.72H38.77C39.44 15.72 39.98 15.18 39.98 14.51V8.26C39.98 7.59 39.44 7.05 38.77 7.05H38.78ZM3.92 8.22C3.92 8.22 3.96 8.24 3.96 8.26V14.51C3.96 14.51 3.94 14.55 3.92 14.55H1.27C1.27 14.55 1.23 14.53 1.23 14.51V8.26C1.23 8.26 1.25 8.22 1.27 8.22H3.92ZM13.45 36C13.45 36.26 13.24 36.47 12.98 36.47H10.35C10.09 36.47 9.88 36.26 9.88 36V34.64H13.45V36ZM30.18 36C30.18 36.26 29.97 36.47 29.71 36.47H27.08C26.82 36.47 26.61 36.26 26.61 36V34.64H30.18V36ZM32.94 7.01H9.27C8.95 7.01 8.68 7.27 8.68 7.6C8.68 7.93 8.94 8.19 9.27 8.19H32.94V19.29H29.07C28.75 19.29 28.48 19.55 28.48 19.88C28.48 20.21 28.74 20.47 29.07 20.47H32.94V21.13C32.94 21.67 32.5 22.11 31.96 22.11H8.09C7.55 22.11 7.11 21.67 7.11 21.13V20.47H26.33C26.65 20.47 26.92 20.21 26.92 19.88C26.92 19.55 26.66 19.29 26.33 19.29H20.57L26.1 14.67C26.35 14.46 26.38 14.09 26.17 13.85C25.96 13.6 25.59 13.57 25.35 13.78L18.75 19.3H16.23L21.76 14.68C22.01 14.47 22.04 14.1 21.83 13.86C21.62 13.61 21.25 13.58 21.01 13.79L14.41 19.31H7.12V5.13H32.94V7.01ZM32.94 3.96H7.12V2.16C7.12 1.62 7.56 1.18 8.1 1.18H31.97C32.51 1.18 32.95 1.62 32.95 2.16V3.96H32.94ZM38.82 14.52C38.82 14.52 38.8 14.56 38.78 14.56H36.13C36.13 14.56 36.09 14.54 36.09 14.52V8.27C36.09 8.27 36.11 8.23 36.13 8.23H38.78C38.78 8.23 38.82 8.25 38.82 8.27V14.52Z" fill="white"/>
<path d="M14.54 29.43C15.08 29.43 15.52 28.99 15.52 28.45V27.51C15.52 26.24 14.49 25.2 13.21 25.2H9.62C9.08 25.2 8.64 25.64 8.64 26.18V27.12C8.64 28.39 9.67 29.43 10.95 29.43H14.54ZM9.81 27.12V26.3799H13.21C13.83 26.3799 14.34 26.89 14.34 27.51V28.25H10.94C10.32 28.25 9.81 27.74 9.81 27.12Z" fill="white"/>
<path d="M29.11 29.43C30.38 29.43 31.42 28.4 31.42 27.12V26.18C31.42 25.64 30.98 25.2 30.44 25.2H26.85C25.58 25.2 24.54 26.23 24.54 27.51V28.45C24.54 28.99 24.98 29.43 25.52 29.43H29.11ZM25.71 27.52C25.71 26.9 26.22 26.3899 26.84 26.3899H30.24V27.1299C30.24 27.7499 29.73 28.26 29.11 28.26H25.71V27.52Z" fill="white"/>
<path d="M22.62 32.58C23.03 32.58 23.37 32.24 23.37 31.83V30.28C23.37 29.87 23.03 29.53 22.62 29.53H17.45C17.04 29.53 16.7 29.87 16.7 30.28V31.83C16.7 32.24 17.04 32.58 17.45 32.58H22.62ZM17.87 30.7H22.2V31.4H17.87V30.7Z" fill="white"/>
</g>
<defs>
<clipPath id="clip0_105_1788">
<rect width="39.94" height="37.64" fill="white" transform="translate(0.0599976)"/>
</clipPath>
</defs>
</svg>
