<svg width="22" height="23" viewBox="0 0 22 23" fill="none" xmlns="http://www.w3.org/2000/svg">
<path d="M10.9999 15.9446C13.4544 15.9446 15.4443 13.9547 15.4443 11.5001C15.4443 9.04551 13.4544 7.05566 10.9999 7.05566C8.54526 7.05566 6.55542 9.04551 6.55542 11.5001C6.55542 13.9547 8.54526 15.9446 10.9999 15.9446Z" stroke="white" stroke-width="1.5" stroke-linecap="round" stroke-linejoin="round"/>
<path d="M1 15.9444V7.05556C1 3.98731 3.48731 1.5 6.55556 1.5H15.4444C18.5127 1.5 21 3.98731 21 7.05556V15.9444C21 19.0127 18.5127 21.5 15.4444 21.5H6.55556C3.48731 21.5 1 19.0127 1 15.9444Z" stroke="white" stroke-width="1.5"/>
<path d="M17.111 5.39874L17.121 5.3877" stroke="white" stroke-width="1.5" stroke-linecap="round" stroke-linejoin="round"/>
</svg>
