<svg width="130" height="83" viewBox="0 0 130 83" fill="none" xmlns="http://www.w3.org/2000/svg">
<g clip-path="url(#clip0_1_2167)">
<path d="M33.4591 41.2686C33.4249 40.411 33.4043 39.5194 33.4043 38.587C33.4043 37.6546 33.4249 36.7698 33.4591 35.9326H35.8848C35.8642 36.8242 35.8642 37.7226 35.8848 38.6278C35.9054 39.533 35.8917 40.4178 35.8574 41.2686H33.4591ZM35.8574 42.2078C35.8917 44.3518 35.8985 46.5229 35.8848 48.7145C35.8642 50.9061 35.8642 53.0976 35.8848 55.296H33.4317V42.3099C33.4317 42.2419 33.4386 42.2078 33.4591 42.2078H35.8574Z" fill="#233A76"/>
<path d="M49.644 44.5629C50.014 44.1409 50.4114 43.753 50.8294 43.399C51.2543 43.0383 51.7271 42.7388 52.2547 42.4802C52.7823 42.2284 53.3648 42.0378 53.9952 41.9153C54.6256 41.7928 55.3313 41.7588 56.1056 41.8132C56.7909 41.8677 57.4281 42.0174 58.0174 42.2692C58.6067 42.521 59.1343 42.8477 59.614 43.2357C60.0936 43.6236 60.4979 44.0796 60.8542 44.5833C61.2037 45.0869 61.4846 45.611 61.6971 46.1555C61.9437 46.7681 62.1013 47.4351 62.1699 48.1701C62.2384 48.9052 62.2726 49.6743 62.2589 50.4706C62.2521 51.2737 62.2247 52.0972 62.1767 52.9412C62.1356 53.7852 62.1219 54.6291 62.1356 55.4663H59.6071C59.5386 54.248 59.5386 53.0433 59.6208 51.8522C59.7031 50.668 59.6962 49.5245 59.6071 48.4219C59.5523 47.8434 59.4153 47.3125 59.1823 46.8089C58.9562 46.3121 58.6478 45.8765 58.2572 45.5157C57.8735 45.1482 57.4213 44.8624 56.9142 44.6514C56.4071 44.4404 55.8521 44.3383 55.256 44.3383C54.6256 44.3383 54.05 44.454 53.5429 44.6786C53.0359 44.9032 52.5973 45.2095 52.2273 45.5838C51.8573 45.9581 51.5626 46.4073 51.3434 46.9178C51.1241 47.4351 50.987 47.9864 50.9322 48.5785C50.8431 49.6402 50.8431 50.7632 50.9185 51.9271C51.0007 53.0977 51.0007 54.2752 50.9322 55.4595H48.4038C48.3489 54.4998 48.3489 53.5401 48.39 52.5805C48.4312 51.6208 48.4449 50.702 48.4175 49.8308C48.39 48.9596 48.2873 48.1633 48.116 47.4351C47.9378 46.7136 47.6157 46.1147 47.1429 45.6451C46.8072 45.2979 46.3755 44.9917 45.8547 44.7262C45.3271 44.4676 44.731 44.3315 44.0594 44.3315C42.7918 44.3519 41.7845 44.7535 41.0308 45.5498C40.277 46.3461 39.8453 47.333 39.7425 48.524C39.6535 49.5858 39.6535 50.7088 39.7288 51.8863C39.8111 53.0637 39.8111 54.2548 39.7425 55.4595H37.2141C37.2483 54.7448 37.2552 54.0438 37.2415 53.3496C37.2209 52.6622 37.2004 51.9883 37.173 51.335C37.1455 50.6816 37.1318 50.0486 37.1318 49.4361C37.1318 48.8235 37.1592 48.2314 37.2141 47.6529C37.2826 46.8838 37.5156 46.1623 37.8993 45.4817C38.283 44.8011 38.7078 44.2362 39.1669 43.7802C39.6398 43.2901 40.2153 42.8614 40.8937 42.487C41.5721 42.1127 42.319 41.8813 43.1481 41.7928C43.9361 41.7247 44.6556 41.7452 45.2928 41.8609C45.9369 41.9766 46.5194 42.1603 47.047 42.4258C47.5746 42.6912 48.0543 43.0043 48.486 43.365C48.9177 43.7325 49.3082 44.1273 49.6577 44.5425L49.644 44.5629Z" fill="#233A76"/>
<path d="M66.0895 54.0368V61.6528H63.6364V51.4981C63.6364 50.9196 63.6227 50.3547 63.5952 49.7966C63.5678 49.2385 63.5815 48.6804 63.6364 48.1223C63.7049 47.3395 63.9104 46.6249 64.2531 45.9919C64.5957 45.3522 64.9931 44.8077 65.4522 44.3585C65.7674 44.0454 66.1032 43.7527 66.4663 43.4805C66.8295 43.2082 67.2338 42.9836 67.6792 42.7999C68.1246 42.6161 68.6248 42.4868 69.1661 42.4187C69.7074 42.3507 70.3241 42.3371 71.0094 42.3915C71.7837 42.446 72.5031 42.6501 73.1678 43.0177C73.8325 43.3852 74.3944 43.8004 74.8535 44.2768C75.4702 44.903 75.9635 45.6448 76.3267 46.4888C76.6967 47.3327 76.8269 48.3809 76.7241 49.6196C76.6556 50.3887 76.45 51.1101 76.1074 51.7771C75.7648 52.4509 75.3194 53.0499 74.7644 53.5671C74.2093 54.0912 73.5789 54.5132 72.8663 54.8399C72.1537 55.1598 71.4068 55.3503 70.6119 55.4048C69.7143 55.4592 68.9057 55.3503 68.1725 55.0917C67.4462 54.8331 66.7473 54.4792 66.0758 54.0436L66.0895 54.0368ZM66.0895 48.8029C66.0689 49.2248 66.1374 49.6604 66.2882 50.1096C66.4389 50.5656 66.6239 50.9468 66.8569 51.2599C67.1721 51.6955 67.6244 52.0902 68.1999 52.4373C68.7824 52.7844 69.447 52.9614 70.2008 52.9614C70.8655 52.9614 71.489 52.798 72.0714 52.4645C72.6539 52.131 73.1198 51.7431 73.4693 51.2871C73.9969 50.6065 74.271 49.8714 74.2847 49.0887C74.3053 48.306 74.134 47.5914 73.7708 46.9448C73.4076 46.2982 72.9006 45.7741 72.2428 45.359C71.5849 44.9506 70.8518 44.7668 70.0432 44.8213C69.4608 44.8553 68.9331 44.9846 68.4466 45.2024C67.9601 45.4202 67.549 45.7061 67.2064 46.0532C66.8638 46.4003 66.5965 46.8155 66.4047 47.2851C66.2128 47.7547 66.1032 48.2652 66.0895 48.8029Z" fill="#233A76"/>
<path d="M91.3124 55.3981H88.9141C88.8798 55.2075 88.873 54.9829 88.8867 54.7311C88.9073 54.4793 88.8935 54.2547 88.8593 54.0641C88.6126 54.207 88.3728 54.35 88.1329 54.4929C87.8931 54.6426 87.6464 54.7787 87.3792 54.9012C86.9544 55.0918 86.4679 55.2347 85.9197 55.33C85.3647 55.4253 84.7617 55.4457 84.1175 55.3981C83.2884 55.33 82.5484 55.1259 81.8906 54.7855C81.2328 54.4452 80.6503 54.0301 80.1364 53.54C79.6293 53.05 79.1976 52.4851 78.855 51.8385C78.5124 51.1919 78.3 50.4705 78.2109 49.6673C78.1424 49.0412 78.1424 48.4627 78.2246 47.925C78.3069 47.3941 78.4371 46.9041 78.6221 46.4617C78.8071 46.0193 79.0195 45.6109 79.2662 45.2434C79.5128 44.8758 79.7732 44.556 80.0542 44.2769C80.4585 43.8754 80.9313 43.5146 81.4657 43.1879C82.0002 42.868 82.5964 42.6366 83.2473 42.4937C83.5283 42.4257 83.8914 42.378 84.3437 42.3508C84.7891 42.3236 85.2071 42.3304 85.5976 42.3644C86.4062 42.4529 87.1325 42.6707 87.7698 43.0178C88.4139 43.3649 88.9689 43.7869 89.4417 44.2769C89.9145 44.7465 90.3257 45.3114 90.682 45.9648C91.0314 46.6182 91.2507 47.3397 91.3398 48.1224C91.4083 48.7145 91.4289 49.3202 91.3946 49.9396C91.3603 50.5589 91.3398 51.1715 91.3398 51.784C91.3398 52.3966 91.3398 52.9955 91.3535 53.5877C91.3603 54.1798 91.3535 54.7855 91.3124 55.3913V55.3981ZM82.0071 45.8695C81.7946 46.0601 81.5959 46.2915 81.4041 46.5638C81.2122 46.836 81.0546 47.1355 80.9313 47.469C80.8079 47.8025 80.7257 48.1564 80.6777 48.5307C80.6366 48.9051 80.6572 49.2998 80.7463 49.7218C80.8353 50.1438 80.9998 50.5453 81.2328 50.9401C81.4726 51.3348 81.7672 51.682 82.1167 51.9882C82.4662 52.2945 82.8704 52.5327 83.3295 52.7097C83.7886 52.8866 84.2751 52.9683 84.8028 52.9683C85.3852 52.9683 85.9128 52.8526 86.3993 52.6144C86.879 52.3762 87.297 52.0835 87.6533 51.7364C88.0028 51.4029 88.3043 51.0013 88.5509 50.5181C88.7976 50.0417 88.9141 49.4836 88.8935 48.8574C88.8935 48.2789 88.7771 47.748 88.5372 47.2444C88.2974 46.7475 88.0302 46.3528 87.7355 46.0533C87.3861 45.6722 86.9201 45.3455 86.3377 45.0868C85.7552 44.8282 85.1248 44.7397 84.4396 44.8282C83.4186 44.9507 82.6101 45.2978 82.0139 45.8763L82.0071 45.8695Z" fill="#233A76"/>
<path d="M105.517 47.1559C105.113 47.1763 104.681 47.1831 104.229 47.1831C103.777 47.1831 103.338 47.1763 102.941 47.1559C102.838 46.9994 102.742 46.8428 102.667 46.6863C102.584 46.5298 102.495 46.38 102.393 46.2439C102.057 45.8083 101.639 45.4408 101.139 45.1413C100.638 44.8418 100.042 44.6717 99.357 44.6172C99.1789 44.5968 99.0076 44.5968 98.8294 44.6172C97.7399 44.7057 96.8354 45.1073 96.1159 45.8355C95.3964 46.557 94.9922 47.469 94.9031 48.5716C94.8688 49.2318 94.9853 49.8307 95.2594 50.3616C95.5335 50.8925 95.8418 51.3349 96.1981 51.682C96.5339 52.0155 96.9382 52.2945 97.4247 52.5191C97.9043 52.7437 98.4594 52.8662 99.0692 52.8867C99.5626 52.8867 100.022 52.805 100.453 52.6348C100.885 52.4715 101.255 52.2673 101.57 52.0223C101.906 51.7773 102.18 51.4982 102.399 51.1851C102.619 50.872 102.817 50.5249 102.996 50.137C103.4 50.103 103.832 50.0825 104.284 50.0825C104.736 50.0825 105.168 50.103 105.572 50.137C105.394 50.9197 105.14 51.5867 104.805 52.1244C104.469 52.6689 104.051 53.1657 103.537 53.6149C102.941 54.139 102.235 54.5746 101.426 54.9217C100.618 55.2688 99.6174 55.4049 98.4251 55.3164C97.596 55.262 96.8423 55.0578 96.157 54.7039C95.4718 54.3432 94.8757 53.9348 94.3617 53.4584C94.0602 53.1793 93.7793 52.8526 93.5189 52.4783C93.2585 52.104 93.0324 51.682 92.8474 51.2192C92.6624 50.7563 92.5322 50.2527 92.45 49.715C92.3677 49.1773 92.3677 48.592 92.4363 47.959C92.5253 47.1219 92.7378 46.3868 93.0804 45.7471C93.423 45.1073 93.8204 44.5628 94.2795 44.1136C94.7044 43.678 95.1703 43.3105 95.6911 43.011C96.2118 42.7115 96.808 42.4801 97.4932 42.3032C97.7947 42.2351 98.1579 42.1806 98.6033 42.1466C99.0418 42.1126 99.4667 42.1126 99.8709 42.1466C100.625 42.2147 101.31 42.4053 101.927 42.7251C102.543 43.0382 103.078 43.3989 103.537 43.8005C104.03 44.2565 104.441 44.7534 104.777 45.291C105.113 45.8355 105.36 46.4549 105.517 47.1491V47.1559Z" fill="#233A76"/>
<path d="M107.018 36.0007H109.443V42.2283C110.005 42.2828 110.595 42.2964 111.211 42.2828C111.828 42.2624 112.431 42.2624 113.027 42.2828V44.7194H109.471C109.471 45.4884 109.45 46.2439 109.416 46.9858C109.382 47.7277 109.389 48.4219 109.443 49.0685C109.533 50.1166 109.93 50.9946 110.643 51.7024C111.355 52.4103 112.253 52.805 113.342 52.8935C113.925 52.9275 114.459 52.8527 114.953 52.6689C115.446 52.4851 115.878 52.2265 116.255 51.8862C116.631 51.5459 116.94 51.1375 117.18 50.6679C117.419 50.1983 117.577 49.6878 117.666 49.1501C118.07 49.1706 118.488 49.1706 118.92 49.1501C119.352 49.1297 119.749 49.1433 120.119 49.1774C120.064 50.069 119.879 50.8517 119.564 51.5323C119.249 52.2129 118.838 52.8254 118.324 53.3631C117.728 53.9893 116.974 54.4997 116.056 54.8945C115.145 55.2892 114.055 55.4322 112.787 55.3233C111.945 55.2552 111.204 55.0374 110.56 54.6835C109.916 54.3228 109.361 53.9144 108.888 53.438C108.416 52.9616 107.998 52.4103 107.648 51.7773C107.299 51.1375 107.079 50.4025 106.99 49.5653C106.936 49.0412 106.922 48.4899 106.949 47.9182C106.977 47.3465 106.99 46.768 106.99 46.1895V36.1369C106.956 36.0688 106.963 36.0211 107.018 36.0075V36.0007Z" fill="#233A76"/>
<path d="M120.626 46.3866V47.8091H120.167V45.9102C120.167 45.8013 120.167 45.6992 120.16 45.5903C120.16 45.4882 120.16 45.3793 120.167 45.2773C120.181 45.1275 120.222 44.9982 120.284 44.8757C120.345 44.76 120.421 44.6579 120.51 44.5694C120.572 44.5082 120.633 44.4537 120.702 44.4061C120.77 44.3584 120.846 44.3108 120.928 44.2768C121.01 44.2427 121.106 44.2155 121.209 44.2087C121.312 44.1951 121.428 44.1951 121.551 44.2087C121.695 44.2155 121.832 44.2563 121.956 44.3244C122.079 44.3925 122.189 44.4741 122.271 44.5558C122.387 44.6715 122.476 44.8076 122.545 44.971C122.613 45.1275 122.641 45.3249 122.62 45.5563C122.607 45.6992 122.566 45.8354 122.504 45.9579C122.442 46.0804 122.353 46.1961 122.25 46.2914C122.148 46.3866 122.031 46.4683 121.894 46.5296C121.764 46.5908 121.62 46.6249 121.476 46.6317C121.312 46.6385 121.154 46.6249 121.024 46.5704C120.887 46.5228 120.757 46.4547 120.633 46.373L120.626 46.3866ZM120.626 45.4066C120.626 45.4814 120.633 45.5631 120.661 45.6516C120.688 45.7333 120.722 45.8081 120.763 45.8694C120.825 45.9511 120.907 46.0259 121.017 46.0872C121.127 46.1552 121.25 46.1825 121.394 46.1825C121.517 46.1825 121.634 46.1484 121.743 46.0872C121.853 46.0259 121.942 45.9511 122.004 45.8694C122.1 45.7401 122.154 45.6039 122.154 45.461C122.154 45.3113 122.127 45.182 122.058 45.0595C121.99 44.9369 121.894 44.8417 121.771 44.7668C121.647 44.6919 121.51 44.6579 121.36 44.6647C121.25 44.6647 121.154 44.6919 121.065 44.7328C120.976 44.7736 120.9 44.8281 120.832 44.8893C120.77 44.9574 120.715 45.0322 120.681 45.1207C120.647 45.2092 120.626 45.3045 120.619 45.4066H120.626Z" fill="#09BAB5"/>
<path d="M122.86 43.0517H123.306V44.2428C123.306 44.447 123.306 44.6512 123.299 44.8553C123.299 45.0595 123.299 45.2501 123.306 45.4271C123.319 45.6585 123.402 45.8354 123.539 45.9647C123.683 46.0941 123.868 46.1689 124.101 46.1893V46.6249C123.916 46.6317 123.751 46.6113 123.607 46.5569C123.47 46.5024 123.347 46.4276 123.251 46.3323C123.155 46.2506 123.066 46.1417 122.99 46.0124C122.915 45.8831 122.867 45.7401 122.853 45.5836C122.847 45.4815 122.84 45.3794 122.847 45.2705C122.847 45.1616 122.853 45.0595 122.853 44.9506V43.0653V43.0449L122.86 43.0517Z" fill="#09BAB5"/>
<path d="M124.374 44.168H124.827C124.834 44.3858 124.834 44.5967 124.827 44.8009C124.813 45.0051 124.813 45.2161 124.827 45.4203C124.84 45.6245 124.923 45.7946 125.053 45.9307C125.19 46.0669 125.361 46.1417 125.567 46.1554H125.622C125.717 46.1554 125.813 46.1349 125.896 46.0941C125.978 46.0601 126.06 46.0056 126.122 45.9444C126.19 45.8831 126.245 45.8082 126.286 45.7198C126.327 45.6313 126.355 45.536 126.362 45.4339C126.368 45.3318 126.375 45.2229 126.368 45.1208C126.368 45.0119 126.362 44.9098 126.362 44.8077V44.1748H126.821V46.6182H126.362C126.362 46.5773 126.362 46.5297 126.362 46.4888C126.362 46.448 126.362 46.4072 126.362 46.3663C126.307 46.4004 126.245 46.4344 126.183 46.4684C126.122 46.5025 126.053 46.5297 125.978 46.5569C125.902 46.5841 125.827 46.5977 125.738 46.6114C125.656 46.625 125.56 46.625 125.45 46.6114C125.299 46.5977 125.162 46.5569 125.039 46.4888C124.916 46.4276 124.813 46.3459 124.717 46.2574C124.628 46.169 124.553 46.0669 124.484 45.9444C124.416 45.8218 124.374 45.6857 124.361 45.5428C124.361 45.4884 124.354 45.4271 124.361 45.3726C124.361 45.3114 124.361 45.2569 124.361 45.2025V44.1884V44.1748L124.374 44.168Z" fill="#09BAB5"/>
<path d="M129.5 45.1617H129.027C128.979 45.012 128.897 44.8894 128.781 44.7806C128.664 44.6717 128.513 44.6104 128.335 44.5968C128.301 44.5968 128.267 44.5968 128.239 44.5968C128.102 44.6036 127.992 44.6376 127.903 44.6989C127.814 44.7533 127.732 44.8282 127.67 44.9099C127.705 44.9371 127.739 44.9575 127.78 44.9643C127.821 44.9779 127.862 44.9915 127.897 45.0052C128.164 45.1004 128.431 45.2025 128.705 45.3046C128.979 45.4067 129.246 45.5088 129.507 45.6109C129.493 45.7538 129.452 45.8763 129.39 45.992C129.329 46.1077 129.246 46.2098 129.157 46.2915C129.096 46.346 129.034 46.4004 128.966 46.4412C128.897 46.4889 128.822 46.5229 128.739 46.5569C128.657 46.591 128.568 46.6114 128.465 46.625C128.363 46.6386 128.26 46.6386 128.143 46.625C127.992 46.6114 127.862 46.5706 127.739 46.5093C127.622 46.448 127.513 46.3732 127.424 46.2915C127.239 46.1214 127.122 45.8899 127.067 45.6041C127.143 45.6041 127.225 45.5973 127.3 45.6041C127.383 45.6041 127.465 45.6041 127.54 45.6041C127.581 45.747 127.664 45.8763 127.787 45.9852C127.91 46.0941 128.061 46.1554 128.232 46.1758C128.328 46.1758 128.41 46.1758 128.493 46.1486C128.568 46.1214 128.637 46.0941 128.698 46.0533C128.733 46.0329 128.767 46.0125 128.801 45.9852C128.835 45.958 128.863 45.924 128.876 45.89C128.568 45.7742 128.26 45.6585 127.958 45.5496C127.65 45.4407 127.348 45.325 127.04 45.2093C127.115 44.8282 127.294 44.5491 127.568 44.3654C127.677 44.2905 127.801 44.2293 127.938 44.1816C128.075 44.134 128.239 44.1204 128.431 44.1408C128.582 44.1544 128.712 44.1952 128.835 44.2565C128.952 44.3177 129.061 44.3926 129.151 44.4743C129.342 44.6512 129.459 44.8826 129.507 45.1617H129.5Z" fill="#09BAB5"/>
<path d="M69.0361 8.49027C67.46 8.38817 66.0896 9.57244 65.9868 11.1378L64.5821 31.9169C64.4793 33.4823 65.6716 34.8435 67.2476 34.9456C68.8236 35.0477 70.1941 33.8634 70.2969 32.298L71.7016 11.519C71.8044 9.95358 70.6121 8.59236 69.0361 8.49027Z" fill="#643594"/>
<path d="M51.3161 2.07897C50.6103 0.670101 48.8904 0.0983879 47.472 0.806223C46.0536 1.50725 45.478 3.21559 46.1906 4.62445L54.5092 21.1905C55.215 22.5994 56.9349 23.1711 58.3533 22.4633C59.7717 21.7622 60.3473 20.0539 59.6347 18.645L51.3161 2.07897Z" fill="#7D4783"/>
<path d="M43.5389 12.6421L30.0537 3.53553C28.7449 2.65073 26.9633 2.99104 26.0726 4.29101C25.1818 5.59097 25.5244 7.36056 26.8332 8.24536L40.3183 17.3519C41.6271 18.2367 43.4087 17.8964 44.2995 16.5965C45.1903 15.2965 44.8477 13.5269 43.5389 12.6421Z" fill="#965771"/>
<path d="M28.5668 19.0806C28.6696 17.5152 27.4773 16.1539 25.9013 16.0519L11.957 15.1194C10.381 15.0173 9.01057 16.2016 8.90779 17.767C8.805 19.3324 9.99729 20.6936 11.5733 20.7957L25.5176 21.7281C27.0936 21.8302 28.464 20.646 28.5668 19.0806Z" fill="#462A72"/>
<path d="M4.64554 38.6753L15.0678 33.5095C16.4862 32.8085 17.0618 31.1001 16.3491 29.6913C15.6434 28.2824 13.9235 27.7107 12.505 28.4185L2.08281 33.5844C0.664401 34.2854 0.0888141 35.9937 0.801446 37.4026C1.50722 38.8115 3.22713 39.3832 4.64554 38.6753Z" fill="#233A76"/>
<path d="M11.6142 44.9711C10.3055 44.0863 8.52389 44.4266 7.6331 45.7266L2.398 53.3834C1.50721 54.6834 1.84982 56.453 3.15859 57.3378C4.46737 58.2226 6.24895 57.8823 7.13974 56.5823L12.3748 48.9254C13.2656 47.6255 12.923 45.8559 11.6142 44.9711Z" fill="#1A619A"/>
<path d="M15.8422 61.19C14.2662 61.0879 12.8957 62.2721 12.7929 63.8375L12.327 70.7662C12.2242 72.3316 13.4165 73.6928 14.9925 73.7949C16.5685 73.897 17.939 72.7127 18.0417 71.1473L18.5077 64.2187C18.6105 62.6533 17.4182 61.2921 15.8422 61.19Z" fill="#0F7295"/>
<path d="M32.1711 74.244C31.4653 72.8351 29.7454 72.2634 28.327 72.9713C26.9085 73.6723 26.333 75.3806 27.0456 76.7895L29.1287 80.9276C29.8344 82.3365 31.5543 82.9082 32.9728 82.2003C34.3912 81.4993 34.9668 79.791 34.2541 78.3821L32.1711 74.244Z" fill="#0E90A2"/>
<path d="M50.9391 77.0618L49.0137 75.7618C47.7049 74.8771 45.9233 75.2174 45.0325 76.5173C44.1417 77.8173 44.4843 79.5869 45.7931 80.4717L47.7186 81.7716C49.0274 82.6564 50.8089 82.3161 51.6997 81.0162C52.5905 79.7162 52.2479 77.9466 50.9391 77.0618Z" fill="#0DA1AA"/>
<path d="M65.0137 67.9485C63.4377 67.8464 62.0672 69.0307 61.9644 70.5961C61.8616 72.1615 63.0539 73.5227 64.6299 73.6248C66.206 73.7269 67.5764 72.5426 67.6792 70.9772C67.782 69.4118 66.5897 68.0506 65.0137 67.9485Z" fill="#09BAB5"/>
<path d="M93.704 61.2243C93.5738 61.3876 93.4367 61.5169 93.286 61.6054C93.1352 61.6939 92.9571 61.7416 92.7378 61.7416C92.6008 61.7416 92.4706 61.7211 92.3472 61.6803C92.2239 61.6395 92.1142 61.5782 92.0183 61.5033C91.9224 61.4217 91.8539 61.3264 91.7922 61.2175C91.7374 61.1018 91.71 60.9725 91.71 60.8295C91.71 60.7206 91.7305 60.6117 91.7648 60.5164C91.8059 60.4212 91.8539 60.3395 91.9224 60.2578C91.9909 60.183 92.0663 60.1149 92.1485 60.0536C92.2376 59.9924 92.3267 59.9379 92.4226 59.8971C92.313 59.7882 92.2239 59.6793 92.1485 59.5636C92.0731 59.4479 92.032 59.3118 92.032 59.1552C92.032 59.0395 92.0526 58.9306 92.1005 58.8421C92.1485 58.7469 92.2102 58.672 92.2855 58.6107C92.3609 58.5495 92.45 58.5018 92.5528 58.4678C92.6556 58.4338 92.7583 58.4202 92.8748 58.4202C92.9913 58.4202 93.0873 58.4338 93.1832 58.4678C93.2791 58.495 93.3682 58.5427 93.4436 58.6039C93.5189 58.6652 93.5738 58.7401 93.6217 58.8285C93.6628 58.917 93.6834 59.0191 93.6834 59.1416C93.6834 59.2437 93.6628 59.3322 93.6217 59.4139C93.5806 59.4955 93.5258 59.5704 93.4641 59.6385C93.3956 59.7065 93.3271 59.761 93.2449 59.8154C93.1626 59.8699 93.0804 59.9175 92.9982 59.9583L93.6834 60.6798L94.1151 59.9583H94.5468L93.9301 60.9452L94.6701 61.6939H94.1494L93.7108 61.2311L93.704 61.2243ZM92.6624 60.1285C92.5939 60.1625 92.5254 60.2034 92.4569 60.251C92.3883 60.2918 92.3267 60.3463 92.2718 60.4007C92.217 60.4552 92.1759 60.5164 92.1417 60.5845C92.1074 60.6526 92.0937 60.7342 92.0937 60.8159C92.0937 60.8976 92.1074 60.9861 92.1417 61.0541C92.1759 61.129 92.2239 61.1903 92.2787 61.2447C92.3335 61.2992 92.402 61.34 92.4774 61.374C92.5528 61.4012 92.635 61.4217 92.7172 61.4217C92.7995 61.4217 92.8748 61.408 92.9434 61.3876C93.0119 61.3604 93.0804 61.3332 93.1352 61.2923C93.1969 61.2515 93.2517 61.2039 93.3065 61.1494C93.3613 61.095 93.4093 61.0405 93.4641 60.9793L92.6556 60.1353L92.6624 60.1285ZM92.7584 59.7133C92.82 59.6793 92.8817 59.6453 92.9434 59.6112C93.005 59.5772 93.0667 59.5364 93.1147 59.4887C93.1695 59.4411 93.2106 59.3934 93.2449 59.3322C93.2791 59.2709 93.2928 59.2029 93.2928 59.1212C93.2928 59.0055 93.2517 58.9102 93.1695 58.8421C93.0873 58.7741 92.9913 58.7401 92.8817 58.7401C92.7515 58.7401 92.6419 58.7809 92.5528 58.8558C92.4637 58.9306 92.4157 59.0395 92.4157 59.1756C92.4157 59.2641 92.4363 59.339 92.4843 59.4071C92.5322 59.4751 92.5802 59.5364 92.635 59.5976L92.7515 59.7133H92.7584Z" fill="#09BAB5"/>
<path d="M103.304 61.6734H102.886C102.886 61.6734 102.879 61.5985 102.886 61.5577C102.886 61.5169 102.886 61.476 102.886 61.442C102.845 61.4692 102.804 61.4897 102.762 61.5169C102.721 61.5441 102.68 61.5645 102.632 61.5849C102.557 61.619 102.475 61.6462 102.379 61.6598C102.283 61.6734 102.18 61.6802 102.063 61.6734C101.92 61.6598 101.789 61.6258 101.68 61.5645C101.563 61.5033 101.467 61.4352 101.378 61.3467C101.289 61.2582 101.214 61.163 101.159 61.0541C101.097 60.9452 101.063 60.8158 101.049 60.6797C101.036 60.5708 101.036 60.4687 101.049 60.3803C101.063 60.285 101.084 60.2033 101.118 60.1284C101.152 60.0536 101.186 59.9787 101.227 59.9174C101.269 59.8562 101.317 59.8017 101.365 59.7473C101.433 59.6792 101.515 59.618 101.611 59.5567C101.707 59.5023 101.803 59.4614 101.92 59.4342C101.968 59.4206 102.029 59.4138 102.111 59.407C102.187 59.407 102.262 59.407 102.331 59.407C102.468 59.4206 102.598 59.4614 102.708 59.5227C102.817 59.5839 102.913 59.6588 102.995 59.7405C103.078 59.8222 103.146 59.9174 103.208 60.0331C103.269 60.1488 103.304 60.2714 103.324 60.4075C103.338 60.5096 103.338 60.6117 103.331 60.7206C103.331 60.8295 103.324 60.9315 103.324 61.0404C103.324 61.1493 103.324 61.2514 103.324 61.3535C103.324 61.4556 103.324 61.5577 103.324 61.6666L103.304 61.6734ZM101.693 60.0263C101.659 60.0604 101.625 60.1012 101.591 60.1488C101.556 60.1965 101.529 60.2509 101.508 60.3054C101.488 60.3598 101.474 60.4211 101.467 60.4892C101.46 60.5572 101.467 60.6253 101.481 60.6933C101.495 60.7682 101.522 60.8363 101.563 60.9043C101.604 60.9724 101.652 61.0336 101.714 61.0881C101.776 61.1425 101.844 61.1834 101.926 61.2106C102.009 61.2378 102.091 61.2582 102.18 61.2582C102.283 61.2582 102.372 61.2378 102.454 61.197C102.536 61.1562 102.612 61.1085 102.673 61.0473C102.735 60.9928 102.783 60.9179 102.831 60.8363C102.872 60.7546 102.893 60.6593 102.893 60.5504C102.893 60.4483 102.872 60.3598 102.831 60.2714C102.79 60.1829 102.742 60.1148 102.694 60.0672C102.632 59.9991 102.55 59.9447 102.454 59.897C102.351 59.8494 102.242 59.8358 102.125 59.8494C101.947 59.8698 101.81 59.9311 101.707 60.0331L101.693 60.0263Z" fill="#09BAB5"/>
<path d="M105.935 60.3258C105.867 60.3258 105.791 60.3326 105.716 60.3258C105.64 60.3258 105.565 60.3258 105.497 60.3258C105.442 60.176 105.359 60.0603 105.257 59.965C105.154 59.8698 105.01 59.8221 104.832 59.8085C104.743 59.8085 104.654 59.8153 104.571 59.8493C104.489 59.8834 104.414 59.9242 104.352 59.9718C104.277 60.0331 104.222 60.108 104.181 60.1964C104.14 60.2781 104.112 60.3802 104.092 60.5027C104.085 60.5912 104.078 60.6865 104.092 60.7886C104.092 60.8839 104.092 60.986 104.092 61.0812V61.6598C104.023 61.6598 103.955 61.6666 103.879 61.6598C103.804 61.6598 103.736 61.6598 103.667 61.6598V60.6933C103.667 60.6388 103.667 60.5844 103.667 60.5299C103.667 60.4755 103.667 60.4211 103.667 60.3734C103.667 60.2917 103.694 60.2169 103.722 60.142C103.749 60.0671 103.783 60.0059 103.818 59.9446C103.886 59.8221 103.975 59.72 104.085 59.6315C104.195 59.5431 104.318 59.475 104.469 59.4274C104.524 59.4069 104.599 59.3933 104.681 59.3865C104.763 59.3797 104.852 59.3729 104.942 59.3865C105.079 59.4001 105.202 59.441 105.318 59.4954C105.435 59.5499 105.531 59.6179 105.606 59.6996C105.688 59.7813 105.764 59.8766 105.819 59.9787C105.873 60.0807 105.915 60.1965 105.942 60.3326L105.935 60.3258Z" fill="#09BAB5"/>
<path d="M106.367 57.5081H106.874C106.874 57.6238 106.874 57.7463 106.874 57.8892C106.874 58.0253 106.874 58.1751 106.874 58.3248C106.874 58.4745 106.874 58.6311 106.874 58.7808V60.2577L107.888 59.264H108.594C108.374 59.4818 108.176 59.6792 108.004 59.8494C107.929 59.9242 107.861 59.9923 107.785 60.0671C107.717 60.1352 107.648 60.2033 107.593 60.2577C107.539 60.3122 107.497 60.3598 107.463 60.3938C107.429 60.4279 107.415 60.4483 107.415 60.4483C107.415 60.4483 107.436 60.4687 107.47 60.5095C107.504 60.5436 107.552 60.5912 107.607 60.6525C107.662 60.7137 107.73 60.775 107.799 60.8499C107.867 60.9247 107.943 60.9996 108.018 61.0745L108.621 61.6802H107.936C107.806 61.5577 107.689 61.442 107.573 61.3263C107.477 61.231 107.381 61.1357 107.278 61.0404C107.182 60.9451 107.1 60.8771 107.045 60.8226C107.011 60.8499 106.983 60.8771 106.949 60.9043C106.922 60.9383 106.888 60.9656 106.853 60.9996V61.6734H106.333C106.333 60.9792 106.333 60.2781 106.333 59.5839C106.333 58.8897 106.333 58.1955 106.339 57.5081H106.367Z" fill="#09BAB5"/>
<path d="M111.266 60.6662C110.965 60.6662 110.663 60.673 110.362 60.6662C110.06 60.6662 109.759 60.6662 109.457 60.6662C109.485 60.8159 109.56 60.9452 109.676 61.0473C109.793 61.1494 109.937 61.2107 110.108 61.2243C110.197 61.2243 110.293 61.2311 110.389 61.2243C110.485 61.2243 110.581 61.2243 110.684 61.2243H111.259C111.259 61.2924 111.266 61.3604 111.259 61.4353C111.259 61.5101 111.259 61.5782 111.259 61.6531H110.629C110.519 61.6531 110.416 61.6531 110.314 61.6599C110.211 61.6599 110.108 61.6599 110.005 61.6531C109.868 61.6395 109.745 61.5986 109.622 61.5374C109.505 61.4761 109.402 61.4013 109.32 61.3196C109.231 61.2311 109.156 61.1358 109.101 61.0201C109.039 60.9112 109.005 60.7819 108.991 60.639C108.978 60.5369 108.978 60.4348 108.991 60.3395C109.005 60.2442 109.025 60.1625 109.06 60.0877C109.094 60.0128 109.128 59.9379 109.176 59.8767C109.217 59.8086 109.265 59.7542 109.32 59.6997C109.382 59.6385 109.45 59.584 109.526 59.5364C109.601 59.4887 109.683 59.4479 109.786 59.4139C109.848 59.3866 109.923 59.373 110.012 59.3594C110.094 59.3458 110.19 59.3526 110.286 59.3594C110.396 59.3662 110.492 59.3934 110.588 59.4343C110.684 59.4751 110.773 59.5228 110.848 59.584C110.924 59.6453 110.992 59.7133 111.054 59.795C111.115 59.8767 111.163 59.9584 111.205 60.04C111.218 60.0673 111.225 60.0945 111.239 60.1217C111.252 60.1489 111.259 60.1762 111.266 60.2034C111.28 60.2782 111.28 60.3531 111.266 60.428C111.252 60.5028 111.252 60.5777 111.266 60.6526V60.6662ZM110.184 59.8018C110.184 59.8018 110.136 59.8018 110.108 59.8018C109.951 59.8154 109.827 59.8631 109.724 59.9447C109.622 60.0264 109.546 60.1217 109.498 60.2442C109.711 60.2442 109.93 60.2442 110.149 60.2442C110.369 60.2442 110.595 60.2442 110.807 60.2442C110.759 60.1217 110.684 60.0264 110.574 59.9447C110.464 59.8631 110.334 59.8154 110.184 59.8086V59.8018Z" fill="#09BAB5"/>
<path d="M111.725 58.3247H112.143V59.4001C112.239 59.4069 112.342 59.4137 112.452 59.4069C112.561 59.4069 112.664 59.4069 112.767 59.4069V59.8289H112.15C112.15 59.965 112.15 60.0943 112.143 60.2236C112.143 60.3529 112.143 60.4686 112.143 60.5843C112.157 60.7681 112.225 60.9178 112.349 61.0403C112.472 61.1629 112.63 61.2309 112.815 61.2445C112.917 61.2445 113.007 61.2377 113.096 61.2037C113.178 61.1697 113.253 61.1288 113.322 61.0676C113.39 61.0063 113.438 60.9383 113.479 60.8566C113.52 60.7749 113.548 60.6864 113.562 60.5911C113.63 60.5911 113.705 60.5911 113.781 60.5911C113.856 60.5911 113.925 60.5911 113.986 60.5911C113.98 60.7477 113.945 60.8838 113.89 60.9995C113.836 61.1152 113.767 61.2241 113.678 61.3194C113.575 61.4283 113.445 61.5168 113.288 61.5848C113.13 61.6529 112.938 61.6801 112.726 61.6597C112.582 61.6461 112.452 61.6121 112.342 61.5508C112.232 61.4895 112.136 61.4147 112.054 61.333C111.972 61.2513 111.903 61.156 111.842 61.0472C111.78 60.9383 111.746 60.8089 111.725 60.666C111.718 60.5775 111.711 60.4822 111.725 60.3802C111.725 60.2781 111.725 60.1828 111.725 60.0807V58.3451V58.3247Z" fill="#09BAB5"/>
<path d="M114.404 59.2301C114.404 59.0804 114.397 58.9306 114.397 58.7673C114.397 58.6039 114.397 58.4542 114.404 58.3113H114.822C114.822 58.4678 114.822 58.6176 114.822 58.7741C114.822 58.9306 114.822 59.0804 114.822 59.2301H114.404ZM114.822 59.3934C114.822 59.7678 114.829 60.1421 114.822 60.5165C114.822 60.8976 114.822 61.2719 114.822 61.6531H114.397V59.4071V59.3866H114.815L114.822 59.3934Z" fill="#09BAB5"/>
<path d="M117.529 61.6461H117.111V61.0608C117.111 60.9451 117.111 60.8294 117.111 60.7001C117.111 60.5776 117.111 60.4619 117.084 60.3666C117.063 60.2849 117.036 60.2168 116.995 60.142C116.954 60.0739 116.899 60.0127 116.837 59.965C116.775 59.9174 116.707 59.8765 116.625 59.8493C116.542 59.8221 116.46 59.8085 116.371 59.8085C116.234 59.8085 116.111 59.8493 116.001 59.9242C115.891 59.999 115.809 60.0875 115.754 60.1896C115.727 60.2441 115.706 60.2985 115.693 60.3666C115.679 60.4346 115.672 60.5027 115.672 60.5844C115.672 60.6592 115.672 60.7409 115.672 60.8226C115.672 60.9043 115.672 60.9859 115.672 61.0676V61.6393C115.604 61.6393 115.535 61.6461 115.46 61.6393C115.384 61.6393 115.316 61.6393 115.247 61.6393V60.6796C115.247 60.6252 115.247 60.5708 115.247 60.5163C115.247 60.4619 115.247 60.4142 115.247 60.3598C115.254 60.2781 115.275 60.2032 115.302 60.1284C115.33 60.0535 115.364 59.9922 115.398 59.9378C115.473 59.8153 115.563 59.7132 115.665 59.6247C115.768 59.5362 115.898 59.475 116.042 59.4205C116.104 59.4001 116.172 59.3865 116.261 59.3797C116.344 59.3729 116.433 59.3661 116.522 59.3797C116.659 59.3933 116.789 59.4341 116.899 59.4886C117.008 59.5498 117.111 59.6179 117.2 59.7064C117.282 59.788 117.351 59.8833 117.413 59.999C117.474 60.1147 117.509 60.2373 117.529 60.3734C117.529 60.4278 117.536 60.4755 117.529 60.5299C117.529 60.5844 117.529 60.6388 117.529 60.6865V61.6257V61.6461Z" fill="#09BAB5"/>
<path d="M117.927 62.5175H118.358C118.365 62.6128 118.393 62.6944 118.434 62.7761C118.475 62.8578 118.53 62.9258 118.598 62.9871C118.667 63.0483 118.735 63.0892 118.824 63.1232C118.906 63.1572 118.996 63.1709 119.091 63.164C119.222 63.164 119.338 63.1232 119.448 63.0483C119.551 62.9803 119.633 62.8918 119.688 62.7965C119.742 62.7012 119.77 62.6059 119.777 62.497C119.784 62.3881 119.79 62.2793 119.777 62.1635C119.777 62.0478 119.763 61.9321 119.756 61.8096C119.749 61.6871 119.756 61.5646 119.77 61.4353C119.708 61.4693 119.646 61.5034 119.585 61.5306C119.53 61.5578 119.468 61.585 119.407 61.6123C119.345 61.6327 119.276 61.6531 119.201 61.6599C119.126 61.6735 119.043 61.6735 118.941 61.6599C118.817 61.6531 118.694 61.6191 118.578 61.5646C118.461 61.5102 118.358 61.4353 118.262 61.3468C118.166 61.2583 118.091 61.1562 118.029 61.0405C117.968 60.9248 117.933 60.8023 117.92 60.6662C117.906 60.5165 117.92 60.3804 117.954 60.251C117.988 60.1217 118.036 60.0128 118.098 59.9107C118.16 59.8086 118.235 59.727 118.324 59.6521C118.413 59.584 118.509 59.5228 118.605 59.4819C118.68 59.4547 118.769 59.4275 118.872 59.4139C118.975 59.4003 119.078 59.3935 119.194 59.4071C119.318 59.4207 119.441 59.4547 119.551 59.5092C119.667 59.5636 119.763 59.6385 119.852 59.727C119.941 59.8154 120.01 59.9175 120.071 60.0332C120.126 60.1489 120.167 60.2715 120.174 60.394C120.188 60.5573 120.195 60.7343 120.188 60.918C120.181 61.1018 120.174 61.2924 120.174 61.4829C120.174 61.6735 120.174 61.8505 120.188 62.041C120.195 62.2248 120.188 62.4086 120.174 62.5787C120.16 62.708 120.126 62.8305 120.071 62.9463C120.016 63.062 119.941 63.1572 119.852 63.2457C119.763 63.3342 119.667 63.4023 119.551 63.4567C119.441 63.5112 119.318 63.5452 119.194 63.5588C118.982 63.586 118.79 63.5588 118.625 63.4975C118.454 63.4363 118.324 63.3478 118.214 63.2321C118.125 63.1368 118.057 63.0347 118.002 62.919C117.947 62.8033 117.92 62.6672 117.906 62.5107L117.927 62.5175ZM118.345 60.5369C118.345 60.6594 118.379 60.7683 118.427 60.8636C118.482 60.9589 118.55 61.0337 118.632 61.0882C118.715 61.1494 118.804 61.1903 118.906 61.2107C119.009 61.2311 119.105 61.2311 119.208 61.2107C119.304 61.1903 119.4 61.1562 119.489 61.095C119.578 61.0337 119.646 60.9521 119.694 60.8432C119.736 60.7615 119.763 60.673 119.763 60.5845C119.763 60.4961 119.756 60.4144 119.729 60.3327C119.701 60.251 119.667 60.183 119.619 60.1149C119.571 60.0468 119.516 59.9992 119.461 59.9516C119.407 59.9175 119.338 59.8835 119.256 59.8563C119.174 59.8291 119.085 59.8222 118.996 59.8291C118.906 59.8359 118.817 59.8631 118.742 59.8971C118.66 59.938 118.591 59.9856 118.536 60.0468C118.482 60.1081 118.434 60.1762 118.399 60.2578C118.365 60.3395 118.351 60.428 118.351 60.5301L118.345 60.5369Z" fill="#09BAB5"/>
<path d="M98.5415 59.2504C98.6032 59.1755 98.6717 59.1142 98.7471 59.0462C98.8225 58.9849 98.9047 58.9305 98.9938 58.8896C99.0829 58.8488 99.1856 58.8148 99.2953 58.7943C99.4049 58.7739 99.5283 58.7671 99.6584 58.7739C99.7749 58.7807 99.8846 58.808 99.9873 58.8556C100.09 58.8964 100.179 58.9577 100.261 59.0258C100.344 59.0938 100.412 59.1687 100.474 59.2572C100.536 59.3456 100.583 59.4341 100.618 59.5294C100.659 59.6383 100.686 59.754 100.7 59.8765C100.714 60.0058 100.721 60.1351 100.714 60.2781C100.714 60.4142 100.714 60.6728 100.7 60.8226C100.693 60.9723 100.693 61.5712 100.7 61.721H100.261C100.248 61.51 100.248 60.7273 100.261 60.5231C100.275 60.3189 100.275 60.1215 100.261 59.931C100.255 59.8289 100.227 59.7404 100.186 59.6519C100.145 59.5634 100.09 59.4886 100.028 59.4273C99.9599 59.3661 99.8846 59.3116 99.7955 59.2776C99.7064 59.2435 99.6105 59.2231 99.5077 59.2231C99.3981 59.2231 99.3021 59.2435 99.213 59.2844C99.124 59.3252 99.0486 59.3729 98.9869 59.4409C98.9252 59.509 98.8704 59.5839 98.8362 59.6723C98.7951 59.7608 98.7745 59.8561 98.7677 59.9582C98.7539 60.142 98.7539 60.3325 98.7677 60.5367C98.7814 60.7409 98.7814 61.5168 98.7677 61.721H98.3291C98.3223 61.5576 98.3223 60.8158 98.3291 60.6456C98.336 60.4823 98.336 60.3189 98.3291 60.1692C98.3223 60.0194 98.3086 59.8833 98.2743 59.754C98.2469 59.6315 98.1852 59.5226 98.103 59.4409C98.0482 59.3797 97.9728 59.3252 97.8769 59.2844C97.7809 59.2435 97.685 59.2163 97.5685 59.2163C97.3492 59.2163 97.1779 59.2912 97.0477 59.4273C96.9175 59.5634 96.8422 59.7336 96.8216 59.9378C96.8079 60.1215 96.8079 60.3189 96.8216 60.5163C96.8353 60.7205 96.8353 61.5032 96.8216 61.7074H96.3831C96.3831 61.5848 96.3899 60.9995 96.3831 60.8838C96.3831 60.7681 96.3831 60.5367 96.3694 60.421C96.3557 60.3053 96.3694 60.1964 96.3694 60.0943C96.3694 59.9922 96.3694 59.8833 96.3831 59.788C96.3968 59.6519 96.4379 59.5294 96.4996 59.4137C96.5681 59.298 96.6366 59.1959 96.7188 59.121C96.8011 59.0394 96.897 58.9645 97.0203 58.8964C97.1368 58.8284 97.267 58.7943 97.4109 58.7739C97.5479 58.7603 97.6713 58.7671 97.7809 58.7875C97.8906 58.808 97.9933 58.842 98.0824 58.8828C98.1715 58.9305 98.2537 58.9849 98.3291 59.0462C98.4045 59.1074 98.473 59.1755 98.5347 59.2504H98.5415Z" fill="#09BAB5"/>
<path d="M77.2996 59.4136H77.7175V59.9989C77.7175 60.1146 77.7175 60.2303 77.7175 60.3596C77.7175 60.4821 77.7175 60.5978 77.745 60.6999C77.7655 60.7816 77.7929 60.8497 77.834 60.9177C77.8751 60.9858 77.9231 61.0402 77.9848 61.0879C78.0465 61.1355 78.1081 61.1764 78.1835 61.2104C78.2589 61.2376 78.3342 61.258 78.4165 61.258C78.5193 61.258 78.6083 61.2512 78.6974 61.2104C78.7796 61.1764 78.855 61.1287 78.9098 61.0811C78.9647 61.0334 79.0126 60.979 79.0537 60.9177C79.0948 60.8497 79.1291 60.7816 79.1428 60.6999C79.1634 60.6046 79.1702 60.5026 79.1702 60.3937C79.1702 60.2848 79.1702 60.1759 79.1702 60.067V59.4136H79.5951V60.3664C79.5951 60.4209 79.5951 60.4685 79.5951 60.523C79.5951 60.5774 79.5951 60.6251 79.5951 60.6795C79.5814 60.8156 79.5402 60.9381 79.4786 61.0538C79.4169 61.1696 79.3484 61.2648 79.2661 61.3465C79.1839 61.4282 79.0811 61.5031 78.9647 61.5643C78.8482 61.6256 78.7248 61.6596 78.5878 61.6732C78.4028 61.6936 78.2383 61.6732 78.1013 61.6256C77.9642 61.5779 77.8477 61.5099 77.745 61.435C77.6696 61.3737 77.6079 61.3057 77.5462 61.2308C77.4846 61.1559 77.4366 61.0675 77.3955 60.9722C77.3749 60.9177 77.3612 60.8701 77.3475 60.8156C77.3338 60.7612 77.327 60.7067 77.327 60.6455C77.327 60.4481 77.327 60.2507 77.327 60.0465C77.327 59.8424 77.327 59.6382 77.327 59.434C77.3201 59.4272 77.3201 59.4204 77.327 59.4204L77.2996 59.4136Z" fill="#09BAB5"/>
<path d="M82.2401 60.6659C81.9386 60.6659 81.6371 60.6728 81.3356 60.6659C81.0341 60.6659 80.7326 60.6659 80.4311 60.6659C80.4585 60.8157 80.5338 60.945 80.6503 61.0471C80.7668 61.1492 80.9107 61.2104 81.082 61.224C81.1711 61.224 81.267 61.2309 81.363 61.224C81.4589 61.224 81.5548 61.224 81.6576 61.224H82.2332C82.2332 61.2921 82.24 61.3602 82.2332 61.435C82.2332 61.5099 82.2332 61.578 82.2332 61.6528H81.6028C81.4932 61.6528 81.3904 61.6528 81.2876 61.6596C81.1848 61.6596 81.082 61.6596 80.9792 61.6528C80.8422 61.6392 80.7189 61.5984 80.5955 61.5371C80.479 61.4759 80.3762 61.401 80.294 61.3193C80.2049 61.2309 80.1296 61.1356 80.0747 61.0199C80.0131 60.911 79.9788 60.7817 79.9651 60.6387C79.9514 60.5366 79.9514 60.4345 79.9651 60.3393C79.9788 60.244 79.9994 60.1623 80.0336 60.0874C80.0679 60.0126 80.1022 59.9377 80.1501 59.8764C80.1912 59.8084 80.2392 59.7539 80.294 59.6995C80.3557 59.6382 80.4242 59.5838 80.4996 59.5361C80.575 59.4885 80.6572 59.4477 80.76 59.4136C80.8216 59.3864 80.897 59.3728 80.9861 59.3592C81.0683 59.3456 81.1643 59.3524 81.2602 59.3592C81.3698 59.366 81.4658 59.3932 81.5617 59.434C81.6576 59.4749 81.7467 59.5225 81.8221 59.5838C81.8974 59.645 81.966 59.7131 82.0276 59.7948C82.0893 59.8764 82.1373 59.9581 82.1784 60.0398C82.1921 60.067 82.1989 60.0942 82.2126 60.1215C82.2263 60.1487 82.2332 60.1759 82.2401 60.2031C82.2538 60.278 82.2538 60.3529 82.2401 60.4277C82.2263 60.5026 82.2263 60.5775 82.2401 60.6523V60.6659ZM81.1574 59.8016C81.1574 59.8016 81.1094 59.8016 81.082 59.8016C80.9244 59.8152 80.8011 59.8628 80.6983 59.9445C80.5955 60.0262 80.5201 60.1215 80.4722 60.244C80.6846 60.244 80.9039 60.244 81.1231 60.244C81.3424 60.244 81.5685 60.244 81.781 60.244C81.733 60.1215 81.6576 60.0262 81.548 59.9445C81.4383 59.8628 81.3081 59.8152 81.1574 59.8084V59.8016Z" fill="#09BAB5"/>
<path d="M85.0084 61.6461H84.5904V61.0608C84.5904 60.9451 84.5904 60.8294 84.5904 60.7001C84.5904 60.5708 84.5904 60.4619 84.563 60.3666C84.5424 60.2849 84.515 60.2168 84.4739 60.142C84.4328 60.0739 84.3779 60.0127 84.3163 59.965C84.2546 59.9174 84.1861 59.8765 84.1039 59.8493C84.0216 59.8221 83.9394 59.8085 83.8503 59.8085C83.7133 59.8085 83.5899 59.8493 83.4803 59.9242C83.3707 59.999 83.2884 60.0875 83.2336 60.1896C83.2062 60.2441 83.1857 60.2985 83.172 60.3666C83.1583 60.4346 83.1514 60.5027 83.1514 60.5844C83.1514 60.6592 83.1514 60.7409 83.1514 60.8226C83.1514 60.9043 83.1514 60.9859 83.1514 61.0676V61.6393C83.0829 61.6393 83.0144 61.6461 82.939 61.6393C82.8636 61.6393 82.7951 61.6393 82.7266 61.6393V60.6796C82.7266 60.6252 82.7266 60.5708 82.7266 60.5163C82.7266 60.4619 82.7266 60.4142 82.7266 60.3598C82.7334 60.2781 82.754 60.2032 82.7814 60.1284C82.8088 60.0535 82.8431 59.9922 82.8773 59.9378C82.9527 59.8153 83.0418 59.7132 83.1445 59.6247C83.2473 59.5362 83.3775 59.475 83.5214 59.4205C83.5831 59.4001 83.6516 59.3865 83.7407 59.3797C83.8229 59.3729 83.912 59.3661 84.0011 59.3797C84.1381 59.3933 84.2683 59.4341 84.378 59.4886C84.4876 59.5498 84.5904 59.6179 84.6794 59.7064C84.7617 59.788 84.8302 59.8833 84.8919 59.999C84.9535 60.1147 84.9878 60.2373 85.0084 60.3734C85.0084 60.4278 85.0152 60.4755 85.0084 60.5299C85.0084 60.5844 85.0084 60.6388 85.0084 60.6865V61.6257V61.6461Z" fill="#09BAB5"/>
<path d="M85.4059 58.3247H85.8238V59.4001C85.9198 59.4069 86.0226 59.4137 86.1322 59.4069C86.2418 59.4069 86.3446 59.4069 86.4474 59.4069V59.8289H85.8307C85.8307 59.965 85.8307 60.0943 85.8238 60.2236C85.8238 60.3529 85.8238 60.4686 85.8238 60.5843C85.8375 60.7681 85.9061 60.9178 86.0294 61.0403C86.1528 61.1629 86.3104 61.2309 86.4954 61.2445C86.5981 61.2445 86.6872 61.2377 86.7763 61.2037C86.8585 61.1697 86.9339 61.1288 87.0024 61.0676C87.0709 61.0063 87.1189 60.9383 87.16 60.8566C87.2011 60.7749 87.2285 60.6864 87.2423 60.5911C87.3108 60.5911 87.3862 60.5911 87.4615 60.5911C87.5369 60.5911 87.6054 60.5911 87.6671 60.5911C87.6602 60.7477 87.626 60.8838 87.5712 60.9995C87.5163 61.1152 87.4478 61.2241 87.3587 61.3194C87.256 61.4283 87.1258 61.5168 86.9682 61.5848C86.8106 61.6529 86.6187 61.6801 86.4063 61.6597C86.2624 61.6461 86.1322 61.6121 86.0226 61.5508C85.9129 61.4895 85.817 61.4147 85.7348 61.333C85.6525 61.2513 85.584 61.156 85.5223 61.0472C85.4607 60.9383 85.4264 60.8089 85.4059 60.666C85.399 60.5775 85.3922 60.4822 85.4059 60.3802C85.4059 60.2781 85.4059 60.1828 85.4059 60.0807V58.3451V58.3247Z" fill="#09BAB5"/>
<path d="M90.3326 60.3121H89.894C89.8529 60.176 89.7775 60.0603 89.6679 59.9582C89.5583 59.8629 89.4212 59.8017 89.2499 59.7881C89.2225 59.7881 89.1883 59.7881 89.1608 59.7881C89.0375 59.7949 88.9347 59.8289 88.8456 59.8834C88.7634 59.9378 88.688 59.9991 88.6264 60.0739C88.6538 60.1012 88.688 60.1148 88.7292 60.1284C88.7703 60.142 88.8045 60.1488 88.8388 60.1692C89.0855 60.2577 89.3321 60.353 89.5857 60.4483C89.8392 60.5436 90.0859 60.632 90.3257 60.7273C90.312 60.8566 90.2709 60.9723 90.2161 61.0812C90.1613 61.1901 90.0859 61.2786 89.9968 61.3603C89.942 61.4147 89.8803 61.4556 89.8187 61.5032C89.757 61.5441 89.6885 61.5849 89.6131 61.6121C89.5377 61.6393 89.4555 61.6666 89.3596 61.6802C89.2705 61.6938 89.1677 61.6938 89.0581 61.6802C88.921 61.6666 88.7977 61.6257 88.688 61.5713C88.5784 61.5168 88.4825 61.4488 88.3934 61.3739C88.2221 61.2174 88.1125 61.0064 88.0576 60.7341C88.1262 60.7341 88.2015 60.7273 88.2769 60.7341C88.3523 60.7341 88.4277 60.7341 88.503 60.7341C88.5441 60.8702 88.6195 60.986 88.7292 61.088C88.8388 61.1901 88.9827 61.2446 89.1471 61.265C89.2362 61.265 89.3116 61.265 89.387 61.2378C89.4555 61.2106 89.524 61.1833 89.5788 61.1493C89.6131 61.1289 89.6474 61.1085 89.6748 61.0812C89.7022 61.054 89.7296 61.0268 89.7501 60.9928C89.4623 60.8839 89.1814 60.7818 88.9005 60.6729C88.6195 60.5708 88.3386 60.4619 88.0508 60.353C88.1262 60.0059 88.2838 59.7404 88.5373 59.5771C88.6401 59.509 88.7497 59.4546 88.8799 59.4069C89.0032 59.3661 89.1608 59.3525 89.339 59.3729C89.476 59.3865 89.5994 59.4206 89.709 59.4818C89.8187 59.5363 89.9146 59.6043 90.0037 59.686C90.1818 59.8493 90.2915 60.0603 90.3326 60.3258V60.3121Z" fill="#09BAB5"/>
<path d="M76.5048 60.1556C76.5048 60.1556 76.5048 60.1352 76.5048 60.1284C76.2033 60.1284 76.0183 60.1216 75.7168 60.1284C75.4153 60.1284 75.1138 60.1284 74.8123 60.1284C74.8123 60.108 74.8191 59.7405 74.826 59.72C74.8602 59.5975 74.9288 59.4886 75.0315 59.4001C75.148 59.2981 75.2919 59.2368 75.4632 59.2232C75.5523 59.2232 75.6482 59.2164 75.7442 59.2232C75.8401 59.2232 75.936 59.2232 76.0388 59.2232H76.6144C76.6144 59.1551 76.6213 59.0871 76.6144 59.0122C76.6144 58.9373 76.6144 58.8693 76.6144 58.7944H75.984C75.8744 58.7944 75.7716 58.7944 75.6688 58.7876C75.566 58.7876 75.4632 58.7876 75.3604 58.7944C75.2234 58.808 75.1001 58.8489 74.9767 58.9101C74.8602 58.9714 74.7574 59.0462 74.6752 59.1279C74.5861 59.2164 74.5108 59.3117 74.4559 59.4274C74.408 59.5159 74.3737 59.6179 74.3532 59.7268C74.3326 59.863 74.3532 60.8362 74.3463 60.7341C74.36 60.8635 74.4011 60.986 74.4559 61.0881C74.5176 61.197 74.5861 61.2991 74.6752 61.3875C74.7574 61.4692 74.8534 61.5441 74.9767 61.6053C75.0932 61.6666 75.2234 61.7074 75.3604 61.721C75.4632 61.7278 75.566 61.7346 75.6688 61.7278C75.7716 61.7278 75.8744 61.721 75.984 61.721H76.6144C76.6144 61.653 76.6144 61.5781 76.6144 61.5032C76.6144 61.4284 76.6144 61.3603 76.6144 61.2922H76.0388C75.9429 61.2922 75.8469 61.2922 75.7442 61.2922C75.6482 61.2922 75.5523 61.2922 75.4632 61.2922C75.2919 61.2786 75.148 61.2174 75.0315 61.1153C74.9219 61.0132 74.8465 60.8907 74.8191 60.7478C74.8191 60.7478 74.8191 60.6184 74.8191 60.6116C75.1206 60.6116 75.4221 60.6116 75.7236 60.6116C76.0251 60.6116 76.2101 60.6116 76.5116 60.6116C76.5116 60.6048 76.5116 60.5912 76.5116 60.5844C76.5116 60.5844 76.5253 60.2305 76.5116 60.1556H76.5048Z" fill="#09BAB5"/>
</g>
<defs>
<clipPath id="clip0_1_2167">
<rect width="129" height="82" fill="white" transform="translate(0.5 0.5)"/>
</clipPath>
</defs>
</svg>
