<svg width="40" height="39" viewBox="0 0 40 39" fill="none" xmlns="http://www.w3.org/2000/svg">
<g id="digital-marketing 1" clip-path="url(#clip0_112_451)">
<g id="Group">
<g id="Group_2">
<path id="Vector" d="M2.7711 37.463H0.550716C0.321018 37.463 0.135132 37.6489 0.135132 37.8786C0.135132 38.1083 0.321018 38.2942 0.550716 38.2942H2.7711C3.00081 38.2942 3.18668 38.1083 3.18668 37.8786C3.18668 37.6489 3.00081 37.463 2.7711 37.463Z" fill="url(#paint0_linear_112_451)"/>
<path id="Vector_2" d="M40.5921 37.463H38.4556C39.3287 36.766 39.8898 35.6945 39.8898 34.4903V33.8173H2.48718V34.4903C2.48718 35.9215 3.2784 37.1668 4.44645 37.8161C4.4431 37.8373 4.43384 37.8564 4.43384 37.8786C4.43384 38.1083 4.61972 38.2942 4.84942 38.2942C7.03388 38.2944 1.91888 38.2944 40.5921 38.2942C40.8218 38.2942 41.0077 38.1083 41.0077 37.8786C41.0077 37.6489 40.8218 37.463 40.5921 37.463Z" fill="url(#paint1_linear_112_451)"/>
<path id="Vector_3" d="M38.7024 10.7776C38.7024 9.26906 37.4806 8.04724 35.9721 8.04724H31.6999C31.9866 8.85348 31.945 9.73451 31.5918 10.5034H35.9721C36.1217 10.5034 36.2464 10.628 36.2464 10.7818V30.9418H6.13311V10.7818C6.13311 10.628 6.25362 10.5034 6.40741 10.5034H15.9368L17.7071 8.04724H6.4074C4.89467 8.04724 3.67285 9.26906 3.67285 10.7776V32.9865H38.7024V10.7776Z" fill="url(#paint2_linear_112_451)"/>
<path id="Vector_4" d="M9.38252 16.9573L11.5356 20.8862C11.7603 21.2962 12.2748 21.4464 12.6848 21.2217L13.4564 20.7989L13.5004 20.8792C13.6671 21.1833 14.0485 21.2947 14.3526 21.128L18.1376 19.0538C18.4417 18.8871 18.5531 18.5058 18.3864 18.2016L15.3317 12.6274C15.165 12.3232 14.7836 12.2119 14.4795 12.3786L10.6945 14.4527C10.3904 14.6194 10.279 15.0008 10.4457 15.305L10.4897 15.3853L9.71805 15.8081C9.30807 16.0328 9.15784 16.5473 9.38252 16.9573Z" fill="url(#paint3_linear_112_451)"/>
<path id="Vector_5" d="M16.0613 12.228L19.1158 17.801C19.1657 17.8882 19.2031 17.9755 19.228 18.0711C20.4748 18.0005 23.3589 17.8384 29.7797 17.4768L22.0706 3.41345L15.8909 11.9869C15.9574 12.0576 16.0114 12.1407 16.0613 12.228Z" fill="url(#paint4_linear_112_451)"/>
<path id="Vector_6" d="M30.9493 17.8848C31.2309 18.3986 31.8757 18.5869 32.3895 18.3053L32.5474 18.2188C33.0612 17.9372 33.2495 17.2924 32.9679 16.7785L24.3835 1.11391C24.1019 0.600056 23.4571 0.41177 22.9432 0.693375L22.7854 0.779871C22.2716 1.06145 22.0833 1.70629 22.3649 2.22014L30.9493 17.8848Z" fill="url(#paint5_linear_112_451)"/>
<path id="Vector_7" d="M30.7565 7.95586C30.2703 7.07067 29.3228 6.60521 28.3835 6.68417L30.5487 10.6364C31.1264 9.88831 31.2386 8.8369 30.7565 7.95586Z" fill="url(#paint6_linear_112_451)"/>
<path id="Vector_8" d="M19.1035 28.1199L21.3061 26.9147C21.5803 26.7651 21.6801 26.4202 21.5305 26.1417C19.7061 24.1054 18.4011 22.5137 17.6489 20.2695L14.9601 21.7449L18.3305 27.8955C18.4801 28.1698 18.825 28.2737 19.1035 28.1199Z" fill="url(#paint7_linear_112_451)"/>
</g>
</g>
</g>
<defs>
<linearGradient id="paint0_linear_112_451" x1="1.66091" y1="37.463" x2="1.66091" y2="38.2942" gradientUnits="userSpaceOnUse">
<stop stop-color="#05BAB5"/>
<stop offset="1" stop-color="#0563BA"/>
</linearGradient>
<linearGradient id="paint1_linear_112_451" x1="21.7474" y1="33.8173" x2="21.7474" y2="38.2944" gradientUnits="userSpaceOnUse">
<stop stop-color="#05BAB5"/>
<stop offset="1" stop-color="#0563BA"/>
</linearGradient>
<linearGradient id="paint2_linear_112_451" x1="21.1877" y1="8.04724" x2="21.1877" y2="32.9865" gradientUnits="userSpaceOnUse">
<stop stop-color="#05BAB5"/>
<stop offset="1" stop-color="#0563BA"/>
</linearGradient>
<linearGradient id="paint3_linear_112_451" x1="13.871" y1="12.3011" x2="13.871" y2="21.3261" gradientUnits="userSpaceOnUse">
<stop stop-color="#05BAB5"/>
<stop offset="1" stop-color="#0563BA"/>
</linearGradient>
<linearGradient id="paint4_linear_112_451" x1="22.8353" y1="3.41345" x2="22.8353" y2="18.0711" gradientUnits="userSpaceOnUse">
<stop stop-color="#05BAB5"/>
<stop offset="1" stop-color="#0563BA"/>
</linearGradient>
<linearGradient id="paint5_linear_112_451" x1="27.6664" y1="0.562622" x2="27.6664" y2="18.436" gradientUnits="userSpaceOnUse">
<stop stop-color="#05BAB5"/>
<stop offset="1" stop-color="#0563BA"/>
</linearGradient>
<linearGradient id="paint6_linear_112_451" x1="29.7213" y1="6.67554" x2="29.7213" y2="10.6364" gradientUnits="userSpaceOnUse">
<stop stop-color="#05BAB5"/>
<stop offset="1" stop-color="#0563BA"/>
</linearGradient>
<linearGradient id="paint7_linear_112_451" x1="18.28" y1="20.2695" x2="18.28" y2="28.1912" gradientUnits="userSpaceOnUse">
<stop stop-color="#05BAB5"/>
<stop offset="1" stop-color="#0563BA"/>
</linearGradient>
<clipPath id="clip0_112_451">
<rect width="40" height="38.8571" fill="white"/>
</clipPath>
</defs>
</svg>
