<svg width="40" height="41" viewBox="0 0 40 41" fill="none" xmlns="http://www.w3.org/2000/svg">
<g id="people 1" clip-path="url(#clip0_112_489)">
<path id="Vector" d="M38.3555 8.47417C38.2146 7.69541 37.669 7.04862 36.9208 6.78023L20.7569 0.923997C20.2684 0.747991 19.7359 0.747991 19.2474 0.923997L3.07905 6.78023C2.33095 7.04862 1.78523 7.69541 1.64443 8.47417C1.35397 10.1153 1.19995 11.8049 1.19995 13.534C1.19995 25.6161 8.65041 35.9602 19.199 40.2369C19.7139 40.4437 20.2904 40.4437 20.8053 40.2369C31.3583 35.9602 38.7999 25.6161 38.7999 13.534C38.7999 11.8049 38.6459 10.1153 38.3555 8.47417ZM29.1447 25.3301L28.907 27.7236C26.5394 28.7884 23.4193 29.4352 19.9999 29.4352C16.5806 29.4352 13.4604 28.7884 11.0928 27.7236L10.8552 25.3301C10.6219 22.941 12.2678 20.7146 14.8335 19.9403L18.5213 18.8315C17.0471 18.2287 15.9469 16.7591 15.8456 14.9684L15.7312 12.9665C15.5772 10.3045 17.4871 8.00341 19.9999 8.00341C22.5128 8.00341 24.4227 10.3045 24.2687 12.9665L24.1542 14.9684C24.053 16.7591 22.9528 18.2287 21.4786 18.8315L25.1664 19.9403C27.7321 20.7146 29.3779 22.941 29.1447 25.3301Z" fill="url(#paint0_linear_112_489)"/>
</g>
<defs>
<linearGradient id="paint0_linear_112_489" x1="20" y1="0.791992" x2="20" y2="40.392" gradientUnits="userSpaceOnUse">
<stop stop-color="#05BAB5"/>
<stop offset="1" stop-color="#0563BA"/>
</linearGradient>
<clipPath id="clip0_112_489">
<rect width="40" height="40" fill="white" transform="translate(0 0.5)"/>
</clipPath>
</defs>
</svg>
