<svg width="35" height="36" viewBox="0 0 35 36" fill="none" xmlns="http://www.w3.org/2000/svg">
<g id="camera(3) 1" clip-path="url(#clip0_112_500)">
<g id="_x30_9_camera_photography">
<g id="Group">
<path id="Vector" d="M17.4999 17.73C20.7164 17.73 23.3333 20.3468 23.3333 23.5633C23.3333 26.7798 20.7164 29.3966 17.4999 29.3966C14.2834 29.3966 11.6666 26.7798 11.6666 23.5633C11.6666 20.3468 14.2834 17.73 17.4999 17.73ZM13.9999 24.73C14.6451 24.73 15.1666 24.2073 15.1666 23.5633C15.1666 22.2765 16.2131 21.23 17.4999 21.23C18.1451 21.23 18.6666 20.7073 18.6666 20.0633C18.6666 19.4193 18.1451 18.8966 17.4999 18.8966C14.9263 18.8966 12.8333 20.9896 12.8333 23.5633C12.8333 24.2073 13.3548 24.73 13.9999 24.73Z" fill="url(#paint0_linear_112_500)"/>
<g id="Group_2">
<path id="Vector_2" d="M11.0483 10.73L11.7017 8.11315C11.8323 7.59515 12.2978 7.22998 12.8333 7.22998H22.1667C22.7022 7.22998 23.1677 7.59515 23.2983 8.11315L23.9517 10.73H11.0483Z" fill="url(#paint1_linear_112_500)"/>
<path id="Vector_3" d="M3.5 11.8966H10.7567H24.2433H31.5C33.4297 11.8966 35 13.4669 35 15.3966V31.7299C35 33.6596 33.4297 35.2299 31.5 35.2299H3.5C1.57034 35.2299 0 33.6596 0 31.7299V15.3966C0 13.4669 1.57034 11.8966 3.5 11.8966ZM29.1667 18.8966C29.8118 18.8966 30.3333 18.3739 30.3333 17.7299C30.3333 17.0859 29.8118 16.5633 29.1667 16.5633C28.5215 16.5633 28 17.0859 28 17.7299C28 18.3739 28.5215 18.8966 29.1667 18.8966ZM17.5 31.7299C22.0022 31.7299 25.6667 28.0666 25.6667 23.5633C25.6667 19.0599 22.0022 15.3966 17.5 15.3966C12.9978 15.3966 9.33333 19.0599 9.33333 23.5633C9.33333 28.0666 12.9978 31.7299 17.5 31.7299Z" fill="url(#paint2_linear_112_500)"/>
</g>
</g>
</g>
</g>
<defs>
<linearGradient id="paint0_linear_112_500" x1="17.4999" y1="17.73" x2="17.4999" y2="29.3966" gradientUnits="userSpaceOnUse">
<stop stop-color="#05BAB5"/>
<stop offset="1" stop-color="#0563BA"/>
</linearGradient>
<linearGradient id="paint1_linear_112_500" x1="17.5" y1="7.22998" x2="17.5" y2="10.73" gradientUnits="userSpaceOnUse">
<stop stop-color="#05BAB5"/>
<stop offset="1" stop-color="#0563BA"/>
</linearGradient>
<linearGradient id="paint2_linear_112_500" x1="17.5" y1="11.8966" x2="17.5" y2="35.2299" gradientUnits="userSpaceOnUse">
<stop stop-color="#05BAB5"/>
<stop offset="1" stop-color="#0563BA"/>
</linearGradient>
<clipPath id="clip0_112_500">
<rect width="35" height="35" fill="white" transform="matrix(-1 0 0 1 35 0.5)"/>
</clipPath>
</defs>
</svg>
