<svg width="40" height="41" viewBox="0 0 40 41" fill="none" xmlns="http://www.w3.org/2000/svg">
<g id="big-screen 1" clip-path="url(#clip0_112_576)">
<g id="Group">
<path id="Vector" d="M11.0938 38.1562H10C9.65625 38.1562 9.375 37.875 9.375 37.5312V32.2188C9.375 31.5703 8.85156 31.0469 8.20312 31.0469C7.55469 31.0469 7.03125 30.5234 7.03125 29.875V27.5312C7.03125 26.8828 7.55469 26.3594 8.20312 26.3594H31.7969C32.4453 26.3594 32.9688 26.8828 32.9688 27.5312V29.875C32.9688 30.5234 32.4453 31.0469 31.7969 31.0469C31.1484 31.0469 30.625 31.5703 30.625 32.2188V37.5312C30.625 37.875 30.3438 38.1562 30 38.1562H28.9062C28.5625 38.1562 28.2812 38.4375 28.2812 38.7812V39.875C28.2812 40.2188 28.5625 40.5 28.9062 40.5H39.375C39.7188 40.5 40 40.2188 40 39.875V38.7812C40 38.4375 39.7188 38.1562 39.375 38.1562H38.2812C37.9375 38.1562 37.6562 37.875 37.6562 37.5312V32.2188C37.6562 31.5703 37.1328 31.0469 36.4844 31.0469C35.8359 31.0469 35.3125 30.5234 35.3125 29.875V27.5312C35.3125 26.8828 35.8359 26.3594 36.4844 26.3594H38.8281C39.4766 26.3594 40 25.8359 40 25.1875V1.67188C40 1.02344 39.4766 0.5 38.8281 0.5H1.17188C0.523438 0.5 0 1.02344 0 1.67188V25.1875C0 25.8359 0.523438 26.3594 1.17188 26.3594H3.51562C4.16406 26.3594 4.6875 26.8828 4.6875 27.5312V29.875C4.6875 30.5234 4.16406 31.0469 3.51562 31.0469C2.86719 31.0469 2.34375 31.5703 2.34375 32.2188V37.5312C2.34375 37.875 2.0625 38.1562 1.71875 38.1562H0.625C0.28125 38.1562 0 38.4375 0 38.7812V39.875C0 40.2188 0.28125 40.5 0.625 40.5H11.0938C11.4375 40.5 11.7188 40.2188 11.7188 39.875V38.7812C11.7188 38.4375 11.4375 38.1562 11.0938 38.1562ZM30.5469 10.4062L25.5312 17.8438C25.1719 18.375 24.4453 18.5234 23.9062 18.1641C23.3672 17.8047 23.2188 17.0703 23.5859 16.5312L28.6016 9.10156C28.9609 8.57031 29.6875 8.42188 30.2266 8.78125C30.7734 9.14062 30.9141 9.86719 30.5469 10.4062ZM25.0156 8.0625L16.9375 20.1719C16.5781 20.7109 15.8516 20.8594 15.3125 20.5C14.7734 20.1406 14.625 19.4141 14.9844 18.875L23.0625 6.76562C23.4219 6.22656 24.1484 6.07812 24.6875 6.4375C25.2266 6.79688 25.375 7.52344 25.0156 8.0625ZM16.0859 8.78125C16.625 9.14062 16.7734 9.875 16.4062 10.4141L11.3906 17.8438C11.0312 18.375 10.3047 18.5234 9.76562 18.1641C9.22656 17.8047 9.07812 17.0703 9.44531 16.5312L14.4609 9.10156C14.8281 8.5625 15.5547 8.42188 16.0859 8.78125Z" fill="url(#paint0_linear_112_576)"/>
</g>
</g>
<defs>
<linearGradient id="paint0_linear_112_576" x1="20" y1="0.5" x2="20" y2="40.5" gradientUnits="userSpaceOnUse">
<stop stop-color="#05BAB5"/>
<stop offset="1" stop-color="#0563BA"/>
</linearGradient>
<clipPath id="clip0_112_576">
<rect width="40" height="40" fill="white" transform="translate(0 0.5)"/>
</clipPath>
</defs>
</svg>
