<svg width="271" height="57" viewBox="0 0 271 57" fill="none" xmlns="http://www.w3.org/2000/svg">
<g clip-path="url(#clip0_105_95)">
<path d="M3.27686 3.21973C11.5523 3.21973 19.8337 27.7751 28.1091 27.7751C36.3845 27.7751 44.6599 3.21973 52.9413 3.21973C61.2227 3.21973 69.4981 27.7751 77.7735 27.7751C86.049 27.7751 94.3244 3.21973 102.6 3.21973C110.875 3.21973 119.157 27.7751 127.432 27.7751C135.707 27.7751 143.989 3.21973 152.264 3.21973C160.54 3.21973 168.821 27.7751 177.097 27.7751C185.372 27.7751 193.653 3.21973 201.929 3.21973C210.204 3.21973 218.486 27.7751 226.761 27.7751C235.036 27.7751 243.318 3.21973 251.593 3.21973C259.869 3.21973 268.15 27.7751 276.425 27.7751C284.701 27.7751 292.982 3.21973 301.258 3.21973C309.533 3.21973 317.814 27.7751 326.09 27.7751C334.365 27.7751 342.647 3.21973 350.922 3.21973C359.198 3.21973 367.479 27.7751 375.754 27.7751C384.03 27.7751 392.311 3.21973 400.587 3.21973C408.862 3.21973 417.143 27.7751 425.419 27.7751C433.694 27.7751 441.976 3.21973 450.251 3.21973C458.526 3.21973 466.808 27.7751 475.083 27.7751C483.359 27.7751 491.64 3.21973 499.916 3.21973C508.191 3.21973 516.472 27.7751 524.748 27.7751C533.023 27.7751 541.305 3.21973 549.58 3.21973C557.855 3.21973 566.137 27.7751 574.412 27.7751C582.688 27.7751 590.969 3.21973 599.244 3.21973C607.52 3.21973 615.801 27.7751 624.077 27.7751C632.352 27.7751 640.634 3.21973 648.909 3.21973C657.184 3.21973 665.46 27.7751 673.741 27.7751" stroke="#E66299" stroke-width="7" stroke-linecap="round" stroke-linejoin="round"/>
</g>
<defs>
<clipPath id="clip0_105_95">
<rect width="271" height="57" fill="white"/>
</clipPath>
</defs>
</svg>
