<svg width="418" height="57" viewBox="0 0 418 57" fill="none" xmlns="http://www.w3.org/2000/svg">
<g clip-path="url(#clip0_105_204)">
<path d="M3.27681 3.21924C11.5522 3.21924 19.8336 27.7746 28.109 27.7746C36.3845 27.7746 44.6599 3.21924 52.9413 3.21924C61.2227 3.21924 69.4981 27.7746 77.7735 27.7746C86.0489 27.7746 94.3244 3.21924 102.6 3.21924C110.875 3.21924 119.157 27.7746 127.432 27.7746C135.707 27.7746 143.989 3.21924 152.264 3.21924C160.54 3.21924 168.821 27.7746 177.096 27.7746C185.372 27.7746 193.653 3.21924 201.929 3.21924C210.204 3.21924 218.485 27.7746 226.761 27.7746C235.036 27.7746 243.318 3.21924 251.593 3.21924C259.869 3.21924 268.15 27.7746 276.425 27.7746C284.701 27.7746 292.982 3.21924 301.258 3.21924C309.533 3.21924 317.814 27.7746 326.09 27.7746C334.365 27.7746 342.647 3.21924 350.922 3.21924C359.198 3.21924 367.479 27.7746 375.754 27.7746C384.03 27.7746 392.311 3.21924 400.587 3.21924C408.862 3.21924 417.143 27.7746 425.419 27.7746C433.694 27.7746 441.976 3.21924 450.251 3.21924C458.526 3.21924 466.808 27.7746 475.083 27.7746C483.359 27.7746 491.64 3.21924 499.915 3.21924C508.191 3.21924 516.472 27.7746 524.748 27.7746C533.023 27.7746 541.305 3.21924 549.58 3.21924C557.855 3.21924 566.137 27.7746 574.412 27.7746C582.688 27.7746 590.969 3.21924 599.244 3.21924C607.52 3.21924 615.801 27.7746 624.077 27.7746C632.352 27.7746 640.633 3.21924 648.909 3.21924C657.184 3.21924 665.46 27.7746 673.741 27.7746" stroke="#09BAB5" stroke-width="7" stroke-linecap="round" stroke-linejoin="round"/>
</g>
<defs>
<clipPath id="clip0_105_204">
<rect width="418" height="57" fill="white"/>
</clipPath>
</defs>
</svg>
