<svg width="40" height="41" viewBox="0 0 40 41" fill="none" xmlns="http://www.w3.org/2000/svg">
<g id="shuttle 1" clip-path="url(#clip0_112_598)">
<path id="Vector" d="M39.9529 3.48621C39.8663 1.8973 38.6026 0.633784 37.0137 0.547066C33.8076 0.371909 27.5338 0.5423 21.5348 3.64519C18.4766 5.22707 15.2422 7.90902 12.661 11.0034C12.6292 11.0415 12.5983 11.0799 12.5667 11.1181L6.70892 11.5706C5.7447 11.6451 4.88587 12.1505 4.35259 12.9571L0.356182 19.0018C-0.0482715 19.6135 -0.112568 20.379 0.184072 21.0496C0.480791 21.7202 1.09048 22.1875 1.81509 22.2998L6.75032 23.0642C6.7329 23.1601 6.7154 23.256 6.69938 23.3519C6.53509 24.3347 6.86071 25.3452 7.57056 26.055L14.4449 32.9294C15.0334 33.5179 15.8287 33.8424 16.6435 33.8424C16.8113 33.8424 16.9801 33.8285 17.1481 33.8005C17.244 33.7845 17.3399 33.767 17.4358 33.7496L18.2002 38.6849C18.3124 39.4095 18.7798 40.0193 19.4502 40.3159C19.7292 40.4393 20.0245 40.5003 20.3184 40.5003C20.7311 40.5002 21.1409 40.38 21.4981 40.1439L27.5428 36.1474C28.3495 35.614 28.8548 34.7552 28.9291 33.791L29.3817 27.9333C29.4199 27.9018 29.4583 27.8708 29.4964 27.839C32.5909 25.2578 35.2729 22.0235 36.8547 18.9652C39.9577 12.9659 40.1278 6.69207 39.9529 3.48621ZM26.2502 34.1922L20.4681 38.0151L19.7231 33.2053C22.1669 32.4868 24.5843 31.3361 26.8874 29.7944L26.5926 33.6104C26.5742 33.8485 26.4494 34.0606 26.2502 34.1922ZM16.1022 31.2721L9.22774 24.3977C9.05235 24.2222 8.97126 23.9757 9.01103 23.7383C9.2154 22.5162 9.53298 21.3528 9.9261 20.2569L20.2408 30.5716C18.9245 31.0431 17.7456 31.3243 16.7616 31.4889C16.5238 31.5284 16.2776 31.4475 16.1022 31.2721ZM6.88946 13.9074L10.7054 13.6126C9.16368 15.9157 8.0129 18.3331 7.29438 20.7768L2.4847 20.0319L6.30767 14.2497C6.43938 14.0505 6.65149 13.9257 6.88946 13.9074ZM27.9953 26.0391C26.1021 27.6182 24.2644 28.7604 22.5705 29.5869L10.9126 17.929C11.9952 15.7178 13.3166 13.8764 14.4608 12.5047C16.8495 9.64105 19.8203 7.17066 22.6117 5.72691C28.1174 2.87902 33.9183 2.72566 36.8861 2.88722C37.2789 2.90863 37.5913 3.22105 37.6127 3.61394C37.7745 6.58175 37.6209 12.3825 34.773 17.8884C33.3293 20.6796 30.8589 23.6504 27.9953 26.0391Z" fill="#8B3E3E"/>
<path id="Vector_2" d="M27.4001 18.9565C28.9003 18.9563 30.4011 18.3853 31.5432 17.2431C32.6499 16.1365 33.2593 14.6651 33.2593 13.1001C33.2593 11.5351 32.6498 10.0637 31.5432 8.95705C29.2586 6.67244 25.5414 6.6726 23.2571 8.95705C22.1503 10.0637 21.5409 11.5351 21.5409 13.1001C21.5409 14.6651 22.1504 16.1365 23.2571 17.2431C24.3994 18.3855 25.8994 18.9567 27.4001 18.9565ZM24.9142 10.6142C25.5995 9.92885 26.4997 9.58619 27.4 9.58619C28.3003 9.58619 29.2005 9.92885 29.8858 10.6142C30.5498 11.2782 30.9154 12.161 30.9154 13.1C30.9154 14.039 30.5498 14.9219 29.8858 15.5859C28.5152 16.9566 26.2848 16.9565 24.9141 15.5859C24.2501 14.9219 23.8844 14.0391 23.8844 13.1001C23.8844 12.1611 24.2502 11.2782 24.9142 10.6142Z" fill="#8B3E3E"/>
<path id="Vector_3" d="M1.1954 33.4639C1.49532 33.4639 1.79524 33.3495 2.02399 33.1206L5.85 29.2946C6.30766 28.8369 6.30766 28.095 5.85 27.6373C5.39243 27.1797 4.6504 27.1797 4.19274 27.6373L0.366802 31.4633C-0.0908545 31.921 -0.0908545 32.6629 0.366802 33.1206C0.595552 33.3494 0.895474 33.4639 1.1954 33.4639Z" fill="#8B3E3E"/>
<path id="Vector_4" d="M9.35629 31.1437C8.89871 30.686 8.15668 30.686 7.69902 31.1437L0.343242 38.4995C-0.114414 38.9572 -0.114414 39.6991 0.343242 40.1568C0.57207 40.3856 0.871914 40.5 1.17184 40.5C1.47176 40.5 1.77168 40.3856 2.00043 40.1567L9.35621 32.8009C9.81394 32.3433 9.81394 31.6013 9.35629 31.1437Z" fill="#8B3E3E"/>
<path id="Vector_5" d="M11.2054 34.65L7.37937 38.476C6.92172 38.9337 6.92172 39.6756 7.37937 40.1333C7.6082 40.3621 7.90812 40.4766 8.20797 40.4766C8.50781 40.4766 8.80781 40.3622 9.03656 40.1333L12.8626 36.3073C13.3202 35.8496 13.3202 35.1077 12.8626 34.65C12.405 34.1923 11.663 34.1923 11.2054 34.65Z" fill="#8B3E3E"/>
</g>
<defs>
<clipPath id="clip0_112_598">
<rect width="40" height="40" fill="white" transform="translate(0 0.5)"/>
</clipPath>
</defs>
</svg>
