<svg width="20" height="21" viewBox="0 0 20 21" fill="none" xmlns="http://www.w3.org/2000/svg">
<g clip-path="url(#clip0_105_1691)">
<path d="M14.5892 12.4223L14.5817 12.4848C12.7492 11.5715 12.5575 11.4498 12.3208 11.8048C12.1567 12.0506 11.6783 12.6081 11.5342 12.7731C11.3883 12.9356 11.2433 12.9481 10.9958 12.8356C10.7458 12.7106 9.94333 12.4481 8.99333 11.5981C8.25333 10.9356 7.75666 10.1231 7.60999 9.87315C7.36583 9.45148 7.87666 9.39148 8.34166 8.51148C8.42499 8.33648 8.38249 8.19898 8.32083 8.07482C8.25833 7.94982 7.76083 6.72482 7.55249 6.23648C7.35249 5.74982 7.14666 5.81148 6.99249 5.81148C6.51249 5.76982 6.16166 5.77648 5.85249 6.09815C4.50749 7.57648 4.84666 9.10148 5.99749 10.7231C8.25916 13.6831 9.46416 14.2281 11.6675 14.9848C12.2625 15.174 12.805 15.1473 13.2342 15.0856C13.7125 15.0098 14.7067 14.4848 14.9142 13.8973C15.1267 13.3098 15.1267 12.8223 15.0642 12.7098C15.0025 12.5973 14.8392 12.5348 14.5892 12.4223Z" fill="white"/>
<path d="M17.1 3.37404C10.6925 -2.82013 0.0883333 1.67237 0.0841667 10.4107C0.0841667 12.1574 0.541667 13.8607 1.41333 15.3649L0 20.4999L5.27917 19.1232C11.8667 22.6815 19.9967 17.9565 20 10.4157C20 7.76904 18.9667 5.27821 17.0875 3.40654L17.1 3.37404ZM18.335 10.3882C18.33 16.749 11.3475 20.7215 5.825 17.4749L5.525 17.2965L2.4 18.109L3.2375 15.0715L3.03833 14.759C-0.398333 9.28821 3.55 2.13821 10.06 2.13821C12.2717 2.13821 14.3475 3.00071 15.9108 4.56321C17.4733 6.11237 18.335 8.18821 18.335 10.3882Z" fill="white"/>
</g>
<defs>
<clipPath id="clip0_105_1691">
<rect width="20" height="20" fill="white" transform="translate(0 0.5)"/>
</clipPath>
</defs>
</svg>
