<svg width="40" height="42" viewBox="0 0 40 42" fill="none" xmlns="http://www.w3.org/2000/svg">
<g id="task-actions 1" clip-path="url(#clip0_112_590)">
<g id="Icon v1">
<path id="Vector" d="M30.6549 18.5279C31.0533 18.5279 31.4354 18.3697 31.7172 18.0879C31.9989 17.8062 32.1572 17.4241 32.1572 17.0256V9.51411C32.1572 8.3188 31.6824 7.17245 30.8372 6.32724C29.9919 5.48203 28.8456 5.00719 27.6503 5.00719H26.148C25.9661 3.74654 25.3328 2.59476 24.3657 1.76585C23.3986 0.936927 22.1635 0.487222 20.8899 0.500276H13.3784C12.1176 0.505357 10.9007 0.96326 9.94934 1.79053C8.99797 2.61781 8.37552 3.75938 8.19542 5.00719H6.618C5.42269 5.00719 4.27634 5.48203 3.43113 6.32724C2.58592 7.17245 2.11108 8.3188 2.11108 9.51411V35.0533C2.11108 36.2486 2.58592 37.395 3.43113 38.2402C4.27634 39.0854 5.42269 39.5602 6.618 39.5602H15.6318C16.0303 39.5602 16.4124 39.4019 16.6941 39.1202C16.9759 38.8385 17.1341 38.4563 17.1341 38.0579C17.1341 37.6595 16.9759 37.2774 16.6941 36.9956C16.4124 36.7139 16.0303 36.5556 15.6318 36.5556H6.618C6.21956 36.5556 5.83745 36.3973 5.55571 36.1156C5.27397 35.8339 5.1157 35.4517 5.1157 35.0533V9.51411C5.1157 9.11567 5.27397 8.73356 5.55571 8.45182C5.83745 8.17008 6.21956 8.0118 6.618 8.0118H8.64611C9.0712 8.90798 9.74111 9.66565 10.5785 10.1973C11.4158 10.729 12.3865 11.0129 13.3784 11.0164H20.8899C21.8818 11.0129 22.8525 10.729 23.6898 10.1973C24.5272 9.66565 25.1971 8.90798 25.6222 8.0118H27.6503C28.0487 8.0118 28.4308 8.17008 28.7126 8.45182C28.9943 8.73356 29.1526 9.11567 29.1526 9.51411V17.0256C29.1526 17.4241 29.3109 17.8062 29.5926 18.0879C29.8743 18.3697 30.2565 18.5279 30.6549 18.5279ZM20.8899 8.0118H13.3784C12.7807 8.0118 12.2075 7.77439 11.7849 7.35178C11.3623 6.92918 11.1249 6.356 11.1249 5.75835C11.1249 5.16069 11.3623 4.58752 11.7849 4.16491C12.2075 3.7423 12.7807 3.50489 13.3784 3.50489H20.8899C21.4876 3.50489 22.0607 3.7423 22.4833 4.16491C22.9059 4.58752 23.1434 5.16069 23.1434 5.75835C23.1434 6.356 22.9059 6.92918 22.4833 7.35178C22.0607 7.77439 21.4876 8.0118 20.8899 8.0118Z" fill="#8B3E3E"/>
<path id="Vector_2" d="M26.1483 15.5234C26.1483 15.125 25.99 14.7429 25.7083 14.4611C25.4265 14.1794 25.0444 14.0211 24.646 14.0211H9.62291C9.22447 14.0211 8.84236 14.1794 8.56062 14.4611C8.27888 14.7429 8.12061 15.125 8.12061 15.5234C8.12061 15.9219 8.27888 16.304 8.56062 16.5857C8.84236 16.8675 9.22447 17.0257 9.62291 17.0257H24.646C25.0444 17.0257 25.4265 16.8675 25.7083 16.5857C25.99 16.304 26.1483 15.9219 26.1483 15.5234Z" fill="#8B3E3E"/>
<path id="Vector_3" d="M21.6414 21.5325C21.6414 21.134 21.4831 20.7519 21.2013 20.4702C20.9196 20.1884 20.5375 20.0302 20.1391 20.0302H9.62291C9.22447 20.0302 8.84236 20.1884 8.56062 20.4702C8.27888 20.7519 8.12061 21.134 8.12061 21.5325C8.12061 21.9309 8.27888 22.313 8.56062 22.5947C8.84236 22.8765 9.22447 23.0348 9.62291 23.0348H20.1391C20.5375 23.0348 20.9196 22.8765 21.2013 22.5947C21.4831 22.313 21.6414 21.9309 21.6414 21.5325Z" fill="#8B3E3E"/>
<path id="Vector_4" d="M9.62291 26.0397C9.22447 26.0397 8.84236 26.1979 8.56062 26.4797C8.27888 26.7614 8.12061 27.1435 8.12061 27.542C8.12061 27.9404 8.27888 28.3225 8.56062 28.6043C8.84236 28.886 9.22447 29.0443 9.62291 29.0443H15.6321C16.0306 29.0443 16.4127 28.886 16.6944 28.6043C16.9762 28.3225 17.1344 27.9404 17.1344 27.542C17.1344 27.1435 16.9762 26.7614 16.6944 26.4797C16.4127 26.1979 16.0306 26.0397 15.6321 26.0397H9.62291Z" fill="#8B3E3E"/>
<path id="Vector_5" d="M28.4012 21.5328C26.4699 21.5328 24.5819 22.1055 22.9761 23.1785C21.3702 24.2515 20.1186 25.7766 19.3796 27.5609C18.6405 29.3452 18.4471 31.3087 18.8239 33.2029C19.2007 35.0971 20.1307 36.8371 21.4963 38.2027C22.862 39.5684 24.6019 40.4984 26.4962 40.8752C28.3904 41.252 30.3538 41.0586 32.1381 40.3195C33.9224 39.5804 35.4475 38.3288 36.5205 36.723C37.5935 35.1171 38.1662 33.2292 38.1662 31.2978C38.1622 28.7092 37.1321 26.2278 35.3017 24.3973C33.4713 22.5669 30.9898 21.5368 28.4012 21.5328ZM28.4012 38.0582C27.0641 38.0582 25.7571 37.6617 24.6454 36.9189C23.5336 36.176 22.6671 35.1202 22.1555 33.8849C21.6438 32.6496 21.5099 31.2903 21.7707 29.9789C22.0316 28.6676 22.6755 27.463 23.6209 26.5175C24.5664 25.5721 25.771 24.9282 27.0823 24.6673C28.3937 24.4065 29.753 24.5404 30.9883 25.0521C32.2236 25.5637 33.2794 26.4302 34.0223 27.542C34.7651 28.6537 35.1616 29.9607 35.1616 31.2978C35.1576 33.0896 34.4441 34.8068 33.1771 36.0737C31.9102 37.3407 30.193 38.0542 28.4012 38.0582Z" fill="#8B3E3E"/>
<path id="Vector_6" d="M30.6551 27.9776L27.2148 31.4329L26.028 30.231C25.7451 29.9482 25.3614 29.7892 24.9613 29.7892C24.5613 29.7892 24.1776 29.9482 23.8947 30.231C23.6118 30.5139 23.4529 30.8976 23.4529 31.2977C23.4529 31.6977 23.6118 32.0814 23.8947 32.3643L26.1482 34.6178C26.2878 34.7586 26.454 34.8703 26.637 34.9466C26.8201 35.0229 27.0165 35.0622 27.2148 35.0622C27.4131 35.0622 27.6095 35.0229 27.7925 34.9466C27.9756 34.8703 28.1418 34.7586 28.2814 34.6178L32.7883 30.1109C33.0712 29.828 33.2302 29.4443 33.2302 29.0442C33.2302 28.6442 33.0712 28.2605 32.7883 27.9776C32.5055 27.6947 32.1218 27.5358 31.7217 27.5358C31.3216 27.5358 30.938 27.6947 30.6551 27.9776Z" fill="#8B3E3E"/>
</g>
</g>
<defs>
<clipPath id="clip0_112_590">
<rect width="40" height="41" fill="white" transform="translate(0 0.5)"/>
</clipPath>
</defs>
</svg>
